{"glyphs":{"0":{"ha":760,"x_min":79,"x_max":682,"o":"m 387 -12 q 224 39 294 -12 q 117 183 155 91 q 79 397 79 275 q 119 609 79 517 q 231 755 160 701 q 389 808 301 808 q 542 757 476 808 q 645 614 608 705 q 682 401 682 522 q 644 192 682 286 q 538 43 605 98 q 387 -12 471 -12 m 391 39 q 494 81 450 39 q 564 199 538 123 q 589 370 589 274 q 532 652 589 549 q 381 754 476 754 q 230 665 283 754 q 176 416 176 575 q 203 218 176 304 q 277 86 229 133 q 391 39 326 39 z "},"1":{"ha":435,"x_min":73,"x_max":374,"o":"m 263 251 q 264 140 263 180 q 266 81 264 99 q 269 58 267 64 l 374 41 l 372 0 l 85 0 l 83 41 l 186 58 q 188 91 187 66 q 190 156 189 115 q 191 251 191 197 l 191 566 q 189 628 191 595 q 184 697 187 661 l 77 671 l 73 718 l 266 808 q 264 727 264 777 q 263 585 263 677 l 263 251 z "},"2":{"ha":642,"x_min":39,"x_max":582,"o":"m 71 -3 l 65 34 q 279 246 201 156 q 392 410 358 336 q 426 557 426 484 q 382 686 426 637 q 259 735 339 735 q 66 624 140 735 l 39 643 q 134 764 71 719 q 275 808 197 808 q 401 780 347 808 q 486 701 456 751 q 517 581 517 650 q 425 338 517 469 q 144 58 332 206 l 152 81 l 461 81 q 481 83 469 81 q 495 85 494 84 l 541 208 l 582 203 l 559 -5 q 525 -2 540 -3 q 492 -1 510 -1 q 441 0 473 0 l 170 0 q 119 -1 144 0 q 71 -3 94 -1 z "},"3":{"ha":652,"x_min":79,"x_max":568,"o":"m 346 430 l 336 442 q 505 384 442 437 q 568 240 568 331 q 526 113 568 170 q 415 22 483 56 q 270 -12 347 -12 q 175 -1 216 -12 q 112 32 134 11 q 90 80 90 53 q 102 109 90 96 q 133 122 115 122 q 168 115 153 122 q 209 88 183 109 l 288 23 l 213 41 q 353 51 292 31 q 451 115 415 71 q 487 221 487 159 q 437 344 487 298 q 304 389 388 389 q 263 388 283 389 q 220 384 243 387 l 214 434 q 378 489 326 446 q 430 606 430 532 q 389 702 430 669 q 278 735 349 735 q 186 715 231 735 q 106 650 142 694 l 79 670 q 170 771 109 734 q 305 808 232 808 q 454 760 397 808 q 511 633 511 712 q 467 513 511 567 q 346 430 422 460 z "},"4":{"ha":692,"x_min":61,"x_max":618,"o":"m 495 235 q 496 106 495 141 q 498 58 496 72 l 578 41 l 575 0 l 320 0 l 317 41 l 423 58 q 425 106 425 72 q 425 235 425 141 l 425 705 l 458 705 l 132 278 l 134 307 l 618 307 l 618 235 l 69 235 l 61 273 l 472 802 l 498 802 q 495 707 496 753 q 494 614 494 662 l 495 235 z "},"5":{"ha":644,"x_min":73,"x_max":552,"o":"m 250 -12 q 158 -1 198 -12 q 96 32 118 11 q 73 80 73 53 q 85 110 73 98 q 117 122 98 122 q 151 115 138 122 q 189 88 164 109 l 271 23 l 197 41 q 336 48 275 30 q 433 109 397 66 q 468 212 468 152 q 441 309 468 271 q 343 372 415 347 q 137 418 271 397 l 183 796 l 517 796 l 507 709 l 233 709 l 203 433 l 168 488 q 465 401 377 463 q 552 233 552 339 q 509 107 552 163 q 396 20 465 52 q 250 -12 327 -12 z "},"6":{"ha":682,"x_min":94,"x_max":606,"o":"m 170 320 q 254 420 199 385 q 374 456 309 456 q 493 428 441 456 q 576 351 545 400 q 606 236 606 301 q 572 113 606 170 q 480 22 537 57 q 357 -12 423 -12 q 218 22 278 -12 q 126 122 159 57 q 94 279 94 187 q 126 473 94 384 q 218 633 159 563 q 359 751 277 704 q 540 821 441 799 l 557 770 q 356 673 439 739 q 229 511 273 608 q 186 292 186 415 q 207 158 186 214 q 268 72 228 102 q 365 42 308 42 q 472 90 430 42 q 514 216 514 137 q 468 338 514 290 q 347 387 422 387 q 283 375 313 387 q 226 340 252 363 q 176 281 199 317 l 170 320 z "},"7":{"ha":625,"x_min":38,"x_max":602,"o":"m 289 0 l 203 0 l 203 34 l 538 753 l 538 709 l 168 709 q 144 709 155 709 q 129 705 133 708 l 77 586 l 38 593 l 75 802 q 109 799 95 800 q 139 797 122 798 q 184 796 156 796 l 494 796 q 545 797 518 796 q 597 798 571 798 l 602 761 l 289 0 z "},"8":{"ha":719,"x_min":103,"x_max":614,"o":"m 354 -12 q 222 15 278 -12 q 134 89 165 42 q 103 194 103 136 q 154 328 103 274 q 290 404 205 382 l 345 392 q 219 308 256 357 q 182 205 182 259 q 229 92 182 141 q 369 42 275 42 q 490 79 446 42 q 533 180 533 115 q 505 272 533 236 q 431 332 476 308 q 334 379 385 357 q 237 429 282 401 q 163 498 191 457 q 134 605 134 540 q 165 709 134 663 q 249 781 197 754 q 365 808 301 808 q 477 783 427 808 q 558 713 528 757 q 589 613 589 669 q 552 488 589 543 q 458 399 515 434 l 423 416 q 490 503 469 460 q 510 598 510 545 q 470 715 510 670 q 354 760 430 760 q 254 724 296 760 q 212 625 212 689 q 241 534 212 570 q 316 473 270 498 q 413 425 362 448 q 510 376 464 403 q 585 309 556 349 q 614 209 614 270 q 582 96 614 146 q 491 17 549 46 q 354 -12 433 -12 z "},"9":{"ha":682,"x_min":76,"x_max":590,"o":"m 515 476 q 431 376 486 412 q 308 340 376 340 q 190 369 243 340 q 106 447 137 397 q 76 560 76 496 q 109 680 76 623 q 198 772 141 736 q 328 808 255 808 q 466 774 407 808 q 557 674 525 739 q 590 517 590 609 q 557 326 590 414 q 466 167 525 237 q 325 49 407 96 q 145 -20 243 1 l 125 30 q 327 127 244 62 q 453 288 410 193 q 496 505 496 384 q 475 639 496 583 q 415 725 454 694 q 317 755 376 755 q 211 707 254 755 q 168 581 168 659 q 216 458 168 506 q 339 410 264 410 q 403 421 373 410 q 460 456 433 433 q 510 515 487 480 l 515 476 z "},"A":{"ha":774,"x_min":5,"x_max":768,"o":"m 8 0 l 5 43 l 72 61 l 351 781 l 414 821 l 701 61 l 768 43 l 765 0 l 533 0 l 530 43 l 612 61 l 529 275 l 514 315 l 359 707 l 388 738 l 232 313 l 217 273 l 141 61 l 222 43 l 220 0 l 8 0 m 186 260 l 186 323 q 262 320 212 321 q 382 319 312 319 q 502 320 452 319 q 576 323 552 321 l 576 260 q 469 262 519 262 q 382 263 419 263 q 298 262 347 263 q 186 260 250 262 z "},"Á":{"ha":774,"x_min":5,"x_max":768,"o":"m 8 0 l 5 43 l 72 61 l 351 781 l 414 821 l 701 61 l 768 43 l 765 0 l 533 0 l 530 43 l 612 61 l 529 275 l 514 315 l 359 707 l 388 738 l 232 313 l 217 273 l 141 61 l 222 43 l 220 0 l 8 0 m 186 260 l 186 323 q 262 320 212 321 q 382 319 312 319 q 502 320 452 319 q 576 323 552 321 l 576 260 q 469 262 519 262 q 382 263 419 263 q 298 262 347 263 q 186 260 250 262 m 404 872 l 361 887 l 444 1063 l 526 1032 l 404 872 z "},"Ă":{"ha":774,"x_min":5,"x_max":768,"o":"m 8 0 l 5 43 l 72 61 l 351 781 l 414 821 l 701 61 l 768 43 l 765 0 l 533 0 l 530 43 l 612 61 l 529 275 l 514 315 l 359 707 l 388 738 l 232 313 l 217 273 l 141 61 l 222 43 l 220 0 l 8 0 m 186 260 l 186 323 q 262 320 212 321 q 382 319 312 319 q 502 320 452 319 q 576 323 552 321 l 576 260 q 469 262 519 262 q 382 263 419 263 q 298 262 347 263 q 186 260 250 262 m 555 1055 l 594 1040 q 525 919 581 962 q 384 876 469 876 q 242 919 300 876 q 171 1040 184 962 l 216 1055 q 271 976 227 1005 q 382 947 316 947 q 499 976 454 947 q 555 1055 544 1005 z "},"Ắ":{"ha":774,"x_min":5,"x_max":768,"o":"m 8 0 l 5 43 l 72 61 l 351 781 l 414 821 l 701 61 l 768 43 l 765 0 l 533 0 l 530 43 l 612 61 l 529 275 l 514 315 l 359 707 l 388 738 l 232 313 l 217 273 l 141 61 l 222 43 l 220 0 l 8 0 m 186 260 l 186 323 q 262 320 212 321 q 382 319 312 319 q 502 320 452 319 q 576 323 552 321 l 576 260 q 469 262 519 262 q 382 263 419 263 q 298 262 347 263 q 186 260 250 262 m 393 1029 l 351 1044 l 431 1221 l 514 1190 l 393 1029 m 555 1055 l 594 1040 q 525 919 581 962 q 384 876 469 876 q 242 919 300 876 q 171 1040 184 962 l 216 1055 q 271 976 227 1005 q 382 947 316 947 q 499 976 454 947 q 555 1055 544 1005 z "},"Ặ":{"ha":774,"x_min":5,"x_max":768,"o":"m 8 0 l 5 43 l 72 61 l 351 781 l 414 821 l 701 61 l 768 43 l 765 0 l 533 0 l 530 43 l 612 61 l 529 275 l 514 315 l 359 707 l 388 738 l 232 313 l 217 273 l 141 61 l 222 43 l 220 0 l 8 0 m 186 260 l 186 323 q 262 320 212 321 q 382 319 312 319 q 502 320 452 319 q 576 323 552 321 l 576 260 q 469 262 519 262 q 382 263 419 263 q 298 262 347 263 q 186 260 250 262 m 377 -263 q 336 -248 355 -263 q 317 -208 317 -233 q 336 -166 317 -182 q 377 -151 355 -151 q 416 -166 399 -151 q 434 -208 434 -182 q 416 -248 434 -233 q 377 -263 399 -263 m 555 1055 l 594 1040 q 525 919 581 962 q 384 876 469 876 q 242 919 300 876 q 171 1040 184 962 l 216 1055 q 271 976 227 1005 q 382 947 316 947 q 499 976 454 947 q 555 1055 544 1005 z "},"Ằ":{"ha":774,"x_min":5,"x_max":768,"o":"m 8 0 l 5 43 l 72 61 l 351 781 l 414 821 l 701 61 l 768 43 l 765 0 l 533 0 l 530 43 l 612 61 l 529 275 l 514 315 l 359 707 l 388 738 l 232 313 l 217 273 l 141 61 l 222 43 l 220 0 l 8 0 m 186 260 l 186 323 q 262 320 212 321 q 382 319 312 319 q 502 320 452 319 q 576 323 552 321 l 576 260 q 469 262 519 262 q 382 263 419 263 q 298 262 347 263 q 186 260 250 262 m 384 876 q 242 919 300 876 q 171 1040 184 962 l 216 1055 q 271 976 227 1005 q 382 947 316 947 q 499 976 454 947 q 555 1055 544 1005 l 594 1040 q 525 919 581 962 q 384 876 469 876 m 372 1029 l 251 1190 l 334 1221 l 415 1044 l 372 1029 z "},"Ẳ":{"ha":774,"x_min":5,"x_max":768,"o":"m 8 0 l 5 43 l 72 61 l 351 781 l 414 821 l 701 61 l 768 43 l 765 0 l 533 0 l 530 43 l 612 61 l 529 275 l 514 315 l 359 707 l 388 738 l 232 313 l 217 273 l 141 61 l 222 43 l 220 0 l 8 0 m 186 260 l 186 323 q 262 320 212 321 q 382 319 312 319 q 502 320 452 319 q 576 323 552 321 l 576 260 q 469 262 519 262 q 382 263 419 263 q 298 262 347 263 q 186 260 250 262 m 388 1221 q 472 1199 439 1221 q 505 1138 505 1177 q 489 1094 505 1108 q 453 1069 473 1080 q 417 1044 433 1059 q 401 998 401 1029 l 365 998 l 365 1019 q 380 1075 365 1055 q 412 1109 396 1095 q 427 1142 427 1123 q 403 1186 427 1180 q 349 1185 378 1192 l 393 1192 l 350 1153 q 324 1131 332 1137 q 301 1124 316 1124 q 279 1134 288 1124 q 270 1157 270 1143 q 302 1200 270 1180 q 388 1221 335 1221 m 384 876 q 242 919 300 876 q 171 1040 184 962 l 216 1055 q 271 976 227 1005 q 382 947 316 947 q 499 976 454 947 q 555 1055 544 1005 l 594 1040 q 525 919 581 962 q 384 876 469 876 z "},"Ẵ":{"ha":774,"x_min":5,"x_max":768,"o":"m 8 0 l 5 43 l 72 61 l 351 781 l 414 821 l 701 61 l 768 43 l 765 0 l 533 0 l 530 43 l 612 61 l 529 275 l 514 315 l 359 707 l 388 738 l 232 313 l 217 273 l 141 61 l 222 43 l 220 0 l 8 0 m 186 260 l 186 323 q 262 320 212 321 q 382 319 312 319 q 502 320 452 319 q 576 323 552 321 l 576 260 q 469 262 519 262 q 382 263 419 263 q 298 262 347 263 q 186 260 250 262 m 382 876 q 241 919 298 876 q 170 1040 183 962 l 213 1055 q 269 976 225 1005 q 381 947 313 947 q 498 976 453 947 q 552 1055 543 1005 l 591 1040 q 523 919 578 962 q 382 876 468 876 m 475 1081 q 408 1097 441 1081 q 343 1130 374 1114 q 282 1146 312 1146 q 234 1129 251 1146 q 201 1081 217 1112 l 160 1101 q 212 1191 179 1157 q 288 1225 245 1225 q 355 1208 321 1225 q 419 1176 388 1192 q 480 1160 450 1160 q 526 1177 509 1160 q 560 1225 544 1195 l 601 1204 q 549 1115 582 1149 q 475 1081 515 1081 z "},"Â":{"ha":774,"x_min":5,"x_max":768,"o":"m 8 0 l 5 43 l 72 61 l 351 781 l 414 821 l 701 61 l 768 43 l 765 0 l 533 0 l 530 43 l 612 61 l 529 275 l 514 315 l 359 707 l 388 738 l 232 313 l 217 273 l 141 61 l 222 43 l 220 0 l 8 0 m 186 260 l 186 323 q 262 320 212 321 q 382 319 312 319 q 502 320 452 319 q 576 323 552 321 l 576 260 q 469 262 519 262 q 382 263 419 263 q 298 262 347 263 q 186 260 250 262 m 600 897 l 562 868 l 343 997 l 422 997 l 203 868 l 165 897 l 343 1044 l 422 1044 l 600 897 z "},"Ấ":{"ha":774,"x_min":5,"x_max":768,"o":"m 8 0 l 5 43 l 72 61 l 351 781 l 414 821 l 701 61 l 768 43 l 765 0 l 533 0 l 530 43 l 612 61 l 529 275 l 514 315 l 359 707 l 388 738 l 232 313 l 217 273 l 141 61 l 222 43 l 220 0 l 8 0 m 186 260 l 186 323 q 262 320 212 321 q 382 319 312 319 q 502 320 452 319 q 576 323 552 321 l 576 260 q 469 262 519 262 q 382 263 419 263 q 298 262 347 263 q 186 260 250 262 m 525 1016 l 484 1031 l 581 1225 l 665 1194 l 525 1016 m 600 897 l 562 868 l 343 997 l 422 997 l 203 868 l 165 897 l 343 1044 l 422 1044 l 600 897 z "},"Ậ":{"ha":774,"x_min":5,"x_max":768,"o":"m 8 0 l 5 43 l 72 61 l 351 781 l 414 821 l 701 61 l 768 43 l 765 0 l 533 0 l 530 43 l 612 61 l 529 275 l 514 315 l 359 707 l 388 738 l 232 313 l 217 273 l 141 61 l 222 43 l 220 0 l 8 0 m 186 260 l 186 323 q 262 320 212 321 q 382 319 312 319 q 502 320 452 319 q 576 323 552 321 l 576 260 q 469 262 519 262 q 382 263 419 263 q 298 262 347 263 q 186 260 250 262 m 377 -263 q 336 -248 355 -263 q 317 -208 317 -233 q 336 -166 317 -182 q 377 -151 355 -151 q 416 -166 399 -151 q 434 -208 434 -182 q 416 -248 434 -233 q 377 -263 399 -263 m 600 897 l 562 868 l 343 997 l 422 997 l 203 868 l 165 897 l 343 1044 l 422 1044 l 600 897 z "},"Ầ":{"ha":774,"x_min":5,"x_max":768,"o":"m 8 0 l 5 43 l 72 61 l 351 781 l 414 821 l 701 61 l 768 43 l 765 0 l 533 0 l 530 43 l 612 61 l 529 275 l 514 315 l 359 707 l 388 738 l 232 313 l 217 273 l 141 61 l 222 43 l 220 0 l 8 0 m 186 260 l 186 323 q 262 320 212 321 q 382 319 312 319 q 502 320 452 319 q 576 323 552 321 l 576 260 q 469 262 519 262 q 382 263 419 263 q 298 262 347 263 q 186 260 250 262 m 536 1016 l 396 1194 l 480 1225 l 578 1031 l 536 1016 m 600 897 l 562 868 l 343 997 l 422 997 l 203 868 l 165 897 l 343 1044 l 422 1044 l 600 897 z "},"Ẩ":{"ha":774,"x_min":5,"x_max":768,"o":"m 8 0 l 5 43 l 72 61 l 351 781 l 414 821 l 701 61 l 768 43 l 765 0 l 533 0 l 530 43 l 612 61 l 529 275 l 514 315 l 359 707 l 388 738 l 232 313 l 217 273 l 141 61 l 222 43 l 220 0 l 8 0 m 186 260 l 186 323 q 262 320 212 321 q 382 319 312 319 q 502 320 452 319 q 576 323 552 321 l 576 260 q 469 262 519 262 q 382 263 419 263 q 298 262 347 263 q 186 260 250 262 m 600 897 l 562 868 l 343 997 l 422 997 l 203 868 l 165 897 l 343 1044 l 422 1044 l 600 897 m 528 1221 q 612 1199 579 1221 q 646 1138 646 1177 q 630 1094 646 1108 q 594 1069 614 1080 q 558 1044 574 1059 q 543 998 543 1029 l 506 998 l 506 1019 q 521 1075 506 1055 q 551 1109 536 1095 q 567 1142 567 1123 q 543 1186 567 1180 q 490 1185 518 1192 l 534 1192 l 491 1153 q 465 1131 473 1137 q 442 1124 457 1124 q 419 1134 427 1124 q 411 1157 411 1143 q 443 1200 411 1180 q 528 1221 475 1221 z "},"Ẫ":{"ha":774,"x_min":5,"x_max":768,"o":"m 8 0 l 5 43 l 72 61 l 351 781 l 414 821 l 701 61 l 768 43 l 765 0 l 533 0 l 530 43 l 612 61 l 529 275 l 514 315 l 359 707 l 388 738 l 232 313 l 217 273 l 141 61 l 222 43 l 220 0 l 8 0 m 186 260 l 186 323 q 262 320 212 321 q 382 319 312 319 q 502 320 452 319 q 576 323 552 321 l 576 260 q 469 262 519 262 q 382 263 419 263 q 298 262 347 263 q 186 260 250 262 m 203 868 l 165 897 l 343 1044 l 422 1044 l 600 897 l 562 868 l 343 997 l 422 997 l 203 868 m 475 1081 q 408 1097 441 1081 q 343 1130 374 1114 q 282 1146 312 1146 q 234 1129 251 1146 q 201 1081 217 1112 l 160 1101 q 212 1191 179 1157 q 288 1225 245 1225 q 355 1208 321 1225 q 419 1176 388 1192 q 480 1160 450 1160 q 526 1177 509 1160 q 560 1225 544 1195 l 601 1204 q 549 1115 582 1149 q 475 1081 515 1081 z "},"Ȁ":{"ha":774,"x_min":5,"x_max":768,"o":"m 8 0 l 5 43 l 72 61 l 351 781 l 414 821 l 701 61 l 768 43 l 765 0 l 533 0 l 530 43 l 612 61 l 529 275 l 514 315 l 359 707 l 388 738 l 232 313 l 217 273 l 141 61 l 222 43 l 220 0 l 8 0 m 186 260 l 186 323 q 262 320 212 321 q 382 319 312 319 q 502 320 452 319 q 576 323 552 321 l 576 260 q 469 262 519 262 q 382 263 419 263 q 298 262 347 263 q 186 260 250 262 m 442 868 l 330 1029 l 412 1047 l 475 882 l 442 868 m 290 868 l 178 1029 l 260 1047 l 323 882 l 290 868 z "},"Ä":{"ha":774,"x_min":5,"x_max":768,"o":"m 8 0 l 5 43 l 72 61 l 351 781 l 414 821 l 701 61 l 768 43 l 765 0 l 533 0 l 530 43 l 612 61 l 529 275 l 514 315 l 359 707 l 388 738 l 232 313 l 217 273 l 141 61 l 222 43 l 220 0 l 8 0 m 186 260 l 186 323 q 262 320 212 321 q 382 319 312 319 q 502 320 452 319 q 576 323 552 321 l 576 260 q 469 262 519 262 q 382 263 419 263 q 298 262 347 263 q 186 260 250 262 m 258 906 q 217 922 235 906 q 199 963 199 937 q 217 1004 199 989 q 258 1020 235 1020 q 297 1004 281 1020 q 313 963 313 989 q 297 922 313 937 q 258 906 281 906 m 510 906 q 469 922 487 906 q 452 963 452 937 q 469 1004 452 989 q 510 1020 487 1020 q 549 1004 533 1020 q 566 963 566 989 q 549 922 566 937 q 510 906 533 906 z "},"Ȧ":{"ha":774,"x_min":5,"x_max":768,"o":"m 8 0 l 5 43 l 72 61 l 351 781 l 414 821 l 701 61 l 768 43 l 765 0 l 533 0 l 530 43 l 612 61 l 529 275 l 514 315 l 359 707 l 388 738 l 232 313 l 217 273 l 141 61 l 222 43 l 220 0 l 8 0 m 186 260 l 186 323 q 262 320 212 321 q 382 319 312 319 q 502 320 452 319 q 576 323 552 321 l 576 260 q 469 262 519 262 q 382 263 419 263 q 298 262 347 263 q 186 260 250 262 m 384 906 q 343 922 362 906 q 324 963 324 937 q 343 1004 324 987 q 384 1020 362 1020 q 423 1004 406 1020 q 441 963 441 987 q 423 922 441 937 q 384 906 406 906 z "},"Ạ":{"ha":774,"x_min":5,"x_max":768,"o":"m 8 0 l 5 43 l 72 61 l 351 781 l 414 821 l 701 61 l 768 43 l 765 0 l 533 0 l 530 43 l 612 61 l 529 275 l 514 315 l 359 707 l 388 738 l 232 313 l 217 273 l 141 61 l 222 43 l 220 0 l 8 0 m 186 260 l 186 323 q 262 320 212 321 q 382 319 312 319 q 502 320 452 319 q 576 323 552 321 l 576 260 q 469 262 519 262 q 382 263 419 263 q 298 262 347 263 q 186 260 250 262 m 377 -263 q 336 -248 355 -263 q 317 -208 317 -233 q 336 -166 317 -182 q 377 -151 355 -151 q 416 -166 399 -151 q 434 -208 434 -182 q 416 -248 434 -233 q 377 -263 399 -263 z "},"À":{"ha":774,"x_min":5,"x_max":768,"o":"m 8 0 l 5 43 l 72 61 l 351 781 l 414 821 l 701 61 l 768 43 l 765 0 l 533 0 l 530 43 l 612 61 l 529 275 l 514 315 l 359 707 l 388 738 l 232 313 l 217 273 l 141 61 l 222 43 l 220 0 l 8 0 m 186 260 l 186 323 q 262 320 212 321 q 382 319 312 319 q 502 320 452 319 q 576 323 552 321 l 576 260 q 469 262 519 262 q 382 263 419 263 q 298 262 347 263 q 186 260 250 262 m 361 872 l 239 1032 l 321 1063 l 404 887 l 361 872 z "},"Ả":{"ha":774,"x_min":5,"x_max":768,"o":"m 8 0 l 5 43 l 72 61 l 351 781 l 414 821 l 701 61 l 768 43 l 765 0 l 533 0 l 530 43 l 612 61 l 529 275 l 514 315 l 359 707 l 388 738 l 232 313 l 217 273 l 141 61 l 222 43 l 220 0 l 8 0 m 186 260 l 186 323 q 262 320 212 321 q 382 319 312 319 q 502 320 452 319 q 576 323 552 321 l 576 260 q 469 262 519 262 q 382 263 419 263 q 298 262 347 263 q 186 260 250 262 m 388 1123 q 472 1101 439 1123 q 505 1040 505 1080 q 489 989 505 1006 q 453 961 473 972 q 417 933 433 949 q 401 884 401 917 l 365 884 l 365 907 q 380 970 365 947 q 412 1009 396 993 q 427 1044 427 1025 q 403 1088 427 1082 q 349 1088 378 1095 l 393 1096 l 350 1055 q 324 1033 332 1039 q 301 1027 316 1027 q 279 1036 288 1027 q 270 1059 270 1046 q 302 1103 270 1084 q 388 1123 335 1123 z "},"Ȃ":{"ha":774,"x_min":5,"x_max":768,"o":"m 8 0 l 5 43 l 72 61 l 351 781 l 414 821 l 701 61 l 768 43 l 765 0 l 533 0 l 530 43 l 612 61 l 529 275 l 514 315 l 359 707 l 388 738 l 232 313 l 217 273 l 141 61 l 222 43 l 220 0 l 8 0 m 186 260 l 186 323 q 262 320 212 321 q 382 319 312 319 q 502 320 452 319 q 576 323 552 321 l 576 260 q 469 262 519 262 q 382 263 419 263 q 298 262 347 263 q 186 260 250 262 m 210 868 l 171 883 q 240 1004 184 962 q 381 1047 296 1047 q 523 1004 465 1047 q 594 883 581 962 l 549 868 q 494 947 538 918 q 382 977 450 977 q 266 947 311 977 q 210 868 221 918 z "},"Ā":{"ha":774,"x_min":5,"x_max":768,"o":"m 8 0 l 5 43 l 72 61 l 351 781 l 414 821 l 701 61 l 768 43 l 765 0 l 533 0 l 530 43 l 612 61 l 529 275 l 514 315 l 359 707 l 388 738 l 232 313 l 217 273 l 141 61 l 222 43 l 220 0 l 8 0 m 186 260 l 186 323 q 262 320 212 321 q 382 319 312 319 q 502 320 452 319 q 576 323 552 321 l 576 260 q 469 262 519 262 q 382 263 419 263 q 298 262 347 263 q 186 260 250 262 m 195 993 l 570 993 l 570 929 l 195 929 l 195 993 z "},"Ą":{"ha":774,"x_min":5,"x_max":788,"o":"m 651 -302 q 573 -287 605 -302 q 524 -245 541 -271 q 507 -186 507 -218 q 532 -106 507 -144 q 604 -35 556 -68 q 723 23 652 -3 l 731 0 l 533 0 l 530 43 l 612 61 l 529 275 l 514 315 l 359 707 l 388 738 l 232 313 l 217 273 l 141 61 l 222 43 l 220 0 l 8 0 l 5 43 l 72 61 l 351 781 l 414 821 l 701 61 l 768 43 l 765 0 q 635 -68 685 -22 q 585 -171 585 -115 q 608 -231 585 -209 q 667 -254 631 -254 q 719 -240 696 -254 q 761 -206 742 -227 l 788 -235 q 728 -284 762 -266 q 651 -302 694 -302 m 186 260 l 186 323 q 262 320 212 321 q 382 319 312 319 q 502 320 452 319 q 576 323 552 321 l 576 260 q 469 262 519 262 q 382 263 419 263 q 298 262 347 263 q 186 260 250 262 z "},"Å":{"ha":774,"x_min":5,"x_max":768,"o":"m 8 0 l 5 43 l 72 61 l 351 781 l 414 821 l 701 61 l 768 43 l 765 0 l 533 0 l 530 43 l 612 61 l 529 275 l 514 315 l 359 707 l 388 738 l 232 313 l 217 273 l 141 61 l 222 43 l 220 0 l 8 0 m 186 260 l 186 323 q 262 320 212 321 q 382 319 312 319 q 502 320 452 319 q 576 323 552 321 l 576 260 q 469 262 519 262 q 382 263 419 263 q 298 262 347 263 q 186 260 250 262 m 384 879 q 292 915 330 879 q 255 1002 255 951 q 292 1090 255 1054 q 384 1126 330 1126 q 474 1090 438 1126 q 510 1002 510 1055 q 473 915 510 951 q 384 879 437 879 m 385 917 q 443 941 420 917 q 465 1004 465 964 q 443 1067 465 1043 q 385 1090 420 1090 q 326 1067 350 1090 q 302 1004 302 1043 q 326 942 302 967 q 385 917 350 917 z "},"Ǻ":{"ha":774,"x_min":5,"x_max":768,"o":"m 8 0 l 5 43 l 72 61 l 351 781 l 414 821 l 701 61 l 768 43 l 765 0 l 533 0 l 530 43 l 612 61 l 529 275 l 514 315 l 359 707 l 388 738 l 232 313 l 217 273 l 141 61 l 222 43 l 220 0 l 8 0 m 186 260 l 186 323 q 262 320 212 321 q 382 319 312 319 q 502 320 452 319 q 576 323 552 321 l 576 260 q 469 262 519 262 q 382 263 419 263 q 298 262 347 263 q 186 260 250 262 m 384 879 q 292 915 330 879 q 255 1002 255 951 q 292 1090 255 1054 q 384 1126 330 1126 q 474 1090 438 1126 q 510 1002 510 1055 q 473 915 510 951 q 384 879 437 879 m 385 917 q 443 941 420 917 q 465 1004 465 964 q 443 1067 465 1043 q 385 1090 420 1090 q 326 1067 350 1090 q 302 1004 302 1043 q 326 942 302 967 q 385 917 350 917 m 469 1063 l 427 1078 l 507 1236 l 591 1204 l 469 1063 z "},"Ã":{"ha":774,"x_min":5,"x_max":768,"o":"m 8 0 l 5 43 l 72 61 l 351 781 l 414 821 l 701 61 l 768 43 l 765 0 l 533 0 l 530 43 l 612 61 l 529 275 l 514 315 l 359 707 l 388 738 l 232 313 l 217 273 l 141 61 l 222 43 l 220 0 l 8 0 m 186 260 l 186 323 q 262 320 212 321 q 382 319 312 319 q 502 320 452 319 q 576 323 552 321 l 576 260 q 469 262 519 262 q 382 263 419 263 q 298 262 347 263 q 186 260 250 262 m 608 1027 l 644 1008 q 581 918 621 952 q 490 883 541 883 q 409 903 449 883 q 331 944 369 924 q 258 964 293 964 q 199 945 220 964 q 157 895 178 926 l 121 914 q 184 1004 144 970 q 275 1038 225 1038 q 357 1018 317 1038 q 435 978 396 998 q 510 958 473 958 q 566 977 545 958 q 608 1027 587 997 z "},"Æ":{"ha":1074,"x_min":-12,"x_max":1024,"o":"m 975 -7 q 924 -1 941 -3 q 897 0 907 0 q 875 0 887 0 l 427 0 l 425 43 l 506 61 q 508 101 507 75 q 509 194 509 127 l 509 716 l 545 747 l 137 61 l 218 43 l 216 0 l -9 0 l -12 43 l 54 61 l 503 780 l 519 735 l 400 753 l 403 796 l 854 796 q 892 796 878 796 q 920 798 906 796 q 956 802 935 799 l 979 632 l 926 624 l 883 735 q 865 737 878 736 q 838 738 853 738 l 671 738 q 636 737 654 738 q 593 736 618 736 q 592 701 593 731 q 591 638 591 671 q 590 587 590 605 l 590 182 q 590 160 590 176 q 591 124 590 144 q 592 87 591 104 q 593 64 593 71 q 614 62 604 62 q 665 61 625 61 l 806 61 q 852 62 833 61 q 884 64 871 62 q 903 66 897 65 l 971 193 l 1024 182 l 975 -7 m 236 256 l 247 320 q 283 318 259 319 q 338 317 307 317 q 403 316 369 316 q 498 317 460 316 q 551 320 536 319 l 551 255 q 519 258 548 258 q 403 258 491 258 q 309 258 349 258 q 236 256 269 259 m 836 282 l 815 376 q 795 380 808 378 q 760 381 781 381 l 654 381 q 621 380 639 381 q 574 378 602 380 l 574 441 q 621 439 602 439 q 654 439 639 439 l 760 439 q 795 440 781 439 q 815 444 808 441 l 836 540 l 882 540 l 882 282 l 836 282 z "},"Ǽ":{"ha":1074,"x_min":-12,"x_max":1024,"o":"m 975 -7 q 924 -1 941 -3 q 897 0 907 0 q 875 0 887 0 l 427 0 l 425 43 l 506 61 q 508 101 507 75 q 509 194 509 127 l 509 716 l 545 747 l 137 61 l 218 43 l 216 0 l -9 0 l -12 43 l 54 61 l 503 780 l 519 735 l 400 753 l 403 796 l 854 796 q 892 796 878 796 q 920 798 906 796 q 956 802 935 799 l 979 632 l 926 624 l 883 735 q 865 737 878 736 q 838 738 853 738 l 671 738 q 636 737 654 738 q 593 736 618 736 q 592 701 593 731 q 591 638 591 671 q 590 587 590 605 l 590 182 q 590 160 590 176 q 591 124 590 144 q 592 87 591 104 q 593 64 593 71 q 614 62 604 62 q 665 61 625 61 l 806 61 q 852 62 833 61 q 884 64 871 62 q 903 66 897 65 l 971 193 l 1024 182 l 975 -7 m 236 256 l 247 320 q 283 318 259 319 q 338 317 307 317 q 403 316 369 316 q 498 317 460 316 q 551 320 536 319 l 551 255 q 519 258 548 258 q 403 258 491 258 q 309 258 349 258 q 236 256 269 259 m 836 282 l 815 376 q 795 380 808 378 q 760 381 781 381 l 654 381 q 621 380 639 381 q 574 378 602 380 l 574 441 q 621 439 602 439 q 654 439 639 439 l 760 439 q 795 440 781 439 q 815 444 808 441 l 836 540 l 882 540 l 882 282 l 836 282 m 572 872 l 529 887 l 612 1063 l 694 1032 l 572 872 z "},"B":{"ha":735,"x_min":69,"x_max":669,"o":"m 151 61 q 156 123 153 72 q 159 256 159 175 l 159 538 q 156 681 159 629 q 151 741 153 732 l 69 750 l 72 796 l 365 796 q 559 747 491 796 q 628 605 628 697 q 572 479 628 530 q 427 419 515 427 l 400 429 q 600 374 532 426 q 669 228 669 321 q 578 62 669 125 q 339 0 488 0 l 72 0 l 69 43 l 151 61 m 240 240 q 241 126 240 178 q 244 64 243 75 q 294 58 262 61 q 343 54 327 54 q 522 94 464 54 q 581 216 581 133 q 519 340 581 298 q 339 382 458 382 q 252 382 273 382 q 220 380 232 382 l 220 441 q 276 438 250 439 q 334 437 302 437 q 486 478 431 437 q 540 594 540 519 q 490 707 540 669 q 353 745 441 745 l 243 745 q 241 681 241 735 q 240 563 240 627 l 240 240 z "},"C":{"ha":808,"x_min":76,"x_max":766,"o":"m 495 -12 q 290 33 385 -12 q 135 168 194 77 q 76 396 76 259 q 103 549 76 475 q 184 681 130 623 q 320 774 239 739 q 509 808 401 808 q 623 798 560 808 q 736 768 685 788 l 746 593 l 696 587 l 659 709 q 585 739 633 730 q 496 749 537 749 q 314 701 384 749 q 213 577 244 654 q 182 415 182 500 q 224 213 182 294 q 340 90 267 132 q 500 49 412 49 q 582 58 548 49 q 652 84 616 66 l 719 214 l 766 209 l 730 43 q 621 4 680 20 q 495 -12 563 -12 z "},"Ć":{"ha":808,"x_min":76,"x_max":766,"o":"m 495 -12 q 290 33 385 -12 q 135 168 194 77 q 76 396 76 259 q 103 549 76 475 q 184 681 130 623 q 320 774 239 739 q 509 808 401 808 q 623 798 560 808 q 736 768 685 788 l 746 593 l 696 587 l 659 709 q 585 739 633 730 q 496 749 537 749 q 314 701 384 749 q 213 577 244 654 q 182 415 182 500 q 224 213 182 294 q 340 90 267 132 q 500 49 412 49 q 582 58 548 49 q 652 84 616 66 l 719 214 l 766 209 l 730 43 q 621 4 680 20 q 495 -12 563 -12 m 494 872 l 450 887 l 533 1063 l 616 1032 l 494 872 z "},"Č":{"ha":808,"x_min":76,"x_max":766,"o":"m 495 -12 q 290 33 385 -12 q 135 168 194 77 q 76 396 76 259 q 103 549 76 475 q 184 681 130 623 q 320 774 239 739 q 509 808 401 808 q 623 798 560 808 q 736 768 685 788 l 746 593 l 696 587 l 659 709 q 585 739 633 730 q 496 749 537 749 q 314 701 384 749 q 213 577 244 654 q 182 415 182 500 q 224 213 182 294 q 340 90 267 132 q 500 49 412 49 q 582 58 548 49 q 652 84 616 66 l 719 214 l 766 209 l 730 43 q 621 4 680 20 q 495 -12 563 -12 m 255 1027 l 293 1055 l 511 926 l 433 926 l 651 1055 l 689 1027 l 511 878 l 433 878 l 255 1027 z "},"Ç":{"ha":808,"x_min":76,"x_max":766,"o":"m 495 -12 q 290 33 385 -12 q 135 168 194 77 q 76 396 76 259 q 103 549 76 475 q 184 681 130 623 q 320 774 239 739 q 509 808 401 808 q 623 798 560 808 q 736 768 685 788 l 746 593 l 696 587 l 659 709 q 585 739 633 730 q 496 749 537 749 q 314 701 384 749 q 213 577 244 654 q 182 415 182 500 q 224 213 182 294 q 340 90 267 132 q 500 49 412 49 q 582 58 548 49 q 652 84 616 66 l 719 214 l 766 209 l 730 43 q 621 4 680 20 q 495 -12 563 -12 m 435 -302 q 374 -294 404 -302 q 316 -270 343 -285 l 340 -220 q 390 -243 363 -233 q 446 -252 416 -252 q 493 -239 473 -252 q 513 -198 513 -225 q 485 -155 513 -171 q 407 -145 457 -138 l 387 -119 l 465 18 l 529 18 l 434 -118 l 445 -75 q 551 -102 510 -75 q 593 -180 593 -130 q 548 -267 593 -232 q 435 -302 503 -302 z "},"Ḉ":{"ha":808,"x_min":76,"x_max":766,"o":"m 495 -12 q 290 33 385 -12 q 135 168 194 77 q 76 396 76 259 q 103 549 76 475 q 184 681 130 623 q 320 774 239 739 q 509 808 401 808 q 623 798 560 808 q 736 768 685 788 l 746 593 l 696 587 l 659 709 q 585 739 633 730 q 496 749 537 749 q 314 701 384 749 q 213 577 244 654 q 182 415 182 500 q 224 213 182 294 q 340 90 267 132 q 500 49 412 49 q 582 58 548 49 q 652 84 616 66 l 719 214 l 766 209 l 730 43 q 621 4 680 20 q 495 -12 563 -12 m 435 -302 q 374 -294 404 -302 q 316 -270 343 -285 l 340 -220 q 390 -243 363 -233 q 446 -252 416 -252 q 493 -239 473 -252 q 513 -198 513 -225 q 485 -155 513 -171 q 407 -145 457 -138 l 387 -119 l 465 18 l 529 18 l 434 -118 l 445 -75 q 551 -102 510 -75 q 593 -180 593 -130 q 548 -267 593 -232 q 435 -302 503 -302 m 494 872 l 450 887 l 533 1063 l 616 1032 l 494 872 z "},"Ĉ":{"ha":808,"x_min":76,"x_max":766,"o":"m 495 -12 q 290 33 385 -12 q 135 168 194 77 q 76 396 76 259 q 103 549 76 475 q 184 681 130 623 q 320 774 239 739 q 509 808 401 808 q 623 798 560 808 q 736 768 685 788 l 746 593 l 696 587 l 659 709 q 585 739 633 730 q 496 749 537 749 q 314 701 384 749 q 213 577 244 654 q 182 415 182 500 q 224 213 182 294 q 340 90 267 132 q 500 49 412 49 q 582 58 548 49 q 652 84 616 66 l 719 214 l 766 209 l 730 43 q 621 4 680 20 q 495 -12 563 -12 m 689 897 l 651 868 l 433 997 l 511 997 l 293 868 l 255 897 l 433 1044 l 511 1044 l 689 897 z "},"Ċ":{"ha":808,"x_min":76,"x_max":766,"o":"m 495 -12 q 290 33 385 -12 q 135 168 194 77 q 76 396 76 259 q 103 549 76 475 q 184 681 130 623 q 320 774 239 739 q 509 808 401 808 q 623 798 560 808 q 736 768 685 788 l 746 593 l 696 587 l 659 709 q 585 739 633 730 q 496 749 537 749 q 314 701 384 749 q 213 577 244 654 q 182 415 182 500 q 224 213 182 294 q 340 90 267 132 q 500 49 412 49 q 582 58 548 49 q 652 84 616 66 l 719 214 l 766 209 l 730 43 q 621 4 680 20 q 495 -12 563 -12 m 473 906 q 433 922 452 906 q 414 963 414 937 q 433 1004 414 987 q 473 1020 452 1020 q 513 1004 495 1020 q 530 963 530 987 q 513 922 530 937 q 473 906 495 906 z "},"D":{"ha":910,"x_min":73,"x_max":830,"o":"m 76 796 l 381 796 q 711 694 593 796 q 830 407 830 591 q 775 195 830 288 q 623 52 720 103 q 399 0 526 0 l 76 0 l 73 43 l 153 61 q 158 132 156 76 q 160 256 160 187 l 160 538 q 158 671 160 617 q 153 735 156 726 l 73 753 l 76 796 m 245 731 q 245 697 245 716 q 243 642 244 678 q 243 538 243 606 l 243 256 q 243 178 243 213 q 245 117 244 144 q 248 72 247 91 q 334 63 298 66 q 407 60 370 60 q 646 141 564 60 q 728 368 728 222 q 707 522 728 453 q 640 640 685 591 q 527 715 595 689 q 365 742 458 742 q 308 740 338 742 q 245 731 278 738 z "},"Ǆ":{"ha":1610,"x_min":73,"x_max":1572,"o":"m 76 796 l 381 796 q 711 694 593 796 q 830 407 830 591 q 775 195 830 288 q 623 52 720 103 q 399 0 526 0 l 76 0 l 73 43 l 153 61 q 158 132 156 76 q 160 256 160 187 l 160 538 q 158 671 160 617 q 153 735 156 726 l 73 753 l 76 796 m 245 731 q 245 697 245 716 q 243 642 244 678 q 243 538 243 606 l 243 256 q 243 178 243 213 q 245 117 244 144 q 248 72 247 91 q 334 63 298 66 q 407 60 370 60 q 646 141 564 60 q 728 368 728 222 q 707 522 728 453 q 640 640 685 591 q 527 715 595 689 q 365 742 458 742 q 308 740 338 742 q 245 731 278 738 m 1544 -5 q 1503 -2 1520 -3 q 1472 -1 1487 -1 q 1436 0 1457 0 l 1082 0 q 1036 -1 1057 0 q 991 -3 1016 -1 l 991 37 l 1443 776 l 1449 738 l 1108 738 q 1065 737 1084 738 q 1029 734 1046 736 l 1015 598 l 970 598 l 968 798 q 1022 796 998 796 q 1072 796 1046 796 l 1435 796 q 1486 797 1461 796 q 1537 799 1511 798 l 1537 761 l 1084 19 l 1084 61 l 1426 61 q 1450 62 1438 61 q 1470 65 1462 64 l 1529 213 l 1572 209 l 1544 -5 z "},"Ð":{"ha":910,"x_min":60,"x_max":830,"o":"m 76 796 l 381 796 q 711 694 593 796 q 830 407 830 591 q 775 195 830 288 q 623 52 720 103 q 399 0 526 0 l 76 0 l 73 43 l 153 61 q 158 132 156 76 q 160 256 160 187 l 160 538 q 158 671 160 617 q 153 735 156 726 l 73 753 l 76 796 m 245 731 q 245 697 245 716 q 243 642 244 678 q 243 538 243 606 l 243 256 q 243 178 243 213 q 245 117 244 144 q 248 72 247 91 q 334 63 298 66 q 407 60 370 60 q 646 141 564 60 q 728 368 728 222 q 707 522 728 453 q 640 640 685 591 q 527 715 595 689 q 365 742 458 742 q 308 740 338 742 q 245 731 278 738 m 60 370 l 60 427 l 469 427 l 469 370 l 60 370 z "},"Ď":{"ha":910,"x_min":73,"x_max":830,"o":"m 76 796 l 381 796 q 711 694 593 796 q 830 407 830 591 q 775 195 830 288 q 623 52 720 103 q 399 0 526 0 l 76 0 l 73 43 l 153 61 q 158 132 156 76 q 160 256 160 187 l 160 538 q 158 671 160 617 q 153 735 156 726 l 73 753 l 76 796 m 245 731 q 245 697 245 716 q 243 642 244 678 q 243 538 243 606 l 243 256 q 243 178 243 213 q 245 117 244 144 q 248 72 247 91 q 334 63 298 66 q 407 60 370 60 q 646 141 564 60 q 728 368 728 222 q 707 522 728 453 q 640 640 685 591 q 527 715 595 689 q 365 742 458 742 q 308 740 338 742 q 245 731 278 738 m 228 1027 l 266 1055 l 484 926 l 406 926 l 624 1055 l 662 1027 l 484 878 l 406 878 l 228 1027 z "},"Đ":{"ha":910,"x_min":60,"x_max":830,"o":"m 76 796 l 381 796 q 711 694 593 796 q 830 407 830 591 q 775 195 830 288 q 623 52 720 103 q 399 0 526 0 l 76 0 l 73 43 l 153 61 q 158 132 156 76 q 160 256 160 187 l 160 538 q 158 671 160 617 q 153 735 156 726 l 73 753 l 76 796 m 245 731 q 245 697 245 716 q 243 642 244 678 q 243 538 243 606 l 243 256 q 243 178 243 213 q 245 117 244 144 q 248 72 247 91 q 334 63 298 66 q 407 60 370 60 q 646 141 564 60 q 728 368 728 222 q 707 522 728 453 q 640 640 685 591 q 527 715 595 689 q 365 742 458 742 q 308 740 338 742 q 245 731 278 738 m 60 370 l 60 427 l 469 427 l 469 370 l 60 370 z "},"Ḍ":{"ha":910,"x_min":73,"x_max":830,"o":"m 76 796 l 381 796 q 711 694 593 796 q 830 407 830 591 q 775 195 830 288 q 623 52 720 103 q 399 0 526 0 l 76 0 l 73 43 l 153 61 q 158 132 156 76 q 160 256 160 187 l 160 538 q 158 671 160 617 q 153 735 156 726 l 73 753 l 76 796 m 245 731 q 245 697 245 716 q 243 642 244 678 q 243 538 243 606 l 243 256 q 243 178 243 213 q 245 117 244 144 q 248 72 247 91 q 334 63 298 66 q 407 60 370 60 q 646 141 564 60 q 728 368 728 222 q 707 522 728 453 q 640 640 685 591 q 527 715 595 689 q 365 742 458 742 q 308 740 338 742 q 245 731 278 738 m 433 -263 q 392 -248 411 -263 q 373 -208 373 -233 q 392 -166 373 -182 q 433 -151 411 -151 q 472 -166 454 -151 q 490 -208 490 -182 q 472 -248 490 -233 q 433 -263 454 -263 z "},"Ḏ":{"ha":910,"x_min":73,"x_max":830,"o":"m 76 796 l 381 796 q 711 694 593 796 q 830 407 830 591 q 775 195 830 288 q 623 52 720 103 q 399 0 526 0 l 76 0 l 73 43 l 153 61 q 158 132 156 76 q 160 256 160 187 l 160 538 q 158 671 160 617 q 153 735 156 726 l 73 753 l 76 796 m 245 731 q 245 697 245 716 q 243 642 244 678 q 243 538 243 606 l 243 256 q 243 178 243 213 q 245 117 244 144 q 248 72 247 91 q 334 63 298 66 q 407 60 370 60 q 646 141 564 60 q 728 368 728 222 q 707 522 728 453 q 640 640 685 591 q 527 715 595 689 q 365 742 458 742 q 308 740 338 742 q 245 731 278 738 m 244 -176 l 618 -176 l 618 -239 l 244 -239 l 244 -176 z "},"ǅ":{"ha":1476,"x_min":73,"x_max":1434,"o":"m 76 796 l 381 796 q 711 694 593 796 q 830 407 830 591 q 775 195 830 288 q 623 52 720 103 q 399 0 526 0 l 76 0 l 73 43 l 153 61 q 158 132 156 76 q 160 256 160 187 l 160 538 q 158 671 160 617 q 153 735 156 726 l 73 753 l 76 796 m 245 731 q 245 697 245 716 q 243 642 244 678 q 243 538 243 606 l 243 256 q 243 178 243 213 q 245 117 244 144 q 248 72 247 91 q 334 63 298 66 q 407 60 370 60 q 646 141 564 60 q 728 368 728 222 q 707 522 728 453 q 640 640 685 591 q 527 715 595 689 q 365 742 458 742 q 308 740 338 742 q 245 731 278 738 z "},"E":{"ha":739,"x_min":73,"x_max":690,"o":"m 639 -7 q 578 -1 597 -1 q 541 0 560 0 l 76 0 l 73 43 l 155 61 q 157 90 156 68 q 158 154 157 113 q 159 256 159 195 l 159 538 q 158 643 159 601 q 157 707 157 685 q 155 735 156 730 l 73 753 l 76 796 l 521 796 q 548 796 536 796 q 577 798 560 796 q 623 802 594 799 l 646 632 l 593 624 l 549 735 q 530 737 543 736 q 502 738 517 738 l 323 738 q 279 737 297 738 q 243 734 262 736 q 242 704 243 730 q 241 646 241 678 q 240 587 240 613 l 240 182 q 241 138 240 163 q 242 92 241 113 q 243 65 243 72 q 277 62 259 64 q 313 61 294 61 l 473 61 q 520 62 500 61 q 552 64 540 62 q 570 66 564 65 l 639 193 l 690 182 l 639 -7 m 499 281 l 481 374 q 460 378 475 377 q 426 380 446 380 l 308 380 q 272 379 293 380 q 224 377 251 378 l 224 441 q 272 439 251 439 q 308 439 293 439 l 426 439 q 460 440 446 439 q 481 444 475 441 l 499 540 l 548 540 l 548 281 l 499 281 z "},"É":{"ha":739,"x_min":73,"x_max":690,"o":"m 639 -7 q 578 -1 597 -1 q 541 0 560 0 l 76 0 l 73 43 l 155 61 q 157 90 156 68 q 158 154 157 113 q 159 256 159 195 l 159 538 q 158 643 159 601 q 157 707 157 685 q 155 735 156 730 l 73 753 l 76 796 l 521 796 q 548 796 536 796 q 577 798 560 796 q 623 802 594 799 l 646 632 l 593 624 l 549 735 q 530 737 543 736 q 502 738 517 738 l 323 738 q 279 737 297 738 q 243 734 262 736 q 242 704 243 730 q 241 646 241 678 q 240 587 240 613 l 240 182 q 241 138 240 163 q 242 92 241 113 q 243 65 243 72 q 277 62 259 64 q 313 61 294 61 l 473 61 q 520 62 500 61 q 552 64 540 62 q 570 66 564 65 l 639 193 l 690 182 l 639 -7 m 499 281 l 481 374 q 460 378 475 377 q 426 380 446 380 l 308 380 q 272 379 293 380 q 224 377 251 378 l 224 441 q 272 439 251 439 q 308 439 293 439 l 426 439 q 460 440 446 439 q 481 444 475 441 l 499 540 l 548 540 l 548 281 l 499 281 m 395 872 l 351 887 l 434 1063 l 517 1032 l 395 872 z "},"Ĕ":{"ha":739,"x_min":73,"x_max":690,"o":"m 639 -7 q 578 -1 597 -1 q 541 0 560 0 l 76 0 l 73 43 l 155 61 q 157 90 156 68 q 158 154 157 113 q 159 256 159 195 l 159 538 q 158 643 159 601 q 157 707 157 685 q 155 735 156 730 l 73 753 l 76 796 l 521 796 q 548 796 536 796 q 577 798 560 796 q 623 802 594 799 l 646 632 l 593 624 l 549 735 q 530 737 543 736 q 502 738 517 738 l 323 738 q 279 737 297 738 q 243 734 262 736 q 242 704 243 730 q 241 646 241 678 q 240 587 240 613 l 240 182 q 241 138 240 163 q 242 92 241 113 q 243 65 243 72 q 277 62 259 64 q 313 61 294 61 l 473 61 q 520 62 500 61 q 552 64 540 62 q 570 66 564 65 l 639 193 l 690 182 l 639 -7 m 499 281 l 481 374 q 460 378 475 377 q 426 380 446 380 l 308 380 q 272 379 293 380 q 224 377 251 378 l 224 441 q 272 439 251 439 q 308 439 293 439 l 426 439 q 460 440 446 439 q 481 444 475 441 l 499 540 l 548 540 l 548 281 l 499 281 m 545 1055 l 585 1040 q 515 919 571 962 q 374 876 460 876 q 233 919 290 876 q 161 1040 175 962 l 206 1055 q 262 976 217 1005 q 373 947 307 947 q 490 976 445 947 q 545 1055 534 1005 z "},"Ě":{"ha":739,"x_min":73,"x_max":690,"o":"m 639 -7 q 578 -1 597 -1 q 541 0 560 0 l 76 0 l 73 43 l 155 61 q 157 90 156 68 q 158 154 157 113 q 159 256 159 195 l 159 538 q 158 643 159 601 q 157 707 157 685 q 155 735 156 730 l 73 753 l 76 796 l 521 796 q 548 796 536 796 q 577 798 560 796 q 623 802 594 799 l 646 632 l 593 624 l 549 735 q 530 737 543 736 q 502 738 517 738 l 323 738 q 279 737 297 738 q 243 734 262 736 q 242 704 243 730 q 241 646 241 678 q 240 587 240 613 l 240 182 q 241 138 240 163 q 242 92 241 113 q 243 65 243 72 q 277 62 259 64 q 313 61 294 61 l 473 61 q 520 62 500 61 q 552 64 540 62 q 570 66 564 65 l 639 193 l 690 182 l 639 -7 m 499 281 l 481 374 q 460 378 475 377 q 426 380 446 380 l 308 380 q 272 379 293 380 q 224 377 251 378 l 224 441 q 272 439 251 439 q 308 439 293 439 l 426 439 q 460 440 446 439 q 481 444 475 441 l 499 540 l 548 540 l 548 281 l 499 281 m 156 1027 l 194 1055 l 412 926 l 334 926 l 552 1055 l 590 1027 l 412 878 l 334 878 l 156 1027 z "},"Ḝ":{"ha":739,"x_min":73,"x_max":690,"o":"m 639 -7 q 578 -1 597 -1 q 541 0 560 0 l 76 0 l 73 43 l 155 61 q 157 90 156 68 q 158 154 157 113 q 159 256 159 195 l 159 538 q 158 643 159 601 q 157 707 157 685 q 155 735 156 730 l 73 753 l 76 796 l 521 796 q 548 796 536 796 q 577 798 560 796 q 623 802 594 799 l 646 632 l 593 624 l 549 735 q 530 737 543 736 q 502 738 517 738 l 323 738 q 279 737 297 738 q 243 734 262 736 q 242 704 243 730 q 241 646 241 678 q 240 587 240 613 l 240 182 q 241 138 240 163 q 242 92 241 113 q 243 65 243 72 q 277 62 259 64 q 313 61 294 61 l 473 61 q 520 62 500 61 q 552 64 540 62 q 570 66 564 65 l 639 193 l 690 182 l 639 -7 m 499 281 l 481 374 q 460 378 475 377 q 426 380 446 380 l 308 380 q 272 379 293 380 q 224 377 251 378 l 224 441 q 272 439 251 439 q 308 439 293 439 l 426 439 q 460 440 446 439 q 481 444 475 441 l 499 540 l 548 540 l 548 281 l 499 281 m 336 -302 q 275 -294 305 -302 q 217 -270 244 -285 l 241 -220 q 291 -243 264 -233 q 347 -252 317 -252 q 394 -239 374 -252 q 414 -198 414 -225 q 386 -155 414 -171 q 308 -145 358 -138 l 288 -119 l 366 18 l 430 18 l 335 -118 l 346 -75 q 452 -102 411 -75 q 494 -180 494 -130 q 449 -267 494 -232 q 336 -302 404 -302 m 545 1055 l 585 1040 q 515 919 571 962 q 374 876 460 876 q 233 919 290 876 q 161 1040 175 962 l 206 1055 q 262 976 217 1005 q 373 947 307 947 q 490 976 445 947 q 545 1055 534 1005 z "},"Ê":{"ha":739,"x_min":73,"x_max":690,"o":"m 639 -7 q 578 -1 597 -1 q 541 0 560 0 l 76 0 l 73 43 l 155 61 q 157 90 156 68 q 158 154 157 113 q 159 256 159 195 l 159 538 q 158 643 159 601 q 157 707 157 685 q 155 735 156 730 l 73 753 l 76 796 l 521 796 q 548 796 536 796 q 577 798 560 796 q 623 802 594 799 l 646 632 l 593 624 l 549 735 q 530 737 543 736 q 502 738 517 738 l 323 738 q 279 737 297 738 q 243 734 262 736 q 242 704 243 730 q 241 646 241 678 q 240 587 240 613 l 240 182 q 241 138 240 163 q 242 92 241 113 q 243 65 243 72 q 277 62 259 64 q 313 61 294 61 l 473 61 q 520 62 500 61 q 552 64 540 62 q 570 66 564 65 l 639 193 l 690 182 l 639 -7 m 499 281 l 481 374 q 460 378 475 377 q 426 380 446 380 l 308 380 q 272 379 293 380 q 224 377 251 378 l 224 441 q 272 439 251 439 q 308 439 293 439 l 426 439 q 460 440 446 439 q 481 444 475 441 l 499 540 l 548 540 l 548 281 l 499 281 m 590 897 l 552 868 l 334 997 l 412 997 l 194 868 l 156 897 l 334 1044 l 412 1044 l 590 897 z "},"Ế":{"ha":739,"x_min":73,"x_max":690,"o":"m 639 -7 q 578 -1 597 -1 q 541 0 560 0 l 76 0 l 73 43 l 155 61 q 157 90 156 68 q 158 154 157 113 q 159 256 159 195 l 159 538 q 158 643 159 601 q 157 707 157 685 q 155 735 156 730 l 73 753 l 76 796 l 521 796 q 548 796 536 796 q 577 798 560 796 q 623 802 594 799 l 646 632 l 593 624 l 549 735 q 530 737 543 736 q 502 738 517 738 l 323 738 q 279 737 297 738 q 243 734 262 736 q 242 704 243 730 q 241 646 241 678 q 240 587 240 613 l 240 182 q 241 138 240 163 q 242 92 241 113 q 243 65 243 72 q 277 62 259 64 q 313 61 294 61 l 473 61 q 520 62 500 61 q 552 64 540 62 q 570 66 564 65 l 639 193 l 690 182 l 639 -7 m 499 281 l 481 374 q 460 378 475 377 q 426 380 446 380 l 308 380 q 272 379 293 380 q 224 377 251 378 l 224 441 q 272 439 251 439 q 308 439 293 439 l 426 439 q 460 440 446 439 q 481 444 475 441 l 499 540 l 548 540 l 548 281 l 499 281 m 515 1016 l 475 1031 l 571 1225 l 655 1194 l 515 1016 m 590 897 l 552 868 l 334 997 l 412 997 l 194 868 l 156 897 l 334 1044 l 412 1044 l 590 897 z "},"Ệ":{"ha":739,"x_min":73,"x_max":690,"o":"m 639 -7 q 578 -1 597 -1 q 541 0 560 0 l 76 0 l 73 43 l 155 61 q 157 90 156 68 q 158 154 157 113 q 159 256 159 195 l 159 538 q 158 643 159 601 q 157 707 157 685 q 155 735 156 730 l 73 753 l 76 796 l 521 796 q 548 796 536 796 q 577 798 560 796 q 623 802 594 799 l 646 632 l 593 624 l 549 735 q 530 737 543 736 q 502 738 517 738 l 323 738 q 279 737 297 738 q 243 734 262 736 q 242 704 243 730 q 241 646 241 678 q 240 587 240 613 l 240 182 q 241 138 240 163 q 242 92 241 113 q 243 65 243 72 q 277 62 259 64 q 313 61 294 61 l 473 61 q 520 62 500 61 q 552 64 540 62 q 570 66 564 65 l 639 193 l 690 182 l 639 -7 m 499 281 l 481 374 q 460 378 475 377 q 426 380 446 380 l 308 380 q 272 379 293 380 q 224 377 251 378 l 224 441 q 272 439 251 439 q 308 439 293 439 l 426 439 q 460 440 446 439 q 481 444 475 441 l 499 540 l 548 540 l 548 281 l 499 281 m 374 -263 q 334 -248 353 -263 q 315 -208 315 -233 q 334 -166 315 -182 q 374 -151 353 -151 q 414 -166 396 -151 q 431 -208 431 -182 q 414 -248 431 -233 q 374 -263 396 -263 m 590 897 l 552 868 l 334 997 l 412 997 l 194 868 l 156 897 l 334 1044 l 412 1044 l 590 897 z "},"Ề":{"ha":739,"x_min":73,"x_max":690,"o":"m 639 -7 q 578 -1 597 -1 q 541 0 560 0 l 76 0 l 73 43 l 155 61 q 157 90 156 68 q 158 154 157 113 q 159 256 159 195 l 159 538 q 158 643 159 601 q 157 707 157 685 q 155 735 156 730 l 73 753 l 76 796 l 521 796 q 548 796 536 796 q 577 798 560 796 q 623 802 594 799 l 646 632 l 593 624 l 549 735 q 530 737 543 736 q 502 738 517 738 l 323 738 q 279 737 297 738 q 243 734 262 736 q 242 704 243 730 q 241 646 241 678 q 240 587 240 613 l 240 182 q 241 138 240 163 q 242 92 241 113 q 243 65 243 72 q 277 62 259 64 q 313 61 294 61 l 473 61 q 520 62 500 61 q 552 64 540 62 q 570 66 564 65 l 639 193 l 690 182 l 639 -7 m 499 281 l 481 374 q 460 378 475 377 q 426 380 446 380 l 308 380 q 272 379 293 380 q 224 377 251 378 l 224 441 q 272 439 251 439 q 308 439 293 439 l 426 439 q 460 440 446 439 q 481 444 475 441 l 499 540 l 548 540 l 548 281 l 499 281 m 526 1016 l 387 1194 l 471 1225 l 568 1031 l 526 1016 m 590 897 l 552 868 l 334 997 l 412 997 l 194 868 l 156 897 l 334 1044 l 412 1044 l 590 897 z "},"Ể":{"ha":739,"x_min":73,"x_max":690,"o":"m 639 -7 q 578 -1 597 -1 q 541 0 560 0 l 76 0 l 73 43 l 155 61 q 157 90 156 68 q 158 154 157 113 q 159 256 159 195 l 159 538 q 158 643 159 601 q 157 707 157 685 q 155 735 156 730 l 73 753 l 76 796 l 521 796 q 548 796 536 796 q 577 798 560 796 q 623 802 594 799 l 646 632 l 593 624 l 549 735 q 530 737 543 736 q 502 738 517 738 l 323 738 q 279 737 297 738 q 243 734 262 736 q 242 704 243 730 q 241 646 241 678 q 240 587 240 613 l 240 182 q 241 138 240 163 q 242 92 241 113 q 243 65 243 72 q 277 62 259 64 q 313 61 294 61 l 473 61 q 520 62 500 61 q 552 64 540 62 q 570 66 564 65 l 639 193 l 690 182 l 639 -7 m 499 281 l 481 374 q 460 378 475 377 q 426 380 446 380 l 308 380 q 272 379 293 380 q 224 377 251 378 l 224 441 q 272 439 251 439 q 308 439 293 439 l 426 439 q 460 440 446 439 q 481 444 475 441 l 499 540 l 548 540 l 548 281 l 499 281 m 590 897 l 552 868 l 334 997 l 412 997 l 194 868 l 156 897 l 334 1044 l 412 1044 l 590 897 m 518 1221 q 603 1199 570 1221 q 636 1138 636 1177 q 621 1094 636 1108 q 585 1069 605 1080 q 549 1044 564 1059 q 533 998 533 1029 l 496 998 l 496 1019 q 511 1075 496 1055 q 542 1109 526 1095 q 557 1142 557 1123 q 533 1186 557 1180 q 480 1185 509 1192 l 525 1192 l 481 1153 q 456 1131 464 1137 q 433 1124 448 1124 q 410 1134 418 1124 q 401 1157 401 1143 q 433 1200 401 1180 q 518 1221 465 1221 z "},"Ễ":{"ha":739,"x_min":73,"x_max":690,"o":"m 639 -7 q 578 -1 597 -1 q 541 0 560 0 l 76 0 l 73 43 l 155 61 q 157 90 156 68 q 158 154 157 113 q 159 256 159 195 l 159 538 q 158 643 159 601 q 157 707 157 685 q 155 735 156 730 l 73 753 l 76 796 l 521 796 q 548 796 536 796 q 577 798 560 796 q 623 802 594 799 l 646 632 l 593 624 l 549 735 q 530 737 543 736 q 502 738 517 738 l 323 738 q 279 737 297 738 q 243 734 262 736 q 242 704 243 730 q 241 646 241 678 q 240 587 240 613 l 240 182 q 241 138 240 163 q 242 92 241 113 q 243 65 243 72 q 277 62 259 64 q 313 61 294 61 l 473 61 q 520 62 500 61 q 552 64 540 62 q 570 66 564 65 l 639 193 l 690 182 l 639 -7 m 499 281 l 481 374 q 460 378 475 377 q 426 380 446 380 l 308 380 q 272 379 293 380 q 224 377 251 378 l 224 441 q 272 439 251 439 q 308 439 293 439 l 426 439 q 460 440 446 439 q 481 444 475 441 l 499 540 l 548 540 l 548 281 l 499 281 m 194 868 l 156 897 l 334 1044 l 412 1044 l 590 897 l 552 868 l 334 997 l 412 997 l 194 868 m 465 1081 q 398 1097 431 1081 q 334 1130 365 1114 q 273 1146 302 1146 q 224 1129 241 1146 q 191 1081 208 1112 l 151 1101 q 203 1191 170 1157 q 278 1225 236 1225 q 345 1208 312 1225 q 410 1176 378 1192 q 471 1160 441 1160 q 517 1177 499 1160 q 551 1225 534 1195 l 591 1204 q 539 1115 572 1149 q 465 1081 506 1081 z "},"Ȅ":{"ha":739,"x_min":73,"x_max":690,"o":"m 639 -7 q 578 -1 597 -1 q 541 0 560 0 l 76 0 l 73 43 l 155 61 q 157 90 156 68 q 158 154 157 113 q 159 256 159 195 l 159 538 q 158 643 159 601 q 157 707 157 685 q 155 735 156 730 l 73 753 l 76 796 l 521 796 q 548 796 536 796 q 577 798 560 796 q 623 802 594 799 l 646 632 l 593 624 l 549 735 q 530 737 543 736 q 502 738 517 738 l 323 738 q 279 737 297 738 q 243 734 262 736 q 242 704 243 730 q 241 646 241 678 q 240 587 240 613 l 240 182 q 241 138 240 163 q 242 92 241 113 q 243 65 243 72 q 277 62 259 64 q 313 61 294 61 l 473 61 q 520 62 500 61 q 552 64 540 62 q 570 66 564 65 l 639 193 l 690 182 l 639 -7 m 499 281 l 481 374 q 460 378 475 377 q 426 380 446 380 l 308 380 q 272 379 293 380 q 224 377 251 378 l 224 441 q 272 439 251 439 q 308 439 293 439 l 426 439 q 460 440 446 439 q 481 444 475 441 l 499 540 l 548 540 l 548 281 l 499 281 m 433 868 l 320 1029 l 403 1047 l 465 882 l 433 868 m 281 868 l 168 1029 l 251 1047 l 313 882 l 281 868 z "},"Ë":{"ha":739,"x_min":73,"x_max":690,"o":"m 639 -7 q 578 -1 597 -1 q 541 0 560 0 l 76 0 l 73 43 l 155 61 q 157 90 156 68 q 158 154 157 113 q 159 256 159 195 l 159 538 q 158 643 159 601 q 157 707 157 685 q 155 735 156 730 l 73 753 l 76 796 l 521 796 q 548 796 536 796 q 577 798 560 796 q 623 802 594 799 l 646 632 l 593 624 l 549 735 q 530 737 543 736 q 502 738 517 738 l 323 738 q 279 737 297 738 q 243 734 262 736 q 242 704 243 730 q 241 646 241 678 q 240 587 240 613 l 240 182 q 241 138 240 163 q 242 92 241 113 q 243 65 243 72 q 277 62 259 64 q 313 61 294 61 l 473 61 q 520 62 500 61 q 552 64 540 62 q 570 66 564 65 l 639 193 l 690 182 l 639 -7 m 499 281 l 481 374 q 460 378 475 377 q 426 380 446 380 l 308 380 q 272 379 293 380 q 224 377 251 378 l 224 441 q 272 439 251 439 q 308 439 293 439 l 426 439 q 460 440 446 439 q 481 444 475 441 l 499 540 l 548 540 l 548 281 l 499 281 m 248 906 q 208 922 225 906 q 190 963 190 937 q 208 1004 190 989 q 248 1020 225 1020 q 288 1004 271 1020 q 304 963 304 989 q 288 922 304 937 q 248 906 271 906 m 500 906 q 460 922 477 906 q 442 963 442 937 q 460 1004 442 989 q 500 1020 477 1020 q 540 1004 524 1020 q 556 963 556 989 q 540 922 556 937 q 500 906 524 906 z "},"Ė":{"ha":739,"x_min":73,"x_max":690,"o":"m 639 -7 q 578 -1 597 -1 q 541 0 560 0 l 76 0 l 73 43 l 155 61 q 157 90 156 68 q 158 154 157 113 q 159 256 159 195 l 159 538 q 158 643 159 601 q 157 707 157 685 q 155 735 156 730 l 73 753 l 76 796 l 521 796 q 548 796 536 796 q 577 798 560 796 q 623 802 594 799 l 646 632 l 593 624 l 549 735 q 530 737 543 736 q 502 738 517 738 l 323 738 q 279 737 297 738 q 243 734 262 736 q 242 704 243 730 q 241 646 241 678 q 240 587 240 613 l 240 182 q 241 138 240 163 q 242 92 241 113 q 243 65 243 72 q 277 62 259 64 q 313 61 294 61 l 473 61 q 520 62 500 61 q 552 64 540 62 q 570 66 564 65 l 639 193 l 690 182 l 639 -7 m 499 281 l 481 374 q 460 378 475 377 q 426 380 446 380 l 308 380 q 272 379 293 380 q 224 377 251 378 l 224 441 q 272 439 251 439 q 308 439 293 439 l 426 439 q 460 440 446 439 q 481 444 475 441 l 499 540 l 548 540 l 548 281 l 499 281 m 374 906 q 334 922 353 906 q 315 963 315 937 q 334 1004 315 987 q 374 1020 353 1020 q 414 1004 396 1020 q 431 963 431 987 q 414 922 431 937 q 374 906 396 906 z "},"Ẹ":{"ha":739,"x_min":73,"x_max":690,"o":"m 639 -7 q 578 -1 597 -1 q 541 0 560 0 l 76 0 l 73 43 l 155 61 q 157 90 156 68 q 158 154 157 113 q 159 256 159 195 l 159 538 q 158 643 159 601 q 157 707 157 685 q 155 735 156 730 l 73 753 l 76 796 l 521 796 q 548 796 536 796 q 577 798 560 796 q 623 802 594 799 l 646 632 l 593 624 l 549 735 q 530 737 543 736 q 502 738 517 738 l 323 738 q 279 737 297 738 q 243 734 262 736 q 242 704 243 730 q 241 646 241 678 q 240 587 240 613 l 240 182 q 241 138 240 163 q 242 92 241 113 q 243 65 243 72 q 277 62 259 64 q 313 61 294 61 l 473 61 q 520 62 500 61 q 552 64 540 62 q 570 66 564 65 l 639 193 l 690 182 l 639 -7 m 499 281 l 481 374 q 460 378 475 377 q 426 380 446 380 l 308 380 q 272 379 293 380 q 224 377 251 378 l 224 441 q 272 439 251 439 q 308 439 293 439 l 426 439 q 460 440 446 439 q 481 444 475 441 l 499 540 l 548 540 l 548 281 l 499 281 m 374 -263 q 334 -248 353 -263 q 315 -208 315 -233 q 334 -166 315 -182 q 374 -151 353 -151 q 414 -166 396 -151 q 431 -208 431 -182 q 414 -248 431 -233 q 374 -263 396 -263 z "},"È":{"ha":739,"x_min":73,"x_max":690,"o":"m 639 -7 q 578 -1 597 -1 q 541 0 560 0 l 76 0 l 73 43 l 155 61 q 157 90 156 68 q 158 154 157 113 q 159 256 159 195 l 159 538 q 158 643 159 601 q 157 707 157 685 q 155 735 156 730 l 73 753 l 76 796 l 521 796 q 548 796 536 796 q 577 798 560 796 q 623 802 594 799 l 646 632 l 593 624 l 549 735 q 530 737 543 736 q 502 738 517 738 l 323 738 q 279 737 297 738 q 243 734 262 736 q 242 704 243 730 q 241 646 241 678 q 240 587 240 613 l 240 182 q 241 138 240 163 q 242 92 241 113 q 243 65 243 72 q 277 62 259 64 q 313 61 294 61 l 473 61 q 520 62 500 61 q 552 64 540 62 q 570 66 564 65 l 639 193 l 690 182 l 639 -7 m 499 281 l 481 374 q 460 378 475 377 q 426 380 446 380 l 308 380 q 272 379 293 380 q 224 377 251 378 l 224 441 q 272 439 251 439 q 308 439 293 439 l 426 439 q 460 440 446 439 q 481 444 475 441 l 499 540 l 548 540 l 548 281 l 499 281 m 351 872 l 229 1032 l 312 1063 l 395 887 l 351 872 z "},"Ẻ":{"ha":739,"x_min":73,"x_max":690,"o":"m 639 -7 q 578 -1 597 -1 q 541 0 560 0 l 76 0 l 73 43 l 155 61 q 157 90 156 68 q 158 154 157 113 q 159 256 159 195 l 159 538 q 158 643 159 601 q 157 707 157 685 q 155 735 156 730 l 73 753 l 76 796 l 521 796 q 548 796 536 796 q 577 798 560 796 q 623 802 594 799 l 646 632 l 593 624 l 549 735 q 530 737 543 736 q 502 738 517 738 l 323 738 q 279 737 297 738 q 243 734 262 736 q 242 704 243 730 q 241 646 241 678 q 240 587 240 613 l 240 182 q 241 138 240 163 q 242 92 241 113 q 243 65 243 72 q 277 62 259 64 q 313 61 294 61 l 473 61 q 520 62 500 61 q 552 64 540 62 q 570 66 564 65 l 639 193 l 690 182 l 639 -7 m 499 281 l 481 374 q 460 378 475 377 q 426 380 446 380 l 308 380 q 272 379 293 380 q 224 377 251 378 l 224 441 q 272 439 251 439 q 308 439 293 439 l 426 439 q 460 440 446 439 q 481 444 475 441 l 499 540 l 548 540 l 548 281 l 499 281 m 378 1123 q 463 1101 430 1123 q 495 1040 495 1080 q 479 989 495 1006 q 444 961 464 972 q 408 933 423 949 q 392 884 392 917 l 355 884 l 355 907 q 371 970 355 947 q 402 1009 387 993 q 418 1044 418 1025 q 393 1088 418 1082 q 339 1088 369 1095 l 384 1096 l 340 1055 q 315 1033 323 1039 q 292 1027 307 1027 q 269 1036 278 1027 q 260 1059 260 1046 q 293 1103 260 1084 q 378 1123 326 1123 z "},"Ȇ":{"ha":739,"x_min":73,"x_max":690,"o":"m 639 -7 q 578 -1 597 -1 q 541 0 560 0 l 76 0 l 73 43 l 155 61 q 157 90 156 68 q 158 154 157 113 q 159 256 159 195 l 159 538 q 158 643 159 601 q 157 707 157 685 q 155 735 156 730 l 73 753 l 76 796 l 521 796 q 548 796 536 796 q 577 798 560 796 q 623 802 594 799 l 646 632 l 593 624 l 549 735 q 530 737 543 736 q 502 738 517 738 l 323 738 q 279 737 297 738 q 243 734 262 736 q 242 704 243 730 q 241 646 241 678 q 240 587 240 613 l 240 182 q 241 138 240 163 q 242 92 241 113 q 243 65 243 72 q 277 62 259 64 q 313 61 294 61 l 473 61 q 520 62 500 61 q 552 64 540 62 q 570 66 564 65 l 639 193 l 690 182 l 639 -7 m 499 281 l 481 374 q 460 378 475 377 q 426 380 446 380 l 308 380 q 272 379 293 380 q 224 377 251 378 l 224 441 q 272 439 251 439 q 308 439 293 439 l 426 439 q 460 440 446 439 q 481 444 475 441 l 499 540 l 548 540 l 548 281 l 499 281 m 201 868 l 161 883 q 231 1004 175 962 q 372 1047 286 1047 q 513 1004 456 1047 q 585 883 571 962 l 540 868 q 485 947 529 918 q 373 977 441 977 q 256 947 301 977 q 201 868 212 918 z "},"Ē":{"ha":739,"x_min":73,"x_max":690,"o":"m 639 -7 q 578 -1 597 -1 q 541 0 560 0 l 76 0 l 73 43 l 155 61 q 157 90 156 68 q 158 154 157 113 q 159 256 159 195 l 159 538 q 158 643 159 601 q 157 707 157 685 q 155 735 156 730 l 73 753 l 76 796 l 521 796 q 548 796 536 796 q 577 798 560 796 q 623 802 594 799 l 646 632 l 593 624 l 549 735 q 530 737 543 736 q 502 738 517 738 l 323 738 q 279 737 297 738 q 243 734 262 736 q 242 704 243 730 q 241 646 241 678 q 240 587 240 613 l 240 182 q 241 138 240 163 q 242 92 241 113 q 243 65 243 72 q 277 62 259 64 q 313 61 294 61 l 473 61 q 520 62 500 61 q 552 64 540 62 q 570 66 564 65 l 639 193 l 690 182 l 639 -7 m 499 281 l 481 374 q 460 378 475 377 q 426 380 446 380 l 308 380 q 272 379 293 380 q 224 377 251 378 l 224 441 q 272 439 251 439 q 308 439 293 439 l 426 439 q 460 440 446 439 q 481 444 475 441 l 499 540 l 548 540 l 548 281 l 499 281 m 186 993 l 560 993 l 560 929 l 186 929 l 186 993 z "},"Ḗ":{"ha":739,"x_min":73,"x_max":690,"o":"m 639 -7 q 578 -1 597 -1 q 541 0 560 0 l 76 0 l 73 43 l 155 61 q 157 90 156 68 q 158 154 157 113 q 159 256 159 195 l 159 538 q 158 643 159 601 q 157 707 157 685 q 155 735 156 730 l 73 753 l 76 796 l 521 796 q 548 796 536 796 q 577 798 560 796 q 623 802 594 799 l 646 632 l 593 624 l 549 735 q 530 737 543 736 q 502 738 517 738 l 323 738 q 279 737 297 738 q 243 734 262 736 q 242 704 243 730 q 241 646 241 678 q 240 587 240 613 l 240 182 q 241 138 240 163 q 242 92 241 113 q 243 65 243 72 q 277 62 259 64 q 313 61 294 61 l 473 61 q 520 62 500 61 q 552 64 540 62 q 570 66 564 65 l 639 193 l 690 182 l 639 -7 m 499 281 l 481 374 q 460 378 475 377 q 426 380 446 380 l 308 380 q 272 379 293 380 q 224 377 251 378 l 224 441 q 272 439 251 439 q 308 439 293 439 l 426 439 q 460 440 446 439 q 481 444 475 441 l 499 540 l 548 540 l 548 281 l 499 281 m 400 1040 l 358 1054 l 449 1225 l 533 1194 l 400 1040 m 164 943 l 164 1006 l 582 1006 l 582 943 l 164 943 z "},"Ḕ":{"ha":739,"x_min":73,"x_max":690,"o":"m 639 -7 q 578 -1 597 -1 q 541 0 560 0 l 76 0 l 73 43 l 155 61 q 157 90 156 68 q 158 154 157 113 q 159 256 159 195 l 159 538 q 158 643 159 601 q 157 707 157 685 q 155 735 156 730 l 73 753 l 76 796 l 521 796 q 548 796 536 796 q 577 798 560 796 q 623 802 594 799 l 646 632 l 593 624 l 549 735 q 530 737 543 736 q 502 738 517 738 l 323 738 q 279 737 297 738 q 243 734 262 736 q 242 704 243 730 q 241 646 241 678 q 240 587 240 613 l 240 182 q 241 138 240 163 q 242 92 241 113 q 243 65 243 72 q 277 62 259 64 q 313 61 294 61 l 473 61 q 520 62 500 61 q 552 64 540 62 q 570 66 564 65 l 639 193 l 690 182 l 639 -7 m 499 281 l 481 374 q 460 378 475 377 q 426 380 446 380 l 308 380 q 272 379 293 380 q 224 377 251 378 l 224 441 q 272 439 251 439 q 308 439 293 439 l 426 439 q 460 440 446 439 q 481 444 475 441 l 499 540 l 548 540 l 548 281 l 499 281 m 582 1006 l 582 943 l 164 943 l 164 1006 l 582 1006 m 346 1040 l 213 1194 l 297 1225 l 388 1054 l 346 1040 z "},"Ę":{"ha":739,"x_min":73,"x_max":711,"o":"m 575 -302 q 499 -288 532 -302 q 448 -246 467 -273 q 430 -186 430 -220 q 468 -86 430 -134 q 570 0 506 -38 l 76 0 l 73 43 l 155 61 q 157 90 156 68 q 158 154 157 113 q 159 256 159 195 l 159 538 q 158 643 159 601 q 157 707 157 685 q 155 735 156 730 l 73 753 l 76 796 l 521 796 q 548 796 536 796 q 577 798 560 796 q 623 802 594 799 l 646 632 l 593 624 l 549 735 q 530 737 543 736 q 502 738 517 738 l 323 738 q 279 737 297 738 q 243 734 262 736 q 242 704 243 730 q 241 646 241 678 q 240 587 240 613 l 240 182 q 241 138 240 163 q 242 92 241 113 q 243 65 243 72 q 277 62 259 64 q 313 61 294 61 l 473 61 q 520 62 500 61 q 552 64 540 62 q 570 66 564 65 l 639 193 l 690 182 l 642 0 q 509 -171 509 -77 q 531 -231 509 -209 q 590 -254 553 -254 q 685 -206 637 -254 l 711 -235 q 575 -302 654 -302 m 499 281 l 481 374 q 460 378 475 377 q 426 380 446 380 l 308 380 q 272 379 293 380 q 224 377 251 378 l 224 441 q 272 439 251 439 q 308 439 293 439 l 426 439 q 460 440 446 439 q 481 444 475 441 l 499 540 l 548 540 l 548 281 l 499 281 z "},"Ẽ":{"ha":739,"x_min":73,"x_max":690,"o":"m 639 -7 q 578 -1 597 -1 q 541 0 560 0 l 76 0 l 73 43 l 155 61 q 157 90 156 68 q 158 154 157 113 q 159 256 159 195 l 159 538 q 158 643 159 601 q 157 707 157 685 q 155 735 156 730 l 73 753 l 76 796 l 521 796 q 548 796 536 796 q 577 798 560 796 q 623 802 594 799 l 646 632 l 593 624 l 549 735 q 530 737 543 736 q 502 738 517 738 l 323 738 q 279 737 297 738 q 243 734 262 736 q 242 704 243 730 q 241 646 241 678 q 240 587 240 613 l 240 182 q 241 138 240 163 q 242 92 241 113 q 243 65 243 72 q 277 62 259 64 q 313 61 294 61 l 473 61 q 520 62 500 61 q 552 64 540 62 q 570 66 564 65 l 639 193 l 690 182 l 639 -7 m 499 281 l 481 374 q 460 378 475 377 q 426 380 446 380 l 308 380 q 272 379 293 380 q 224 377 251 378 l 224 441 q 272 439 251 439 q 308 439 293 439 l 426 439 q 460 440 446 439 q 481 444 475 441 l 499 540 l 548 540 l 548 281 l 499 281 m 598 1027 l 635 1008 q 572 918 612 952 q 480 883 532 883 q 399 903 439 883 q 321 944 359 924 q 248 964 283 964 q 189 945 210 964 q 148 895 168 926 l 111 914 q 175 1004 134 970 q 266 1038 216 1038 q 347 1018 308 1038 q 425 978 387 998 q 500 958 464 958 q 557 977 536 958 q 598 1027 578 997 z "},"F":{"ha":667,"x_min":75,"x_max":643,"o":"m 83 0 l 80 43 l 155 61 q 157 85 156 66 q 158 143 157 104 q 159 245 159 182 l 160 574 q 159 662 160 628 q 158 713 159 696 q 156 735 157 731 l 75 753 l 77 796 l 519 796 q 546 796 534 796 q 574 798 557 796 q 620 802 591 799 l 643 632 l 590 624 l 547 735 q 528 737 541 736 q 500 738 515 738 l 327 738 q 282 737 308 738 q 241 735 256 736 q 241 712 241 730 q 240 669 240 694 q 240 616 240 644 q 240 564 240 589 l 241 275 q 242 149 241 193 q 243 85 243 104 q 245 61 244 66 l 355 46 l 353 0 l 83 0 m 498 271 l 479 370 q 457 374 473 373 q 418 376 441 376 l 288 376 q 263 376 278 376 q 221 374 248 376 l 221 438 q 256 436 239 437 q 288 435 273 435 l 418 435 q 458 437 445 435 q 479 441 472 438 l 498 536 l 545 536 l 545 271 l 498 271 z "},"G":{"ha":873,"x_min":75,"x_max":823,"o":"m 511 -12 q 292 33 392 -12 q 134 168 193 77 q 75 396 75 259 q 102 548 75 475 q 185 680 130 621 q 322 774 240 739 q 513 808 404 808 q 629 798 566 808 q 742 768 693 788 l 753 598 l 704 591 l 666 709 q 593 739 642 730 q 502 749 545 749 q 315 701 385 749 q 212 577 244 654 q 180 415 180 500 q 224 212 180 294 q 345 89 269 130 q 517 47 420 47 q 621 62 564 47 q 722 109 678 76 l 685 31 l 685 174 q 684 260 685 225 q 680 313 682 296 l 590 326 l 593 372 l 821 372 l 823 328 l 766 315 q 766 286 766 309 q 766 222 766 262 q 768 127 766 161 q 770 62 769 92 q 647 8 720 28 q 511 -12 574 -12 z "},"Ğ":{"ha":873,"x_min":75,"x_max":823,"o":"m 511 -12 q 292 33 392 -12 q 134 168 193 77 q 75 396 75 259 q 102 548 75 475 q 185 680 130 621 q 322 774 240 739 q 513 808 404 808 q 629 798 566 808 q 742 768 693 788 l 753 598 l 704 591 l 666 709 q 593 739 642 730 q 502 749 545 749 q 315 701 385 749 q 212 577 244 654 q 180 415 180 500 q 224 212 180 294 q 345 89 269 130 q 517 47 420 47 q 621 62 564 47 q 722 109 678 76 l 685 31 l 685 174 q 684 260 685 225 q 680 313 682 296 l 590 326 l 593 372 l 821 372 l 823 328 l 766 315 q 766 286 766 309 q 766 222 766 262 q 768 127 766 161 q 770 62 769 92 q 647 8 720 28 q 511 -12 574 -12 m 651 1055 l 690 1040 q 621 919 677 962 q 480 876 566 876 q 338 919 396 876 q 267 1040 281 962 l 312 1055 q 368 976 323 1005 q 479 947 412 947 q 595 976 551 947 q 651 1055 640 1005 z "},"Ǧ":{"ha":873,"x_min":75,"x_max":823,"o":"m 511 -12 q 292 33 392 -12 q 134 168 193 77 q 75 396 75 259 q 102 548 75 475 q 185 680 130 621 q 322 774 240 739 q 513 808 404 808 q 629 798 566 808 q 742 768 693 788 l 753 598 l 704 591 l 666 709 q 593 739 642 730 q 502 749 545 749 q 315 701 385 749 q 212 577 244 654 q 180 415 180 500 q 224 212 180 294 q 345 89 269 130 q 517 47 420 47 q 621 62 564 47 q 722 109 678 76 l 685 31 l 685 174 q 684 260 685 225 q 680 313 682 296 l 590 326 l 593 372 l 821 372 l 823 328 l 766 315 q 766 286 766 309 q 766 222 766 262 q 768 127 766 161 q 770 62 769 92 q 647 8 720 28 q 511 -12 574 -12 m 262 1027 l 300 1055 l 518 926 l 439 926 l 658 1055 l 696 1027 l 518 878 l 439 878 l 262 1027 z "},"Ĝ":{"ha":873,"x_min":75,"x_max":823,"o":"m 511 -12 q 292 33 392 -12 q 134 168 193 77 q 75 396 75 259 q 102 548 75 475 q 185 680 130 621 q 322 774 240 739 q 513 808 404 808 q 629 798 566 808 q 742 768 693 788 l 753 598 l 704 591 l 666 709 q 593 739 642 730 q 502 749 545 749 q 315 701 385 749 q 212 577 244 654 q 180 415 180 500 q 224 212 180 294 q 345 89 269 130 q 517 47 420 47 q 621 62 564 47 q 722 109 678 76 l 685 31 l 685 174 q 684 260 685 225 q 680 313 682 296 l 590 326 l 593 372 l 821 372 l 823 328 l 766 315 q 766 286 766 309 q 766 222 766 262 q 768 127 766 161 q 770 62 769 92 q 647 8 720 28 q 511 -12 574 -12 m 696 897 l 658 868 l 439 997 l 518 997 l 300 868 l 262 897 l 439 1044 l 518 1044 l 696 897 z "},"Ģ":{"ha":873,"x_min":75,"x_max":823,"o":"m 511 -12 q 292 33 392 -12 q 134 168 193 77 q 75 396 75 259 q 102 548 75 475 q 185 680 130 621 q 322 774 240 739 q 513 808 404 808 q 629 798 566 808 q 742 768 693 788 l 753 598 l 704 591 l 666 709 q 593 739 642 730 q 502 749 545 749 q 315 701 385 749 q 212 577 244 654 q 180 415 180 500 q 224 212 180 294 q 345 89 269 130 q 517 47 420 47 q 621 62 564 47 q 722 109 678 76 l 685 31 l 685 174 q 684 260 685 225 q 680 313 682 296 l 590 326 l 593 372 l 821 372 l 823 328 l 766 315 q 766 286 766 309 q 766 222 766 262 q 768 127 766 161 q 770 62 769 92 q 647 8 720 28 q 511 -12 574 -12 m 397 -384 l 382 -354 q 444 -319 419 -342 q 468 -274 468 -297 q 461 -248 468 -258 q 445 -232 454 -239 q 429 -215 435 -225 q 422 -187 422 -205 q 436 -155 422 -168 q 469 -142 450 -142 q 507 -153 492 -142 q 528 -182 521 -164 q 536 -221 536 -199 q 517 -290 536 -258 q 468 -345 499 -321 q 397 -384 437 -369 z "},"Ġ":{"ha":873,"x_min":75,"x_max":823,"o":"m 511 -12 q 292 33 392 -12 q 134 168 193 77 q 75 396 75 259 q 102 548 75 475 q 185 680 130 621 q 322 774 240 739 q 513 808 404 808 q 629 798 566 808 q 742 768 693 788 l 753 598 l 704 591 l 666 709 q 593 739 642 730 q 502 749 545 749 q 315 701 385 749 q 212 577 244 654 q 180 415 180 500 q 224 212 180 294 q 345 89 269 130 q 517 47 420 47 q 621 62 564 47 q 722 109 678 76 l 685 31 l 685 174 q 684 260 685 225 q 680 313 682 296 l 590 326 l 593 372 l 821 372 l 823 328 l 766 315 q 766 286 766 309 q 766 222 766 262 q 768 127 766 161 q 770 62 769 92 q 647 8 720 28 q 511 -12 574 -12 m 480 906 q 439 922 458 906 q 420 963 420 937 q 439 1004 420 987 q 480 1020 458 1020 q 519 1004 502 1020 q 537 963 537 987 q 519 922 537 937 q 480 906 502 906 z "},"Ḡ":{"ha":873,"x_min":75,"x_max":823,"o":"m 511 -12 q 292 33 392 -12 q 134 168 193 77 q 75 396 75 259 q 102 548 75 475 q 185 680 130 621 q 322 774 240 739 q 513 808 404 808 q 629 798 566 808 q 742 768 693 788 l 753 598 l 704 591 l 666 709 q 593 739 642 730 q 502 749 545 749 q 315 701 385 749 q 212 577 244 654 q 180 415 180 500 q 224 212 180 294 q 345 89 269 130 q 517 47 420 47 q 621 62 564 47 q 722 109 678 76 l 685 31 l 685 174 q 684 260 685 225 q 680 313 682 296 l 590 326 l 593 372 l 821 372 l 823 328 l 766 315 q 766 286 766 309 q 766 222 766 262 q 768 127 766 161 q 770 62 769 92 q 647 8 720 28 q 511 -12 574 -12 m 292 993 l 666 993 l 666 929 l 292 929 l 292 993 z "},"H":{"ha":894,"x_min":72,"x_max":825,"o":"m 566 0 l 563 43 l 646 61 q 650 85 648 66 q 652 144 651 103 q 652 256 652 186 l 652 538 q 652 652 652 612 q 650 712 651 693 q 646 735 648 731 l 563 753 l 566 796 l 822 796 l 825 753 l 742 735 q 738 713 739 731 q 736 655 736 696 q 735 538 735 614 l 735 256 q 736 142 735 183 q 738 84 736 102 q 742 61 739 66 l 825 43 l 822 0 l 566 0 m 75 0 l 72 43 l 155 61 q 157 90 156 68 q 158 153 157 113 q 159 256 159 194 l 159 538 q 158 644 159 602 q 157 707 157 685 q 155 735 156 730 l 72 753 l 75 796 l 328 796 l 331 753 l 248 735 q 245 712 247 731 q 242 652 243 693 q 241 538 241 612 l 241 256 q 242 144 241 186 q 245 85 243 103 q 248 61 247 66 l 331 43 l 328 0 l 75 0 m 231 376 l 231 445 q 311 442 254 444 q 449 441 369 441 q 584 442 528 441 q 662 445 640 444 l 662 376 q 579 380 629 380 q 449 381 529 381 q 314 380 366 381 q 231 376 262 380 z "},"Ħ":{"ha":894,"x_min":57,"x_max":837,"o":"m 566 0 l 563 43 l 646 61 q 650 85 648 66 q 652 144 651 103 q 652 256 652 186 l 652 538 q 652 652 652 612 q 650 712 651 693 q 646 735 648 731 l 563 753 l 566 796 l 822 796 l 825 753 l 742 735 q 738 713 739 731 q 736 655 736 696 q 735 538 735 614 l 735 256 q 736 142 735 183 q 738 84 736 102 q 742 61 739 66 l 825 43 l 822 0 l 566 0 m 75 0 l 72 43 l 155 61 q 157 90 156 68 q 158 153 157 113 q 159 256 159 194 l 159 538 q 158 644 159 602 q 157 707 157 685 q 155 735 156 730 l 72 753 l 75 796 l 328 796 l 331 753 l 248 735 q 245 712 247 731 q 242 652 243 693 q 241 538 241 612 l 241 256 q 242 144 241 186 q 245 85 243 103 q 248 61 247 66 l 331 43 l 328 0 l 75 0 m 231 376 l 231 445 q 311 442 254 444 q 449 441 369 441 q 584 442 528 441 q 662 445 640 444 l 662 376 q 579 380 629 380 q 449 381 529 381 q 314 380 366 381 q 231 376 262 380 m 57 560 l 57 617 l 837 617 l 837 560 l 57 560 z "},"Ḫ":{"ha":894,"x_min":72,"x_max":825,"o":"m 566 0 l 563 43 l 646 61 q 650 85 648 66 q 652 144 651 103 q 652 256 652 186 l 652 538 q 652 652 652 612 q 650 712 651 693 q 646 735 648 731 l 563 753 l 566 796 l 822 796 l 825 753 l 742 735 q 738 713 739 731 q 736 655 736 696 q 735 538 735 614 l 735 256 q 736 142 735 183 q 738 84 736 102 q 742 61 739 66 l 825 43 l 822 0 l 566 0 m 75 0 l 72 43 l 155 61 q 157 90 156 68 q 158 153 157 113 q 159 256 159 194 l 159 538 q 158 644 159 602 q 157 707 157 685 q 155 735 156 730 l 72 753 l 75 796 l 328 796 l 331 753 l 248 735 q 245 712 247 731 q 242 652 243 693 q 241 538 241 612 l 241 256 q 242 144 241 186 q 245 85 243 103 q 248 61 247 66 l 331 43 l 328 0 l 75 0 m 231 376 l 231 445 q 311 442 254 444 q 449 441 369 441 q 584 442 528 441 q 662 445 640 444 l 662 376 q 579 380 629 380 q 449 381 529 381 q 314 380 366 381 q 231 376 262 380 m 579 -102 l 618 -117 q 570 -258 613 -209 q 449 -308 526 -308 q 328 -258 372 -308 q 277 -117 283 -209 l 321 -102 q 364 -200 331 -165 q 450 -235 397 -235 q 538 -200 505 -235 q 579 -102 571 -165 z "},"Ĥ":{"ha":894,"x_min":72,"x_max":825,"o":"m 566 0 l 563 43 l 646 61 q 650 85 648 66 q 652 144 651 103 q 652 256 652 186 l 652 538 q 652 652 652 612 q 650 712 651 693 q 646 735 648 731 l 563 753 l 566 796 l 822 796 l 825 753 l 742 735 q 738 713 739 731 q 736 655 736 696 q 735 538 735 614 l 735 256 q 736 142 735 183 q 738 84 736 102 q 742 61 739 66 l 825 43 l 822 0 l 566 0 m 75 0 l 72 43 l 155 61 q 157 90 156 68 q 158 153 157 113 q 159 256 159 194 l 159 538 q 158 644 159 602 q 157 707 157 685 q 155 735 156 730 l 72 753 l 75 796 l 328 796 l 331 753 l 248 735 q 245 712 247 731 q 242 652 243 693 q 241 538 241 612 l 241 256 q 242 144 241 186 q 245 85 243 103 q 248 61 247 66 l 331 43 l 328 0 l 75 0 m 231 376 l 231 445 q 311 442 254 444 q 449 441 369 441 q 584 442 528 441 q 662 445 640 444 l 662 376 q 579 380 629 380 q 449 381 529 381 q 314 380 366 381 q 231 376 262 380 m 665 897 l 627 868 l 408 997 l 487 997 l 269 868 l 231 897 l 408 1044 l 487 1044 l 665 897 z "},"Ḥ":{"ha":894,"x_min":72,"x_max":825,"o":"m 566 0 l 563 43 l 646 61 q 650 85 648 66 q 652 144 651 103 q 652 256 652 186 l 652 538 q 652 652 652 612 q 650 712 651 693 q 646 735 648 731 l 563 753 l 566 796 l 822 796 l 825 753 l 742 735 q 738 713 739 731 q 736 655 736 696 q 735 538 735 614 l 735 256 q 736 142 735 183 q 738 84 736 102 q 742 61 739 66 l 825 43 l 822 0 l 566 0 m 75 0 l 72 43 l 155 61 q 157 90 156 68 q 158 153 157 113 q 159 256 159 194 l 159 538 q 158 644 159 602 q 157 707 157 685 q 155 735 156 730 l 72 753 l 75 796 l 328 796 l 331 753 l 248 735 q 245 712 247 731 q 242 652 243 693 q 241 538 241 612 l 241 256 q 242 144 241 186 q 245 85 243 103 q 248 61 247 66 l 331 43 l 328 0 l 75 0 m 231 376 l 231 445 q 311 442 254 444 q 449 441 369 441 q 584 442 528 441 q 662 445 640 444 l 662 376 q 579 380 629 380 q 449 381 529 381 q 314 380 366 381 q 231 376 262 380 m 449 -263 q 408 -248 427 -263 q 389 -208 389 -233 q 408 -166 389 -182 q 449 -151 427 -151 q 488 -166 471 -151 q 506 -208 506 -182 q 488 -248 506 -233 q 449 -263 471 -263 z "},"I":{"ha":400,"x_min":73,"x_max":330,"o":"m 76 0 l 73 43 l 155 61 q 157 90 156 68 q 158 153 157 113 q 159 256 159 194 l 159 538 q 158 644 159 602 q 157 707 157 685 q 155 735 156 730 l 73 753 l 76 796 l 327 796 l 330 753 l 248 735 q 245 712 247 731 q 242 652 243 693 q 241 538 241 612 l 241 256 q 242 144 241 186 q 245 85 243 103 q 248 61 247 66 l 330 43 l 327 0 l 76 0 z "},"Ĳ":{"ha":800,"x_min":73,"x_max":730,"o":"m 76 0 l 73 43 l 155 61 q 157 90 156 68 q 158 153 157 113 q 159 256 159 194 l 159 538 q 158 644 159 602 q 157 707 157 685 q 155 735 156 730 l 73 753 l 76 796 l 327 796 l 330 753 l 248 735 q 245 712 247 731 q 242 652 243 693 q 241 538 241 612 l 241 256 q 242 144 241 186 q 245 85 243 103 q 248 61 247 66 l 330 43 l 327 0 l 76 0 m 648 735 q 645 711 647 731 q 642 649 643 690 q 642 537 642 608 l 643 30 q 618 -140 643 -72 q 549 -241 594 -208 q 442 -275 505 -275 q 347 -248 388 -275 q 305 -187 305 -221 q 317 -158 305 -170 q 350 -146 328 -146 q 380 -155 365 -146 q 410 -178 395 -163 l 468 -239 l 434 -228 q 503 -216 475 -235 q 544 -153 530 -197 q 557 -41 557 -109 l 559 536 q 558 640 559 600 q 557 704 557 681 q 555 734 556 727 l 464 753 l 467 796 l 727 796 l 730 753 l 648 735 z "},"Í":{"ha":400,"x_min":73,"x_max":345,"o":"m 76 0 l 73 43 l 155 61 q 157 90 156 68 q 158 153 157 113 q 159 256 159 194 l 159 538 q 158 644 159 602 q 157 707 157 685 q 155 735 156 730 l 73 753 l 76 796 l 327 796 l 330 753 l 248 735 q 245 712 247 731 q 242 652 243 693 q 241 538 241 612 l 241 256 q 242 144 241 186 q 245 85 243 103 q 248 61 247 66 l 330 43 l 327 0 l 76 0 m 222 872 l 179 887 l 262 1063 l 345 1032 l 222 872 z "},"Ĭ":{"ha":400,"x_min":-11,"x_max":412,"o":"m 76 0 l 73 43 l 155 61 q 157 90 156 68 q 158 153 157 113 q 159 256 159 194 l 159 538 q 158 644 159 602 q 157 707 157 685 q 155 735 156 730 l 73 753 l 76 796 l 327 796 l 330 753 l 248 735 q 245 712 247 731 q 242 652 243 693 q 241 538 241 612 l 241 256 q 242 144 241 186 q 245 85 243 103 q 248 61 247 66 l 330 43 l 327 0 l 76 0 m 373 1055 l 412 1040 q 343 919 399 962 q 202 876 288 876 q 60 919 118 876 q -11 1040 3 962 l 34 1055 q 90 976 45 1005 q 201 947 134 947 q 317 976 273 947 q 373 1055 362 1005 z "},"Ǐ":{"ha":400,"x_min":-16,"x_max":418,"o":"m 76 0 l 73 43 l 155 61 q 157 90 156 68 q 158 153 157 113 q 159 256 159 194 l 159 538 q 158 644 159 602 q 157 707 157 685 q 155 735 156 730 l 73 753 l 76 796 l 327 796 l 330 753 l 248 735 q 245 712 247 731 q 242 652 243 693 q 241 538 241 612 l 241 256 q 242 144 241 186 q 245 85 243 103 q 248 61 247 66 l 330 43 l 327 0 l 76 0 m -16 1027 l 22 1055 l 240 926 l 161 926 l 380 1055 l 418 1027 l 240 878 l 161 878 l -16 1027 z "},"Î":{"ha":400,"x_min":-16,"x_max":418,"o":"m 76 0 l 73 43 l 155 61 q 157 90 156 68 q 158 153 157 113 q 159 256 159 194 l 159 538 q 158 644 159 602 q 157 707 157 685 q 155 735 156 730 l 73 753 l 76 796 l 327 796 l 330 753 l 248 735 q 245 712 247 731 q 242 652 243 693 q 241 538 241 612 l 241 256 q 242 144 241 186 q 245 85 243 103 q 248 61 247 66 l 330 43 l 327 0 l 76 0 m 418 897 l 380 868 l 161 997 l 240 997 l 22 868 l -16 897 l 161 1044 l 240 1044 l 418 897 z "},"Ȉ":{"ha":400,"x_min":-4,"x_max":330,"o":"m 76 0 l 73 43 l 155 61 q 157 90 156 68 q 158 153 157 113 q 159 256 159 194 l 159 538 q 158 644 159 602 q 157 707 157 685 q 155 735 156 730 l 73 753 l 76 796 l 327 796 l 330 753 l 248 735 q 245 712 247 731 q 242 652 243 693 q 241 538 241 612 l 241 256 q 242 144 241 186 q 245 85 243 103 q 248 61 247 66 l 330 43 l 327 0 l 76 0 m 260 868 l 148 1029 l 231 1047 l 293 882 l 260 868 m 109 868 l -4 1029 l 79 1047 l 141 882 l 109 868 z "},"Ï":{"ha":400,"x_min":18,"x_max":384,"o":"m 76 0 l 73 43 l 155 61 q 157 90 156 68 q 158 153 157 113 q 159 256 159 194 l 159 538 q 158 644 159 602 q 157 707 157 685 q 155 735 156 730 l 73 753 l 76 796 l 327 796 l 330 753 l 248 735 q 245 712 247 731 q 242 652 243 693 q 241 538 241 612 l 241 256 q 242 144 241 186 q 245 85 243 103 q 248 61 247 66 l 330 43 l 327 0 l 76 0 m 76 906 q 35 922 53 906 q 18 963 18 937 q 35 1004 18 989 q 76 1020 53 1020 q 115 1004 99 1020 q 132 963 132 989 q 115 922 132 937 q 76 906 99 906 m 328 906 q 288 922 305 906 q 270 963 270 937 q 288 1004 270 989 q 328 1020 305 1020 q 368 1004 351 1020 q 384 963 384 989 q 368 922 384 937 q 328 906 351 906 z "},"Ḯ":{"ha":400,"x_min":18,"x_max":384,"o":"m 76 0 l 73 43 l 155 61 q 157 90 156 68 q 158 153 157 113 q 159 256 159 194 l 159 538 q 158 644 159 602 q 157 707 157 685 q 155 735 156 730 l 73 753 l 76 796 l 327 796 l 330 753 l 248 735 q 245 712 247 731 q 242 652 243 693 q 241 538 241 612 l 241 256 q 242 144 241 186 q 245 85 243 103 q 248 61 247 66 l 330 43 l 327 0 l 76 0 m 221 1020 l 180 1035 l 275 1225 l 359 1194 l 221 1020 m 76 906 q 35 922 53 906 q 18 963 18 937 q 35 1004 18 989 q 76 1020 53 1020 q 115 1004 99 1020 q 132 963 132 989 q 115 922 132 937 q 76 906 99 906 m 328 906 q 288 922 305 906 q 270 963 270 937 q 288 1004 270 989 q 328 1020 305 1020 q 368 1004 351 1020 q 384 963 384 989 q 368 922 384 937 q 328 906 351 906 z "},"İ":{"ha":400,"x_min":73,"x_max":330,"o":"m 76 0 l 73 43 l 155 61 q 157 90 156 68 q 158 153 157 113 q 159 256 159 194 l 159 538 q 158 644 159 602 q 157 707 157 685 q 155 735 156 730 l 73 753 l 76 796 l 327 796 l 330 753 l 248 735 q 245 712 247 731 q 242 652 243 693 q 241 538 241 612 l 241 256 q 242 144 241 186 q 245 85 243 103 q 248 61 247 66 l 330 43 l 327 0 l 76 0 m 202 906 q 161 922 180 906 q 142 963 142 937 q 161 1004 142 987 q 202 1020 180 1020 q 241 1004 224 1020 q 259 963 259 987 q 241 922 259 937 q 202 906 224 906 z "},"Ị":{"ha":400,"x_min":73,"x_max":330,"o":"m 76 0 l 73 43 l 155 61 q 157 90 156 68 q 158 153 157 113 q 159 256 159 194 l 159 538 q 158 644 159 602 q 157 707 157 685 q 155 735 156 730 l 73 753 l 76 796 l 327 796 l 330 753 l 248 735 q 245 712 247 731 q 242 652 243 693 q 241 538 241 612 l 241 256 q 242 144 241 186 q 245 85 243 103 q 248 61 247 66 l 330 43 l 327 0 l 76 0 m 202 -263 q 161 -248 180 -263 q 142 -208 142 -233 q 161 -166 142 -182 q 202 -151 180 -151 q 241 -166 224 -151 q 259 -208 259 -182 q 241 -248 259 -233 q 202 -263 224 -263 z "},"Ì":{"ha":400,"x_min":57,"x_max":330,"o":"m 76 0 l 73 43 l 155 61 q 157 90 156 68 q 158 153 157 113 q 159 256 159 194 l 159 538 q 158 644 159 602 q 157 707 157 685 q 155 735 156 730 l 73 753 l 76 796 l 327 796 l 330 753 l 248 735 q 245 712 247 731 q 242 652 243 693 q 241 538 241 612 l 241 256 q 242 144 241 186 q 245 85 243 103 q 248 61 247 66 l 330 43 l 327 0 l 76 0 m 179 872 l 57 1032 l 140 1063 l 222 887 l 179 872 z "},"Ỉ":{"ha":400,"x_min":73,"x_max":330,"o":"m 76 0 l 73 43 l 155 61 q 157 90 156 68 q 158 153 157 113 q 159 256 159 194 l 159 538 q 158 644 159 602 q 157 707 157 685 q 155 735 156 730 l 73 753 l 76 796 l 327 796 l 330 753 l 248 735 q 245 712 247 731 q 242 652 243 693 q 241 538 241 612 l 241 256 q 242 144 241 186 q 245 85 243 103 q 248 61 247 66 l 330 43 l 327 0 l 76 0 m 206 1123 q 290 1101 258 1123 q 323 1040 323 1080 q 307 989 323 1006 q 271 961 292 972 q 235 933 251 949 q 220 884 220 917 l 183 884 l 183 907 q 199 970 183 947 q 230 1009 214 993 q 245 1044 245 1025 q 221 1088 245 1082 q 167 1088 197 1095 l 212 1096 l 168 1055 q 142 1033 151 1039 q 119 1027 134 1027 q 97 1036 106 1027 q 88 1059 88 1046 q 121 1103 88 1084 q 206 1123 153 1123 z "},"Ȋ":{"ha":400,"x_min":-11,"x_max":412,"o":"m 76 0 l 73 43 l 155 61 q 157 90 156 68 q 158 153 157 113 q 159 256 159 194 l 159 538 q 158 644 159 602 q 157 707 157 685 q 155 735 156 730 l 73 753 l 76 796 l 327 796 l 330 753 l 248 735 q 245 712 247 731 q 242 652 243 693 q 241 538 241 612 l 241 256 q 242 144 241 186 q 245 85 243 103 q 248 61 247 66 l 330 43 l 327 0 l 76 0 m 28 868 l -11 883 q 58 1004 3 962 q 199 1047 114 1047 q 341 1004 283 1047 q 412 883 399 962 l 368 868 q 313 947 357 918 q 201 977 269 977 q 84 947 129 977 q 28 868 39 918 z "},"Ī":{"ha":400,"x_min":14,"x_max":388,"o":"m 76 0 l 73 43 l 155 61 q 157 90 156 68 q 158 153 157 113 q 159 256 159 194 l 159 538 q 158 644 159 602 q 157 707 157 685 q 155 735 156 730 l 73 753 l 76 796 l 327 796 l 330 753 l 248 735 q 245 712 247 731 q 242 652 243 693 q 241 538 241 612 l 241 256 q 242 144 241 186 q 245 85 243 103 q 248 61 247 66 l 330 43 l 327 0 l 76 0 m 14 993 l 388 993 l 388 929 l 14 929 l 14 993 z "},"Į":{"ha":400,"x_min":58,"x_max":331,"o":"m 241 256 q 242 146 241 187 q 245 85 243 104 q 251 61 247 66 l 330 43 l 327 0 q 231 -21 274 0 q 162 -78 187 -42 q 137 -160 137 -114 q 157 -230 137 -206 q 216 -254 176 -254 q 301 -208 259 -254 l 331 -235 q 273 -285 307 -267 q 205 -302 240 -302 q 100 -264 142 -302 q 58 -171 58 -227 q 109 -52 58 -103 q 240 14 159 -1 l 252 0 l 76 0 l 73 43 l 155 61 q 157 90 156 68 q 158 154 157 113 q 159 256 159 195 l 159 538 q 158 642 159 601 q 157 707 157 684 q 155 735 156 730 l 73 753 l 76 796 l 327 796 l 330 753 l 248 735 q 245 711 247 731 q 242 651 243 692 q 241 538 241 610 l 241 256 z "},"Ĩ":{"ha":400,"x_min":-61,"x_max":463,"o":"m 76 0 l 73 43 l 155 61 q 157 90 156 68 q 158 153 157 113 q 159 256 159 194 l 159 538 q 158 644 159 602 q 157 707 157 685 q 155 735 156 730 l 73 753 l 76 796 l 327 796 l 330 753 l 248 735 q 245 712 247 731 q 242 652 243 693 q 241 538 241 612 l 241 256 q 242 144 241 186 q 245 85 243 103 q 248 61 247 66 l 330 43 l 327 0 l 76 0 m 426 1027 l 463 1008 q 399 918 439 952 q 308 883 359 883 q 227 903 267 883 q 149 944 187 924 q 76 964 111 964 q 17 945 38 964 q -24 895 -4 926 l -61 914 q 3 1004 -38 970 q 94 1038 43 1038 q 175 1018 136 1038 q 253 978 214 998 q 328 958 292 958 q 385 977 363 958 q 426 1027 406 997 z "},"J":{"ha":400,"x_min":-95,"x_max":330,"o":"m 248 735 q 245 711 247 731 q 242 649 243 690 q 241 537 241 608 l 243 30 q 218 -140 243 -72 q 149 -241 194 -208 q 42 -275 104 -275 q -54 -248 -12 -275 q -95 -187 -95 -221 q -83 -158 -95 -170 q -50 -146 -72 -146 q -20 -155 -35 -146 q 9 -178 -5 -163 l 68 -239 l 34 -228 q 102 -216 75 -235 q 144 -153 130 -197 q 157 -41 157 -109 l 159 536 q 158 640 159 600 q 157 704 157 681 q 155 734 156 727 l 64 753 l 66 796 l 327 796 l 330 753 l 248 735 z "},"Ĵ":{"ha":400,"x_min":-95,"x_max":418,"o":"m 248 735 q 245 711 247 731 q 242 649 243 690 q 241 537 241 608 l 243 30 q 218 -140 243 -72 q 149 -241 194 -208 q 42 -275 104 -275 q -54 -248 -12 -275 q -95 -187 -95 -221 q -83 -158 -95 -170 q -50 -146 -72 -146 q -20 -155 -35 -146 q 9 -178 -5 -163 l 68 -239 l 34 -228 q 102 -216 75 -235 q 144 -153 130 -197 q 157 -41 157 -109 l 159 536 q 158 640 159 600 q 157 704 157 681 q 155 734 156 727 l 64 753 l 66 796 l 327 796 l 330 753 l 248 735 m 418 897 l 380 868 l 161 997 l 240 997 l 22 868 l -16 897 l 161 1044 l 240 1044 l 418 897 z "},"K":{"ha":758,"x_min":73,"x_max":764,"o":"m 490 0 l 487 43 l 575 57 q 549 90 564 72 q 518 126 534 109 l 290 378 l 232 378 l 232 422 l 311 444 l 590 734 l 509 753 l 510 796 l 751 796 l 753 750 l 681 736 l 340 407 l 347 438 l 605 161 q 640 124 624 142 q 671 90 656 106 q 697 64 685 75 l 764 45 l 764 0 l 490 0 m 76 0 l 73 43 l 155 61 q 159 119 157 72 q 160 256 160 165 l 160 538 q 159 644 160 602 q 158 707 159 685 q 155 735 157 730 l 73 753 l 76 796 l 328 796 l 331 753 l 250 735 q 246 711 248 731 q 243 650 244 692 q 243 538 243 609 l 243 256 q 244 119 243 165 q 247 61 245 72 l 335 43 l 332 0 l 76 0 z "},"Ķ":{"ha":758,"x_min":73,"x_max":764,"o":"m 490 0 l 487 43 l 575 57 q 549 90 564 72 q 518 126 534 109 l 290 378 l 232 378 l 232 422 l 311 444 l 590 734 l 509 753 l 510 796 l 751 796 l 753 750 l 681 736 l 340 407 l 347 438 l 605 161 q 640 124 624 142 q 671 90 656 106 q 697 64 685 75 l 764 45 l 764 0 l 490 0 m 76 0 l 73 43 l 155 61 q 159 119 157 72 q 160 256 160 165 l 160 538 q 159 644 160 602 q 158 707 159 685 q 155 735 157 730 l 73 753 l 76 796 l 328 796 l 331 753 l 250 735 q 246 711 248 731 q 243 650 244 692 q 243 538 243 609 l 243 256 q 244 119 243 165 q 247 61 245 72 l 335 43 l 332 0 l 76 0 m 338 -384 l 323 -354 q 384 -319 359 -342 q 408 -274 408 -297 q 401 -248 408 -258 q 385 -232 395 -239 q 369 -215 376 -225 q 362 -187 362 -205 q 376 -155 362 -168 q 410 -142 391 -142 q 447 -153 433 -142 q 469 -182 461 -164 q 476 -221 476 -199 q 458 -290 476 -258 q 408 -345 439 -321 q 338 -384 377 -369 z "},"L":{"ha":669,"x_min":73,"x_max":665,"o":"m 614 -5 q 588 -3 604 -4 q 555 -1 572 -1 q 522 0 538 0 l 76 0 l 73 43 l 155 61 q 157 89 156 68 q 159 151 159 110 q 160 256 160 193 l 160 538 q 160 644 160 604 q 159 707 160 685 q 155 734 157 728 l 73 753 l 76 796 l 361 796 l 363 750 l 251 734 q 247 710 248 730 q 245 649 245 690 q 244 538 244 608 l 244 256 q 245 135 244 190 q 247 68 245 80 q 281 66 263 66 q 319 65 298 65 l 449 65 q 500 66 479 65 q 547 69 522 66 l 614 195 l 665 184 l 614 -5 z "},"Ǉ":{"ha":1065,"x_min":73,"x_max":994,"o":"m 614 -5 q 588 -3 604 -4 q 555 -1 572 -1 q 522 0 538 0 l 76 0 l 73 43 l 155 61 q 157 89 156 68 q 159 151 159 110 q 160 256 160 193 l 160 538 q 160 644 160 604 q 159 707 160 685 q 155 734 157 728 l 73 753 l 76 796 l 361 796 l 363 750 l 251 734 q 247 710 248 730 q 245 649 245 690 q 244 538 244 608 l 244 256 q 245 135 244 190 q 247 68 245 80 q 281 66 263 66 q 319 65 298 65 l 449 65 q 500 66 479 65 q 547 69 522 66 l 614 195 l 665 184 l 614 -5 m 913 735 q 909 711 911 731 q 907 649 907 690 q 906 537 906 608 l 907 30 q 883 -140 907 -72 q 814 -241 859 -208 q 707 -275 769 -275 q 611 -248 652 -275 q 570 -187 570 -221 q 581 -158 570 -170 q 614 -146 593 -146 q 644 -155 629 -146 q 674 -178 659 -163 l 732 -239 l 699 -228 q 767 -216 739 -235 q 808 -153 795 -197 q 822 -41 822 -109 l 823 536 q 823 640 823 600 q 821 704 822 681 q 819 734 821 727 l 728 753 l 731 796 l 991 796 l 994 753 l 913 735 z "},"Ĺ":{"ha":669,"x_min":73,"x_max":665,"o":"m 614 -5 q 588 -3 604 -4 q 555 -1 572 -1 q 522 0 538 0 l 76 0 l 73 43 l 155 61 q 157 89 156 68 q 159 151 159 110 q 160 256 160 193 l 160 538 q 160 644 160 604 q 159 707 160 685 q 155 734 157 728 l 73 753 l 76 796 l 361 796 l 363 750 l 251 734 q 247 710 248 730 q 245 649 245 690 q 244 538 244 608 l 244 256 q 245 135 244 190 q 247 68 245 80 q 281 66 263 66 q 319 65 298 65 l 449 65 q 500 66 479 65 q 547 69 522 66 l 614 195 l 665 184 l 614 -5 m 224 872 l 180 887 l 263 1063 l 346 1032 l 224 872 z "},"Ľ":{"ha":669,"x_min":73,"x_max":665,"o":"m 614 -5 q 588 -3 604 -4 q 555 -1 572 -1 q 522 0 538 0 l 76 0 l 73 43 l 155 61 q 157 89 156 68 q 159 151 159 110 q 160 256 160 193 l 160 538 q 160 644 160 604 q 159 707 160 685 q 155 734 157 728 l 73 753 l 76 796 l 361 796 l 363 750 l 251 734 q 247 710 248 730 q 245 649 245 690 q 244 538 244 608 l 244 256 q 245 135 244 190 q 247 68 245 80 q 281 66 263 66 q 319 65 298 65 l 449 65 q 500 66 479 65 q 547 69 522 66 l 614 195 l 665 184 l 614 -5 m 505 559 l 484 578 q 522 632 511 608 q 533 671 533 656 q 526 697 533 688 q 509 713 518 707 q 493 730 500 720 q 486 758 486 741 q 500 790 486 777 q 536 803 514 803 q 573 792 559 803 q 595 763 587 781 q 602 722 602 745 q 591 673 602 700 q 557 616 579 646 q 505 559 536 587 z "},"Ļ":{"ha":669,"x_min":73,"x_max":665,"o":"m 614 -5 q 588 -3 604 -4 q 555 -1 572 -1 q 522 0 538 0 l 76 0 l 73 43 l 155 61 q 157 89 156 68 q 159 151 159 110 q 160 256 160 193 l 160 538 q 160 644 160 604 q 159 707 160 685 q 155 734 157 728 l 73 753 l 76 796 l 361 796 l 363 750 l 251 734 q 247 710 248 730 q 245 649 245 690 q 244 538 244 608 l 244 256 q 245 135 244 190 q 247 68 245 80 q 281 66 263 66 q 319 65 298 65 l 449 65 q 500 66 479 65 q 547 69 522 66 l 614 195 l 665 184 l 614 -5 m 286 -384 l 271 -354 q 332 -319 308 -342 q 357 -274 357 -297 q 350 -248 357 -258 q 334 -232 343 -239 q 317 -215 324 -225 q 311 -187 311 -205 q 325 -155 311 -168 q 358 -142 339 -142 q 395 -153 381 -142 q 417 -182 410 -164 q 425 -221 425 -199 q 406 -290 425 -258 q 357 -345 388 -321 q 286 -384 326 -369 z "},"Ŀ":{"ha":669,"x_min":73,"x_max":665,"o":"m 614 -5 q 588 -3 604 -4 q 555 -1 572 -1 q 522 0 538 0 l 76 0 l 73 43 l 155 61 q 157 89 156 68 q 159 151 159 110 q 160 256 160 193 l 160 538 q 160 644 160 604 q 159 707 160 685 q 155 734 157 728 l 73 753 l 76 796 l 361 796 l 363 750 l 251 734 q 247 710 248 730 q 245 649 245 690 q 244 538 244 608 l 244 256 q 245 135 244 190 q 247 68 245 80 q 281 66 263 66 q 319 65 298 65 l 449 65 q 500 66 479 65 q 547 69 522 66 l 614 195 l 665 184 l 614 -5 m 445 378 q 404 393 423 378 q 385 434 385 408 q 404 475 385 460 q 445 491 423 491 q 484 475 467 491 q 502 434 502 460 q 484 393 502 408 q 445 378 467 378 z "},"Ḷ":{"ha":669,"x_min":73,"x_max":665,"o":"m 614 -5 q 588 -3 604 -4 q 555 -1 572 -1 q 522 0 538 0 l 76 0 l 73 43 l 155 61 q 157 89 156 68 q 159 151 159 110 q 160 256 160 193 l 160 538 q 160 644 160 604 q 159 707 160 685 q 155 734 157 728 l 73 753 l 76 796 l 361 796 l 363 750 l 251 734 q 247 710 248 730 q 245 649 245 690 q 244 538 244 608 l 244 256 q 245 135 244 190 q 247 68 245 80 q 281 66 263 66 q 319 65 298 65 l 449 65 q 500 66 479 65 q 547 69 522 66 l 614 195 l 665 184 l 614 -5 m 369 -263 q 328 -248 347 -263 q 309 -208 309 -233 q 328 -166 309 -182 q 369 -151 347 -151 q 408 -166 391 -151 q 426 -208 426 -182 q 408 -248 426 -233 q 369 -263 391 -263 z "},"ǈ":{"ha":993,"x_min":73,"x_max":910,"o":"m 614 -5 q 588 -3 604 -4 q 555 -1 572 -1 q 522 0 538 0 l 76 0 l 73 43 l 155 61 q 157 89 156 68 q 159 151 159 110 q 160 256 160 193 l 160 538 q 160 644 160 604 q 159 707 160 685 q 155 734 157 728 l 73 753 l 76 796 l 361 796 l 363 750 l 251 734 q 247 710 248 730 q 245 649 245 690 q 244 538 244 608 l 244 256 q 245 135 244 190 q 247 68 245 80 q 281 66 263 66 q 319 65 298 65 l 449 65 q 500 66 479 65 q 547 69 522 66 l 614 195 l 665 184 l 614 -5 z "},"Ḻ":{"ha":669,"x_min":73,"x_max":665,"o":"m 614 -5 q 588 -3 604 -4 q 555 -1 572 -1 q 522 0 538 0 l 76 0 l 73 43 l 155 61 q 157 89 156 68 q 159 151 159 110 q 160 256 160 193 l 160 538 q 160 644 160 604 q 159 707 160 685 q 155 734 157 728 l 73 753 l 76 796 l 361 796 l 363 750 l 251 734 q 247 710 248 730 q 245 649 245 690 q 244 538 244 608 l 244 256 q 245 135 244 190 q 247 68 245 80 q 281 66 263 66 q 319 65 298 65 l 449 65 q 500 66 479 65 q 547 69 522 66 l 614 195 l 665 184 l 614 -5 m 180 -176 l 555 -176 l 555 -239 l 180 -239 l 180 -176 z "},"Ł":{"ha":669,"x_min":43,"x_max":665,"o":"m 614 -5 q 588 -3 604 -4 q 555 -1 572 -1 q 522 0 538 0 l 76 0 l 73 43 l 155 61 q 157 89 156 68 q 159 151 159 110 q 160 256 160 193 l 160 538 q 160 644 160 604 q 159 707 160 685 q 155 734 157 728 l 73 753 l 76 796 l 361 796 l 363 750 l 251 734 q 247 710 248 730 q 245 649 245 690 q 244 538 244 608 l 244 256 q 245 135 244 190 q 247 68 245 80 q 281 66 263 66 q 319 65 298 65 l 449 65 q 500 66 479 65 q 547 69 522 66 l 614 195 l 665 184 l 614 -5 m 80 252 l 43 304 l 430 570 l 465 518 l 80 252 z "},"M":{"ha":1128,"x_min":62,"x_max":1053,"o":"m 83 796 l 292 796 l 578 122 l 562 122 l 853 796 l 1042 796 l 1044 753 l 963 736 q 962 655 962 712 q 963 547 962 598 l 966 294 q 968 176 967 221 q 970 104 968 130 q 971 60 971 77 l 1053 43 l 1050 0 l 802 0 l 799 43 l 879 60 q 880 102 880 83 q 880 159 880 122 q 879 264 880 195 l 876 757 l 898 757 l 567 -4 l 538 -4 l 214 760 l 227 760 l 227 301 q 227 130 227 183 q 229 61 228 76 l 320 43 l 317 0 l 65 0 l 62 43 l 153 61 q 155 96 155 72 q 157 164 156 121 q 159 275 159 208 l 163 548 q 163 652 164 597 q 161 735 163 707 l 80 753 l 83 796 z "},"Ṃ":{"ha":1128,"x_min":62,"x_max":1053,"o":"m 83 796 l 292 796 l 578 122 l 562 122 l 853 796 l 1042 796 l 1044 753 l 963 736 q 962 655 962 712 q 963 547 962 598 l 966 294 q 968 176 967 221 q 970 104 968 130 q 971 60 971 77 l 1053 43 l 1050 0 l 802 0 l 799 43 l 879 60 q 880 102 880 83 q 880 159 880 122 q 879 264 880 195 l 876 757 l 898 757 l 567 -4 l 538 -4 l 214 760 l 227 760 l 227 301 q 227 130 227 183 q 229 61 228 76 l 320 43 l 317 0 l 65 0 l 62 43 l 153 61 q 155 96 155 72 q 157 164 156 121 q 159 275 159 208 l 163 548 q 163 652 164 597 q 161 735 163 707 l 80 753 l 83 796 m 560 -263 q 519 -248 538 -263 q 500 -208 500 -233 q 519 -166 500 -182 q 560 -151 538 -151 q 600 -166 582 -151 q 617 -208 617 -182 q 600 -248 617 -233 q 560 -263 582 -263 z "},"N":{"ha":902,"x_min":72,"x_max":830,"o":"m 678 164 l 678 517 q 677 649 678 604 q 674 713 675 694 q 671 735 673 732 l 581 753 l 583 796 l 827 796 l 830 753 l 749 735 q 747 713 749 732 q 743 648 745 694 q 742 517 742 602 l 742 163 q 742 85 742 129 q 743 -5 742 42 l 694 -5 l 216 688 l 225 688 l 225 277 q 227 147 225 193 q 231 83 229 102 q 233 61 233 65 l 324 43 l 321 0 l 75 0 l 72 43 l 153 61 q 156 82 155 65 q 159 144 157 99 q 160 277 160 190 l 160 534 q 159 646 160 606 q 157 705 159 685 q 153 735 156 724 l 72 753 l 75 796 l 247 796 l 688 164 l 678 164 z "},"Ǌ":{"ha":1295,"x_min":72,"x_max":1225,"o":"m 678 164 l 678 517 q 677 649 678 604 q 674 713 675 694 q 671 735 673 732 l 581 753 l 583 796 l 827 796 l 830 753 l 749 735 q 747 713 749 732 q 743 648 745 694 q 742 517 742 602 l 742 163 q 742 85 742 129 q 743 -5 742 42 l 694 -5 l 216 688 l 225 688 l 225 277 q 227 147 225 193 q 231 83 229 102 q 233 61 233 65 l 324 43 l 321 0 l 75 0 l 72 43 l 153 61 q 156 82 155 65 q 159 144 157 99 q 160 277 160 190 l 160 534 q 159 646 160 606 q 157 705 159 685 q 153 735 156 724 l 72 753 l 75 796 l 247 796 l 688 164 l 678 164 m 1143 735 q 1140 711 1142 731 q 1137 649 1138 690 q 1137 537 1137 608 l 1138 30 q 1114 -140 1138 -72 q 1044 -241 1089 -208 q 937 -275 1000 -275 q 842 -248 883 -275 q 800 -187 800 -221 q 812 -158 800 -170 q 845 -146 823 -146 q 875 -155 860 -146 q 905 -178 890 -163 l 963 -239 l 929 -228 q 998 -216 970 -235 q 1039 -153 1025 -197 q 1053 -41 1053 -109 l 1054 536 q 1053 640 1054 600 q 1052 704 1053 681 q 1050 734 1051 727 l 959 753 l 962 796 l 1222 796 l 1225 753 l 1143 735 z "},"Ń":{"ha":902,"x_min":72,"x_max":830,"o":"m 678 164 l 678 517 q 677 649 678 604 q 674 713 675 694 q 671 735 673 732 l 581 753 l 583 796 l 827 796 l 830 753 l 749 735 q 747 713 749 732 q 743 648 745 694 q 742 517 742 602 l 742 163 q 742 85 742 129 q 743 -5 742 42 l 694 -5 l 216 688 l 225 688 l 225 277 q 227 147 225 193 q 231 83 229 102 q 233 61 233 65 l 324 43 l 321 0 l 75 0 l 72 43 l 153 61 q 156 82 155 65 q 159 144 157 99 q 160 277 160 190 l 160 534 q 159 646 160 606 q 157 705 159 685 q 153 735 156 724 l 72 753 l 75 796 l 247 796 l 688 164 l 678 164 m 473 872 l 430 887 l 513 1063 l 595 1032 l 473 872 z "},"Ň":{"ha":902,"x_min":72,"x_max":830,"o":"m 678 164 l 678 517 q 677 649 678 604 q 674 713 675 694 q 671 735 673 732 l 581 753 l 583 796 l 827 796 l 830 753 l 749 735 q 747 713 749 732 q 743 648 745 694 q 742 517 742 602 l 742 163 q 742 85 742 129 q 743 -5 742 42 l 694 -5 l 216 688 l 225 688 l 225 277 q 227 147 225 193 q 231 83 229 102 q 233 61 233 65 l 324 43 l 321 0 l 75 0 l 72 43 l 153 61 q 156 82 155 65 q 159 144 157 99 q 160 277 160 190 l 160 534 q 159 646 160 606 q 157 705 159 685 q 153 735 156 724 l 72 753 l 75 796 l 247 796 l 688 164 l 678 164 m 235 1027 l 273 1055 l 491 926 l 412 926 l 631 1055 l 669 1027 l 491 878 l 412 878 l 235 1027 z "},"Ņ":{"ha":902,"x_min":72,"x_max":830,"o":"m 678 164 l 678 517 q 677 649 678 604 q 674 713 675 694 q 671 735 673 732 l 581 753 l 583 796 l 827 796 l 830 753 l 749 735 q 747 713 749 732 q 743 648 745 694 q 742 517 742 602 l 742 163 q 742 85 742 129 q 743 -5 742 42 l 694 -5 l 216 688 l 225 688 l 225 277 q 227 147 225 193 q 231 83 229 102 q 233 61 233 65 l 324 43 l 321 0 l 75 0 l 72 43 l 153 61 q 156 82 155 65 q 159 144 157 99 q 160 277 160 190 l 160 534 q 159 646 160 606 q 157 705 159 685 q 153 735 156 724 l 72 753 l 75 796 l 247 796 l 688 164 l 678 164 m 370 -384 l 355 -354 q 416 -319 392 -342 q 441 -274 441 -297 q 434 -248 441 -258 q 418 -232 427 -239 q 401 -215 408 -225 q 395 -187 395 -205 q 409 -155 395 -168 q 442 -142 423 -142 q 479 -153 465 -142 q 501 -182 494 -164 q 509 -221 509 -199 q 490 -290 509 -258 q 441 -345 472 -321 q 370 -384 410 -369 z "},"Ṅ":{"ha":902,"x_min":72,"x_max":830,"o":"m 678 164 l 678 517 q 677 649 678 604 q 674 713 675 694 q 671 735 673 732 l 581 753 l 583 796 l 827 796 l 830 753 l 749 735 q 747 713 749 732 q 743 648 745 694 q 742 517 742 602 l 742 163 q 742 85 742 129 q 743 -5 742 42 l 694 -5 l 216 688 l 225 688 l 225 277 q 227 147 225 193 q 231 83 229 102 q 233 61 233 65 l 324 43 l 321 0 l 75 0 l 72 43 l 153 61 q 156 82 155 65 q 159 144 157 99 q 160 277 160 190 l 160 534 q 159 646 160 606 q 157 705 159 685 q 153 735 156 724 l 72 753 l 75 796 l 247 796 l 688 164 l 678 164 m 453 906 q 412 922 431 906 q 393 963 393 937 q 412 1004 393 987 q 453 1020 431 1020 q 492 1004 475 1020 q 510 963 510 987 q 492 922 510 937 q 453 906 475 906 z "},"Ṇ":{"ha":902,"x_min":72,"x_max":830,"o":"m 678 164 l 678 517 q 677 649 678 604 q 674 713 675 694 q 671 735 673 732 l 581 753 l 583 796 l 827 796 l 830 753 l 749 735 q 747 713 749 732 q 743 648 745 694 q 742 517 742 602 l 742 163 q 742 85 742 129 q 743 -5 742 42 l 694 -5 l 216 688 l 225 688 l 225 277 q 227 147 225 193 q 231 83 229 102 q 233 61 233 65 l 324 43 l 321 0 l 75 0 l 72 43 l 153 61 q 156 82 155 65 q 159 144 157 99 q 160 277 160 190 l 160 534 q 159 646 160 606 q 157 705 159 685 q 153 735 156 724 l 72 753 l 75 796 l 247 796 l 688 164 l 678 164 m 453 -263 q 412 -248 431 -263 q 393 -208 393 -233 q 412 -166 393 -182 q 453 -151 431 -151 q 492 -166 475 -151 q 510 -208 510 -182 q 492 -248 510 -233 q 453 -263 475 -263 z "},"Ŋ":{"ha":902,"x_min":72,"x_max":830,"o":"m 538 -275 q 467 -262 499 -275 q 417 -227 435 -248 q 399 -183 399 -205 q 412 -153 399 -164 q 448 -141 426 -141 q 479 -149 463 -141 q 511 -174 495 -156 l 572 -236 l 521 -224 q 600 -204 566 -231 q 655 -125 635 -178 q 675 -4 675 -72 l 675 104 l 694 -5 l 216 688 l 225 688 l 225 277 q 227 147 225 193 q 231 83 229 102 q 233 61 233 65 l 324 43 l 321 0 l 75 0 l 72 43 l 153 61 q 156 82 155 65 q 159 144 157 99 q 160 277 160 190 l 160 534 q 159 646 160 606 q 157 705 159 685 q 153 735 156 724 l 72 753 l 75 796 l 247 796 l 688 164 l 678 164 l 678 517 q 677 649 678 604 q 674 713 675 694 q 671 735 673 732 l 581 753 l 583 796 l 827 796 l 830 753 l 749 735 q 747 713 749 732 q 743 648 745 694 q 742 517 742 602 l 742 3 q 686 -198 742 -121 q 538 -275 629 -275 z "},"ǋ":{"ha":1226,"x_min":72,"x_max":1143,"o":"m 678 164 l 678 517 q 677 649 678 604 q 674 713 675 694 q 671 735 673 732 l 581 753 l 583 796 l 827 796 l 830 753 l 749 735 q 747 713 749 732 q 743 648 745 694 q 742 517 742 602 l 742 163 q 742 85 742 129 q 743 -5 742 42 l 694 -5 l 216 688 l 225 688 l 225 277 q 227 147 225 193 q 231 83 229 102 q 233 61 233 65 l 324 43 l 321 0 l 75 0 l 72 43 l 153 61 q 156 82 155 65 q 159 144 157 99 q 160 277 160 190 l 160 534 q 159 646 160 606 q 157 705 159 685 q 153 735 156 724 l 72 753 l 75 796 l 247 796 l 688 164 l 678 164 z "},"Ṉ":{"ha":902,"x_min":72,"x_max":830,"o":"m 678 164 l 678 517 q 677 649 678 604 q 674 713 675 694 q 671 735 673 732 l 581 753 l 583 796 l 827 796 l 830 753 l 749 735 q 747 713 749 732 q 743 648 745 694 q 742 517 742 602 l 742 163 q 742 85 742 129 q 743 -5 742 42 l 694 -5 l 216 688 l 225 688 l 225 277 q 227 147 225 193 q 231 83 229 102 q 233 61 233 65 l 324 43 l 321 0 l 75 0 l 72 43 l 153 61 q 156 82 155 65 q 159 144 157 99 q 160 277 160 190 l 160 534 q 159 646 160 606 q 157 705 159 685 q 153 735 156 724 l 72 753 l 75 796 l 247 796 l 688 164 l 678 164 m 264 -176 l 639 -176 l 639 -239 l 264 -239 l 264 -176 z "},"Ñ":{"ha":902,"x_min":72,"x_max":830,"o":"m 678 164 l 678 517 q 677 649 678 604 q 674 713 675 694 q 671 735 673 732 l 581 753 l 583 796 l 827 796 l 830 753 l 749 735 q 747 713 749 732 q 743 648 745 694 q 742 517 742 602 l 742 163 q 742 85 742 129 q 743 -5 742 42 l 694 -5 l 216 688 l 225 688 l 225 277 q 227 147 225 193 q 231 83 229 102 q 233 61 233 65 l 324 43 l 321 0 l 75 0 l 72 43 l 153 61 q 156 82 155 65 q 159 144 157 99 q 160 277 160 190 l 160 534 q 159 646 160 606 q 157 705 159 685 q 153 735 156 724 l 72 753 l 75 796 l 247 796 l 688 164 l 678 164 m 677 1027 l 713 1008 q 650 918 690 952 q 559 883 610 883 q 478 903 518 883 q 400 944 438 924 q 327 964 362 964 q 268 945 289 964 q 227 895 247 926 l 190 914 q 254 1004 213 970 q 345 1038 294 1038 q 426 1018 387 1038 q 504 978 465 998 q 579 958 543 958 q 635 977 614 958 q 677 1027 656 997 z "},"O":{"ha":920,"x_min":75,"x_max":845,"o":"m 467 -12 q 263 39 351 -12 q 125 184 175 91 q 75 397 75 277 q 126 608 75 515 q 268 755 178 701 q 472 808 358 808 q 666 757 582 808 q 798 614 750 705 q 845 401 845 522 q 817 243 845 317 q 739 111 789 168 q 620 20 689 53 q 467 -12 551 -12 m 481 47 q 619 87 560 47 q 711 201 678 127 q 745 370 745 274 q 708 568 745 483 q 606 703 671 654 q 456 751 541 751 q 254 661 328 751 q 180 416 180 571 q 219 226 180 309 q 326 95 258 142 q 481 47 395 47 z "},"Ó":{"ha":920,"x_min":75,"x_max":845,"o":"m 467 -12 q 263 39 351 -12 q 125 184 175 91 q 75 397 75 277 q 126 608 75 515 q 268 755 178 701 q 472 808 358 808 q 666 757 582 808 q 798 614 750 705 q 845 401 845 522 q 817 243 845 317 q 739 111 789 168 q 620 20 689 53 q 467 -12 551 -12 m 481 47 q 619 87 560 47 q 711 201 678 127 q 745 370 745 274 q 708 568 745 483 q 606 703 671 654 q 456 751 541 751 q 254 661 328 751 q 180 416 180 571 q 219 226 180 309 q 326 95 258 142 q 481 47 395 47 m 480 872 l 437 887 l 519 1063 l 602 1032 l 480 872 z "},"Ŏ":{"ha":920,"x_min":75,"x_max":845,"o":"m 467 -12 q 263 39 351 -12 q 125 184 175 91 q 75 397 75 277 q 126 608 75 515 q 268 755 178 701 q 472 808 358 808 q 666 757 582 808 q 798 614 750 705 q 845 401 845 522 q 817 243 845 317 q 739 111 789 168 q 620 20 689 53 q 467 -12 551 -12 m 481 47 q 619 87 560 47 q 711 201 678 127 q 745 370 745 274 q 708 568 745 483 q 606 703 671 654 q 456 751 541 751 q 254 661 328 751 q 180 416 180 571 q 219 226 180 309 q 326 95 258 142 q 481 47 395 47 m 631 1055 l 670 1040 q 601 919 656 962 q 460 876 545 876 q 318 919 376 876 q 247 1040 260 962 l 292 1055 q 347 976 302 1005 q 458 947 392 947 q 575 976 530 947 q 631 1055 620 1005 z "},"Ô":{"ha":920,"x_min":75,"x_max":845,"o":"m 467 -12 q 263 39 351 -12 q 125 184 175 91 q 75 397 75 277 q 126 608 75 515 q 268 755 178 701 q 472 808 358 808 q 666 757 582 808 q 798 614 750 705 q 845 401 845 522 q 817 243 845 317 q 739 111 789 168 q 620 20 689 53 q 467 -12 551 -12 m 481 47 q 619 87 560 47 q 711 201 678 127 q 745 370 745 274 q 708 568 745 483 q 606 703 671 654 q 456 751 541 751 q 254 661 328 751 q 180 416 180 571 q 219 226 180 309 q 326 95 258 142 q 481 47 395 47 m 675 897 l 637 868 l 419 997 l 498 997 l 279 868 l 241 897 l 419 1044 l 498 1044 l 675 897 z "},"Ố":{"ha":920,"x_min":75,"x_max":845,"o":"m 467 -12 q 263 39 351 -12 q 125 184 175 91 q 75 397 75 277 q 126 608 75 515 q 268 755 178 701 q 472 808 358 808 q 666 757 582 808 q 798 614 750 705 q 845 401 845 522 q 817 243 845 317 q 739 111 789 168 q 620 20 689 53 q 467 -12 551 -12 m 481 47 q 619 87 560 47 q 711 201 678 127 q 745 370 745 274 q 708 568 745 483 q 606 703 671 654 q 456 751 541 751 q 254 661 328 751 q 180 416 180 571 q 219 226 180 309 q 326 95 258 142 q 481 47 395 47 m 601 1016 l 560 1031 l 656 1225 l 741 1194 l 601 1016 m 675 897 l 637 868 l 419 997 l 498 997 l 279 868 l 241 897 l 419 1044 l 498 1044 l 675 897 z "},"Ộ":{"ha":920,"x_min":75,"x_max":845,"o":"m 467 -12 q 263 39 351 -12 q 125 184 175 91 q 75 397 75 277 q 126 608 75 515 q 268 755 178 701 q 472 808 358 808 q 666 757 582 808 q 798 614 750 705 q 845 401 845 522 q 817 243 845 317 q 739 111 789 168 q 620 20 689 53 q 467 -12 551 -12 m 481 47 q 619 87 560 47 q 711 201 678 127 q 745 370 745 274 q 708 568 745 483 q 606 703 671 654 q 456 751 541 751 q 254 661 328 751 q 180 416 180 571 q 219 226 180 309 q 326 95 258 142 q 481 47 395 47 m 460 -263 q 419 -248 438 -263 q 400 -208 400 -233 q 419 -166 400 -182 q 460 -151 438 -151 q 499 -166 481 -151 q 517 -208 517 -182 q 499 -248 517 -233 q 460 -263 481 -263 m 675 897 l 637 868 l 419 997 l 498 997 l 279 868 l 241 897 l 419 1044 l 498 1044 l 675 897 z "},"Ồ":{"ha":920,"x_min":75,"x_max":845,"o":"m 467 -12 q 263 39 351 -12 q 125 184 175 91 q 75 397 75 277 q 126 608 75 515 q 268 755 178 701 q 472 808 358 808 q 666 757 582 808 q 798 614 750 705 q 845 401 845 522 q 817 243 845 317 q 739 111 789 168 q 620 20 689 53 q 467 -12 551 -12 m 481 47 q 619 87 560 47 q 711 201 678 127 q 745 370 745 274 q 708 568 745 483 q 606 703 671 654 q 456 751 541 751 q 254 661 328 751 q 180 416 180 571 q 219 226 180 309 q 326 95 258 142 q 481 47 395 47 m 612 1016 l 472 1194 l 556 1225 l 654 1031 l 612 1016 m 675 897 l 637 868 l 419 997 l 498 997 l 279 868 l 241 897 l 419 1044 l 498 1044 l 675 897 z "},"Ổ":{"ha":920,"x_min":75,"x_max":845,"o":"m 467 -12 q 263 39 351 -12 q 125 184 175 91 q 75 397 75 277 q 126 608 75 515 q 268 755 178 701 q 472 808 358 808 q 666 757 582 808 q 798 614 750 705 q 845 401 845 522 q 817 243 845 317 q 739 111 789 168 q 620 20 689 53 q 467 -12 551 -12 m 481 47 q 619 87 560 47 q 711 201 678 127 q 745 370 745 274 q 708 568 745 483 q 606 703 671 654 q 456 751 541 751 q 254 661 328 751 q 180 416 180 571 q 219 226 180 309 q 326 95 258 142 q 481 47 395 47 m 675 897 l 637 868 l 419 997 l 498 997 l 279 868 l 241 897 l 419 1044 l 498 1044 l 675 897 m 604 1221 q 688 1199 655 1221 q 722 1138 722 1177 q 706 1094 722 1108 q 670 1069 690 1080 q 634 1044 650 1059 q 618 998 618 1029 l 582 998 l 582 1019 q 597 1075 582 1055 q 627 1109 612 1095 q 643 1142 643 1123 q 618 1186 643 1180 q 566 1185 594 1192 l 610 1192 l 567 1153 q 541 1131 549 1137 q 518 1124 533 1124 q 495 1134 503 1124 q 487 1157 487 1143 q 519 1200 487 1180 q 604 1221 551 1221 z "},"Ỗ":{"ha":920,"x_min":75,"x_max":845,"o":"m 467 -12 q 263 39 351 -12 q 125 184 175 91 q 75 397 75 277 q 126 608 75 515 q 268 755 178 701 q 472 808 358 808 q 666 757 582 808 q 798 614 750 705 q 845 401 845 522 q 817 243 845 317 q 739 111 789 168 q 620 20 689 53 q 467 -12 551 -12 m 481 47 q 619 87 560 47 q 711 201 678 127 q 745 370 745 274 q 708 568 745 483 q 606 703 671 654 q 456 751 541 751 q 254 661 328 751 q 180 416 180 571 q 219 226 180 309 q 326 95 258 142 q 481 47 395 47 m 279 868 l 241 897 l 419 1044 l 498 1044 l 675 897 l 637 868 l 419 997 l 498 997 l 279 868 m 551 1081 q 484 1097 517 1081 q 419 1130 450 1114 q 358 1146 388 1146 q 310 1129 327 1146 q 277 1081 293 1112 l 236 1101 q 288 1191 255 1157 q 363 1225 321 1225 q 431 1208 397 1225 q 495 1176 464 1192 q 556 1160 526 1160 q 602 1177 585 1160 q 636 1225 620 1195 l 677 1204 q 625 1115 658 1149 q 551 1081 591 1081 z "},"Ȍ":{"ha":920,"x_min":75,"x_max":845,"o":"m 467 -12 q 263 39 351 -12 q 125 184 175 91 q 75 397 75 277 q 126 608 75 515 q 268 755 178 701 q 472 808 358 808 q 666 757 582 808 q 798 614 750 705 q 845 401 845 522 q 817 243 845 317 q 739 111 789 168 q 620 20 689 53 q 467 -12 551 -12 m 481 47 q 619 87 560 47 q 711 201 678 127 q 745 370 745 274 q 708 568 745 483 q 606 703 671 654 q 456 751 541 751 q 254 661 328 751 q 180 416 180 571 q 219 226 180 309 q 326 95 258 142 q 481 47 395 47 m 518 868 l 406 1029 l 488 1047 l 551 882 l 518 868 m 366 868 l 254 1029 l 336 1047 l 399 882 l 366 868 z "},"Ö":{"ha":920,"x_min":75,"x_max":845,"o":"m 467 -12 q 263 39 351 -12 q 125 184 175 91 q 75 397 75 277 q 126 608 75 515 q 268 755 178 701 q 472 808 358 808 q 666 757 582 808 q 798 614 750 705 q 845 401 845 522 q 817 243 845 317 q 739 111 789 168 q 620 20 689 53 q 467 -12 551 -12 m 481 47 q 619 87 560 47 q 711 201 678 127 q 745 370 745 274 q 708 568 745 483 q 606 703 671 654 q 456 751 541 751 q 254 661 328 751 q 180 416 180 571 q 219 226 180 309 q 326 95 258 142 q 481 47 395 47 m 334 906 q 293 922 311 906 q 275 963 275 937 q 293 1004 275 989 q 334 1020 311 1020 q 373 1004 357 1020 q 389 963 389 989 q 373 922 389 937 q 334 906 357 906 m 586 906 q 545 922 563 906 q 528 963 528 937 q 545 1004 528 989 q 586 1020 563 1020 q 625 1004 609 1020 q 642 963 642 989 q 625 922 642 937 q 586 906 609 906 z "},"Ȫ":{"ha":920,"x_min":75,"x_max":845,"o":"m 467 -12 q 263 39 351 -12 q 125 184 175 91 q 75 397 75 277 q 126 608 75 515 q 268 755 178 701 q 472 808 358 808 q 666 757 582 808 q 798 614 750 705 q 845 401 845 522 q 817 243 845 317 q 739 111 789 168 q 620 20 689 53 q 467 -12 551 -12 m 481 47 q 619 87 560 47 q 711 201 678 127 q 745 370 745 274 q 708 568 745 483 q 606 703 671 654 q 456 751 541 751 q 254 661 328 751 q 180 416 180 571 q 219 226 180 309 q 326 95 258 142 q 481 47 395 47 m 250 1188 l 667 1188 l 667 1124 l 250 1124 l 250 1188 m 334 906 q 293 922 311 906 q 275 963 275 937 q 293 1004 275 989 q 334 1020 311 1020 q 373 1004 357 1020 q 389 963 389 989 q 373 922 389 937 q 334 906 357 906 m 586 906 q 545 922 563 906 q 528 963 528 937 q 545 1004 528 989 q 586 1020 563 1020 q 625 1004 609 1020 q 642 963 642 989 q 625 922 642 937 q 586 906 609 906 z "},"Ȱ":{"ha":920,"x_min":75,"x_max":845,"o":"m 467 -12 q 263 39 351 -12 q 125 184 175 91 q 75 397 75 277 q 126 608 75 515 q 268 755 178 701 q 472 808 358 808 q 666 757 582 808 q 798 614 750 705 q 845 401 845 522 q 817 243 845 317 q 739 111 789 168 q 620 20 689 53 q 467 -12 551 -12 m 481 47 q 619 87 560 47 q 711 201 678 127 q 745 370 745 274 q 708 568 745 483 q 606 703 671 654 q 456 751 541 751 q 254 661 328 751 q 180 416 180 571 q 219 226 180 309 q 326 95 258 142 q 481 47 395 47 m 250 1124 l 250 1188 l 667 1188 l 667 1124 l 250 1124 m 460 906 q 419 922 437 906 q 401 963 401 937 q 419 1004 401 989 q 460 1020 437 1020 q 499 1004 483 1020 q 515 963 515 989 q 499 922 515 937 q 460 906 483 906 z "},"Ọ":{"ha":920,"x_min":75,"x_max":845,"o":"m 467 -12 q 263 39 351 -12 q 125 184 175 91 q 75 397 75 277 q 126 608 75 515 q 268 755 178 701 q 472 808 358 808 q 666 757 582 808 q 798 614 750 705 q 845 401 845 522 q 817 243 845 317 q 739 111 789 168 q 620 20 689 53 q 467 -12 551 -12 m 481 47 q 619 87 560 47 q 711 201 678 127 q 745 370 745 274 q 708 568 745 483 q 606 703 671 654 q 456 751 541 751 q 254 661 328 751 q 180 416 180 571 q 219 226 180 309 q 326 95 258 142 q 481 47 395 47 m 460 -263 q 419 -248 438 -263 q 400 -208 400 -233 q 419 -166 400 -182 q 460 -151 438 -151 q 499 -166 481 -151 q 517 -208 517 -182 q 499 -248 517 -233 q 460 -263 481 -263 z "},"Ò":{"ha":920,"x_min":75,"x_max":845,"o":"m 467 -12 q 263 39 351 -12 q 125 184 175 91 q 75 397 75 277 q 126 608 75 515 q 268 755 178 701 q 472 808 358 808 q 666 757 582 808 q 798 614 750 705 q 845 401 845 522 q 817 243 845 317 q 739 111 789 168 q 620 20 689 53 q 467 -12 551 -12 m 481 47 q 619 87 560 47 q 711 201 678 127 q 745 370 745 274 q 708 568 745 483 q 606 703 671 654 q 456 751 541 751 q 254 661 328 751 q 180 416 180 571 q 219 226 180 309 q 326 95 258 142 q 481 47 395 47 m 437 872 l 315 1032 l 397 1063 l 480 887 l 437 872 z "},"Ỏ":{"ha":920,"x_min":75,"x_max":845,"o":"m 467 -12 q 263 39 351 -12 q 125 184 175 91 q 75 397 75 277 q 126 608 75 515 q 268 755 178 701 q 472 808 358 808 q 666 757 582 808 q 798 614 750 705 q 845 401 845 522 q 817 243 845 317 q 739 111 789 168 q 620 20 689 53 q 467 -12 551 -12 m 481 47 q 619 87 560 47 q 711 201 678 127 q 745 370 745 274 q 708 568 745 483 q 606 703 671 654 q 456 751 541 751 q 254 661 328 751 q 180 416 180 571 q 219 226 180 309 q 326 95 258 142 q 481 47 395 47 m 464 1123 q 548 1101 515 1123 q 581 1040 581 1080 q 565 989 581 1006 q 529 961 549 972 q 493 933 509 949 q 477 884 477 917 l 441 884 l 441 907 q 456 970 441 947 q 488 1009 472 993 q 503 1044 503 1025 q 479 1088 503 1082 q 425 1088 454 1095 l 469 1096 l 426 1055 q 400 1033 408 1039 q 377 1027 392 1027 q 355 1036 363 1027 q 346 1059 346 1046 q 378 1103 346 1084 q 464 1123 411 1123 z "},"Ơ":{"ha":920,"x_min":75,"x_max":883,"o":"m 883 882 q 859 808 883 849 q 782 742 834 768 q 647 726 730 716 l 666 758 q 798 613 750 705 q 845 401 845 521 q 817 243 845 317 q 739 111 789 168 q 620 20 689 53 q 467 -12 551 -12 q 263 39 351 -12 q 125 184 175 91 q 75 397 75 277 q 127 608 75 515 q 269 755 179 701 q 473 808 359 808 q 585 797 537 808 q 675 785 633 785 q 745 806 720 785 q 773 894 770 827 l 776 958 q 831 958 807 964 q 869 933 854 952 q 883 882 883 914 m 481 47 q 619 88 560 47 q 711 201 678 129 q 745 370 745 274 q 708 568 745 483 q 606 703 671 654 q 456 751 541 751 q 254 661 328 751 q 180 416 180 571 q 219 226 180 309 q 326 95 258 142 q 481 47 395 47 z "},"Ớ":{"ha":920,"x_min":75,"x_max":883,"o":"m 883 882 q 859 808 883 849 q 782 742 834 768 q 647 726 730 716 l 666 758 q 798 613 750 705 q 845 401 845 521 q 817 243 845 317 q 739 111 789 168 q 620 20 689 53 q 467 -12 551 -12 q 263 39 351 -12 q 125 184 175 91 q 75 397 75 277 q 127 608 75 515 q 269 755 179 701 q 473 808 359 808 q 585 797 537 808 q 675 785 633 785 q 745 806 720 785 q 773 894 770 827 l 776 958 q 831 958 807 964 q 869 933 854 952 q 883 882 883 914 m 481 47 q 619 88 560 47 q 711 201 678 129 q 745 370 745 274 q 708 568 745 483 q 606 703 671 654 q 456 751 541 751 q 254 661 328 751 q 180 416 180 571 q 219 226 180 309 q 326 95 258 142 q 481 47 395 47 m 480 872 l 437 887 l 519 1063 l 602 1032 l 480 872 z "},"Ợ":{"ha":920,"x_min":75,"x_max":883,"o":"m 883 882 q 859 808 883 849 q 782 742 834 768 q 647 726 730 716 l 666 758 q 798 613 750 705 q 845 401 845 521 q 817 243 845 317 q 739 111 789 168 q 620 20 689 53 q 467 -12 551 -12 q 263 39 351 -12 q 125 184 175 91 q 75 397 75 277 q 127 608 75 515 q 269 755 179 701 q 473 808 359 808 q 585 797 537 808 q 675 785 633 785 q 745 806 720 785 q 773 894 770 827 l 776 958 q 831 958 807 964 q 869 933 854 952 q 883 882 883 914 m 481 47 q 619 88 560 47 q 711 201 678 129 q 745 370 745 274 q 708 568 745 483 q 606 703 671 654 q 456 751 541 751 q 254 661 328 751 q 180 416 180 571 q 219 226 180 309 q 326 95 258 142 q 481 47 395 47 m 460 -263 q 419 -248 438 -263 q 400 -208 400 -233 q 419 -166 400 -182 q 460 -151 438 -151 q 499 -166 481 -151 q 517 -208 517 -182 q 499 -248 517 -233 q 460 -263 481 -263 z "},"Ờ":{"ha":920,"x_min":75,"x_max":883,"o":"m 883 882 q 859 808 883 849 q 782 742 834 768 q 647 726 730 716 l 666 758 q 798 613 750 705 q 845 401 845 521 q 817 243 845 317 q 739 111 789 168 q 620 20 689 53 q 467 -12 551 -12 q 263 39 351 -12 q 125 184 175 91 q 75 397 75 277 q 127 608 75 515 q 269 755 179 701 q 473 808 359 808 q 585 797 537 808 q 675 785 633 785 q 745 806 720 785 q 773 894 770 827 l 776 958 q 831 958 807 964 q 869 933 854 952 q 883 882 883 914 m 481 47 q 619 88 560 47 q 711 201 678 129 q 745 370 745 274 q 708 568 745 483 q 606 703 671 654 q 456 751 541 751 q 254 661 328 751 q 180 416 180 571 q 219 226 180 309 q 326 95 258 142 q 481 47 395 47 m 437 872 l 315 1032 l 397 1063 l 480 887 l 437 872 z "},"Ở":{"ha":920,"x_min":75,"x_max":883,"o":"m 883 882 q 859 808 883 849 q 782 742 834 768 q 647 726 730 716 l 666 758 q 798 613 750 705 q 845 401 845 521 q 817 243 845 317 q 739 111 789 168 q 620 20 689 53 q 467 -12 551 -12 q 263 39 351 -12 q 125 184 175 91 q 75 397 75 277 q 127 608 75 515 q 269 755 179 701 q 473 808 359 808 q 585 797 537 808 q 675 785 633 785 q 745 806 720 785 q 773 894 770 827 l 776 958 q 831 958 807 964 q 869 933 854 952 q 883 882 883 914 m 481 47 q 619 88 560 47 q 711 201 678 129 q 745 370 745 274 q 708 568 745 483 q 606 703 671 654 q 456 751 541 751 q 254 661 328 751 q 180 416 180 571 q 219 226 180 309 q 326 95 258 142 q 481 47 395 47 m 464 1123 q 548 1101 515 1123 q 581 1040 581 1080 q 565 989 581 1006 q 529 961 549 972 q 493 933 509 949 q 477 884 477 917 l 441 884 l 441 907 q 456 970 441 947 q 488 1009 472 993 q 503 1044 503 1025 q 479 1088 503 1082 q 425 1088 454 1095 l 469 1096 l 426 1055 q 400 1033 408 1039 q 377 1027 392 1027 q 355 1036 363 1027 q 346 1059 346 1046 q 378 1103 346 1084 q 464 1123 411 1123 z "},"Ỡ":{"ha":920,"x_min":75,"x_max":883,"o":"m 883 882 q 859 808 883 849 q 782 742 834 768 q 647 726 730 716 l 666 758 q 798 613 750 705 q 845 401 845 521 q 817 243 845 317 q 739 111 789 168 q 620 20 689 53 q 467 -12 551 -12 q 263 39 351 -12 q 125 184 175 91 q 75 397 75 277 q 127 608 75 515 q 269 755 179 701 q 473 808 359 808 q 585 797 537 808 q 675 785 633 785 q 745 806 720 785 q 773 894 770 827 l 776 958 q 831 958 807 964 q 869 933 854 952 q 883 882 883 914 m 481 47 q 619 88 560 47 q 711 201 678 129 q 745 370 745 274 q 708 568 745 483 q 606 703 671 654 q 456 751 541 751 q 254 661 328 751 q 180 416 180 571 q 219 226 180 309 q 326 95 258 142 q 481 47 395 47 m 684 1027 l 720 1008 q 657 918 697 952 q 566 883 617 883 q 485 903 525 883 q 407 944 445 924 q 334 964 369 964 q 275 945 296 964 q 233 895 254 926 l 197 914 q 260 1004 220 970 q 351 1038 301 1038 q 433 1018 393 1038 q 511 978 472 998 q 586 958 549 958 q 642 977 621 958 q 684 1027 663 997 z "},"Ő":{"ha":920,"x_min":75,"x_max":845,"o":"m 467 -12 q 263 39 351 -12 q 125 184 175 91 q 75 397 75 277 q 126 608 75 515 q 268 755 178 701 q 472 808 358 808 q 666 757 582 808 q 798 614 750 705 q 845 401 845 522 q 817 243 845 317 q 739 111 789 168 q 620 20 689 53 q 467 -12 551 -12 m 481 47 q 619 87 560 47 q 711 201 678 127 q 745 370 745 274 q 708 568 745 483 q 606 703 671 654 q 456 751 541 751 q 254 661 328 751 q 180 416 180 571 q 219 226 180 309 q 326 95 258 142 q 481 47 395 47 m 551 868 l 518 882 l 581 1047 l 663 1029 l 551 868 m 399 868 l 366 882 l 429 1047 l 511 1029 l 399 868 z "},"Ȏ":{"ha":920,"x_min":75,"x_max":845,"o":"m 467 -12 q 263 39 351 -12 q 125 184 175 91 q 75 397 75 277 q 126 608 75 515 q 268 755 178 701 q 472 808 358 808 q 666 757 582 808 q 798 614 750 705 q 845 401 845 522 q 817 243 845 317 q 739 111 789 168 q 620 20 689 53 q 467 -12 551 -12 m 481 47 q 619 87 560 47 q 711 201 678 127 q 745 370 745 274 q 708 568 745 483 q 606 703 671 654 q 456 751 541 751 q 254 661 328 751 q 180 416 180 571 q 219 226 180 309 q 326 95 258 142 q 481 47 395 47 m 286 868 l 247 883 q 316 1004 260 962 q 457 1047 372 1047 q 599 1004 541 1047 q 670 883 656 962 l 625 868 q 570 947 614 918 q 458 977 526 977 q 342 947 387 977 q 286 868 297 918 z "},"Ō":{"ha":920,"x_min":75,"x_max":845,"o":"m 467 -12 q 263 39 351 -12 q 125 184 175 91 q 75 397 75 277 q 126 608 75 515 q 268 755 178 701 q 472 808 358 808 q 666 757 582 808 q 798 614 750 705 q 845 401 845 522 q 817 243 845 317 q 739 111 789 168 q 620 20 689 53 q 467 -12 551 -12 m 481 47 q 619 87 560 47 q 711 201 678 127 q 745 370 745 274 q 708 568 745 483 q 606 703 671 654 q 456 751 541 751 q 254 661 328 751 q 180 416 180 571 q 219 226 180 309 q 326 95 258 142 q 481 47 395 47 m 271 993 l 646 993 l 646 929 l 271 929 l 271 993 z "},"Ṓ":{"ha":920,"x_min":75,"x_max":845,"o":"m 467 -12 q 263 39 351 -12 q 125 184 175 91 q 75 397 75 277 q 126 608 75 515 q 268 755 178 701 q 472 808 358 808 q 666 757 582 808 q 798 614 750 705 q 845 401 845 522 q 817 243 845 317 q 739 111 789 168 q 620 20 689 53 q 467 -12 551 -12 m 481 47 q 619 87 560 47 q 711 201 678 127 q 745 370 745 274 q 708 568 745 483 q 606 703 671 654 q 456 751 541 751 q 254 661 328 751 q 180 416 180 571 q 219 226 180 309 q 326 95 258 142 q 481 47 395 47 m 486 1040 l 444 1054 l 534 1225 l 618 1194 l 486 1040 m 250 943 l 250 1006 l 667 1006 l 667 943 l 250 943 z "},"Ṑ":{"ha":920,"x_min":75,"x_max":845,"o":"m 467 -12 q 263 39 351 -12 q 125 184 175 91 q 75 397 75 277 q 126 608 75 515 q 268 755 178 701 q 472 808 358 808 q 666 757 582 808 q 798 614 750 705 q 845 401 845 522 q 817 243 845 317 q 739 111 789 168 q 620 20 689 53 q 467 -12 551 -12 m 481 47 q 619 87 560 47 q 711 201 678 127 q 745 370 745 274 q 708 568 745 483 q 606 703 671 654 q 456 751 541 751 q 254 661 328 751 q 180 416 180 571 q 219 226 180 309 q 326 95 258 142 q 481 47 395 47 m 667 1006 l 667 943 l 250 943 l 250 1006 l 667 1006 m 431 1040 l 298 1194 l 382 1225 l 473 1054 l 431 1040 z "},"Ǫ":{"ha":920,"x_min":75,"x_max":845,"o":"m 505 -302 q 426 -287 458 -302 q 377 -244 393 -271 q 361 -186 361 -217 q 414 -68 361 -122 q 557 23 467 -14 l 510 -12 l 467 -12 q 263 39 351 -12 q 125 184 175 91 q 75 397 75 277 q 126 608 75 515 q 268 755 178 701 q 472 808 358 808 q 666 757 582 808 q 798 614 750 705 q 845 401 845 522 q 814 234 845 312 q 728 99 783 156 q 601 14 673 42 q 480 -68 522 -16 q 438 -171 438 -119 q 460 -231 438 -209 q 521 -254 483 -254 q 572 -240 549 -254 q 614 -206 595 -227 l 642 -235 q 582 -283 616 -263 q 505 -302 548 -302 m 481 47 q 619 88 560 47 q 711 201 678 129 q 745 370 745 274 q 708 568 745 483 q 606 703 671 654 q 456 751 541 751 q 254 661 328 751 q 180 416 180 571 q 219 226 180 309 q 326 95 258 142 q 481 47 395 47 z "},"Ø":{"ha":920,"x_min":75,"x_max":845,"o":"m 467 -12 q 263 39 351 -12 q 125 184 175 91 q 75 397 75 277 q 126 608 75 515 q 268 755 178 701 q 472 808 358 808 q 666 757 582 808 q 798 614 750 705 q 845 401 845 522 q 817 243 845 317 q 739 111 789 168 q 620 20 689 53 q 467 -12 551 -12 m 481 47 q 619 87 560 47 q 711 201 678 127 q 745 370 745 274 q 708 568 745 483 q 606 703 671 654 q 456 751 541 751 q 254 661 328 751 q 180 416 180 571 q 219 226 180 309 q 326 95 258 142 q 481 47 395 47 m 197 -85 l 142 -53 l 720 883 l 774 850 l 197 -85 z "},"Ǿ":{"ha":920,"x_min":75,"x_max":845,"o":"m 467 -12 q 263 39 351 -12 q 125 184 175 91 q 75 397 75 277 q 126 608 75 515 q 268 755 178 701 q 472 808 358 808 q 666 757 582 808 q 798 614 750 705 q 845 401 845 522 q 817 243 845 317 q 739 111 789 168 q 620 20 689 53 q 467 -12 551 -12 m 481 47 q 619 87 560 47 q 711 201 678 127 q 745 370 745 274 q 708 568 745 483 q 606 703 671 654 q 456 751 541 751 q 254 661 328 751 q 180 416 180 571 q 219 226 180 309 q 326 95 258 142 q 481 47 395 47 m 197 -85 l 142 -53 l 720 883 l 774 850 l 197 -85 m 480 872 l 437 887 l 519 1063 l 602 1032 l 480 872 z "},"Õ":{"ha":920,"x_min":75,"x_max":845,"o":"m 467 -12 q 263 39 351 -12 q 125 184 175 91 q 75 397 75 277 q 126 608 75 515 q 268 755 178 701 q 472 808 358 808 q 666 757 582 808 q 798 614 750 705 q 845 401 845 522 q 817 243 845 317 q 739 111 789 168 q 620 20 689 53 q 467 -12 551 -12 m 481 47 q 619 87 560 47 q 711 201 678 127 q 745 370 745 274 q 708 568 745 483 q 606 703 671 654 q 456 751 541 751 q 254 661 328 751 q 180 416 180 571 q 219 226 180 309 q 326 95 258 142 q 481 47 395 47 m 684 1027 l 720 1008 q 657 918 697 952 q 566 883 617 883 q 485 903 525 883 q 407 944 445 924 q 334 964 369 964 q 275 945 296 964 q 233 895 254 926 l 197 914 q 260 1004 220 970 q 351 1038 301 1038 q 433 1018 393 1038 q 511 978 472 998 q 586 958 549 958 q 642 977 621 958 q 684 1027 663 997 z "},"Ṍ":{"ha":920,"x_min":75,"x_max":845,"o":"m 467 -12 q 263 39 351 -12 q 125 184 175 91 q 75 397 75 277 q 126 608 75 515 q 268 755 178 701 q 472 808 358 808 q 666 757 582 808 q 798 614 750 705 q 845 401 845 522 q 817 243 845 317 q 739 111 789 168 q 620 20 689 53 q 467 -12 551 -12 m 481 47 q 619 87 560 47 q 711 201 678 127 q 745 370 745 274 q 708 568 745 483 q 606 703 671 654 q 456 751 541 751 q 254 661 328 751 q 180 416 180 571 q 219 226 180 309 q 326 95 258 142 q 481 47 395 47 m 479 1040 l 438 1054 l 528 1225 l 613 1194 l 479 1040 m 551 875 q 484 891 517 875 q 419 924 450 907 q 358 940 388 940 q 310 923 327 940 q 277 875 293 906 l 236 895 q 288 985 255 951 q 363 1019 321 1019 q 431 1003 397 1019 q 495 971 464 987 q 556 955 526 955 q 602 972 585 955 q 636 1020 620 989 l 677 998 q 625 909 658 943 q 551 875 591 875 z "},"Ṏ":{"ha":920,"x_min":75,"x_max":845,"o":"m 467 -12 q 263 39 351 -12 q 125 184 175 91 q 75 397 75 277 q 126 608 75 515 q 268 755 178 701 q 472 808 358 808 q 666 757 582 808 q 798 614 750 705 q 845 401 845 522 q 817 243 845 317 q 739 111 789 168 q 620 20 689 53 q 467 -12 551 -12 m 481 47 q 619 87 560 47 q 711 201 678 127 q 745 370 745 274 q 708 568 745 483 q 606 703 671 654 q 456 751 541 751 q 254 661 328 751 q 180 416 180 571 q 219 226 180 309 q 326 95 258 142 q 481 47 395 47 m 339 1101 q 298 1118 316 1101 q 279 1160 279 1134 q 298 1202 279 1187 q 339 1218 316 1218 q 379 1202 362 1218 q 396 1160 396 1187 q 379 1118 396 1134 q 339 1101 362 1101 m 589 1101 q 547 1118 566 1101 q 529 1160 529 1134 q 547 1202 529 1187 q 589 1218 566 1218 q 629 1202 612 1218 q 646 1160 646 1187 q 629 1118 646 1134 q 589 1101 612 1101 m 555 875 q 488 891 521 875 q 423 924 454 907 q 362 940 392 940 q 314 923 331 940 q 281 875 297 906 l 240 895 q 292 985 259 951 q 368 1019 326 1019 q 435 1003 401 1019 q 499 971 468 987 q 560 955 530 955 q 606 972 589 955 q 640 1020 624 989 l 681 998 q 629 909 662 943 q 555 875 595 875 z "},"Ȭ":{"ha":920,"x_min":75,"x_max":845,"o":"m 467 -12 q 263 39 351 -12 q 125 184 175 91 q 75 397 75 277 q 126 608 75 515 q 268 755 178 701 q 472 808 358 808 q 666 757 582 808 q 798 614 750 705 q 845 401 845 522 q 817 243 845 317 q 739 111 789 168 q 620 20 689 53 q 467 -12 551 -12 m 481 47 q 619 87 560 47 q 711 201 678 127 q 745 370 745 274 q 708 568 745 483 q 606 703 671 654 q 456 751 541 751 q 254 661 328 751 q 180 416 180 571 q 219 226 180 309 q 326 95 258 142 q 481 47 395 47 m 551 875 q 484 891 517 875 q 419 924 450 907 q 358 940 388 940 q 310 923 327 940 q 277 875 293 906 l 236 895 q 288 985 255 951 q 363 1019 321 1019 q 431 1003 397 1019 q 495 971 464 987 q 556 955 526 955 q 602 972 585 955 q 636 1020 620 989 l 677 998 q 625 909 658 943 q 551 875 591 875 m 250 1097 l 250 1161 l 667 1161 l 667 1097 l 250 1097 z "},"Œ":{"ha":1240,"x_min":76,"x_max":1190,"o":"m 536 -12 q 287 35 389 -12 q 130 173 184 83 q 76 391 76 263 q 109 562 76 486 q 201 693 142 639 q 340 777 260 747 q 514 806 420 806 q 609 801 567 806 q 693 796 651 796 l 1020 796 q 1047 796 1035 796 q 1076 798 1059 796 q 1122 802 1093 799 l 1145 632 l 1092 624 l 1048 735 q 1030 737 1043 736 q 1002 738 1017 738 l 830 738 q 789 736 811 738 q 750 732 766 735 q 749 703 750 728 q 748 645 749 677 q 747 587 747 613 l 747 182 q 748 139 747 164 q 749 94 749 114 q 750 66 750 73 q 790 62 773 64 q 821 61 807 61 l 971 61 q 1018 62 998 61 q 1050 64 1038 62 q 1067 66 1062 65 l 1137 193 l 1190 182 l 1139 -7 q 1094 -1 1111 -3 q 1065 0 1077 0 q 1040 0 1054 0 l 720 0 q 639 -6 689 0 q 536 -12 589 -12 m 544 49 q 607 54 575 49 q 663 66 639 58 q 665 101 665 80 q 666 160 666 122 q 666 262 666 198 l 666 541 q 665 618 666 585 q 664 680 665 652 q 661 726 663 707 q 587 741 623 736 q 509 745 551 745 q 268 652 353 745 q 183 406 183 559 q 279 143 183 237 q 544 49 376 49 m 998 281 l 982 374 q 960 378 974 377 q 926 380 947 380 l 815 380 q 779 379 800 380 q 731 377 758 378 l 731 441 q 779 439 758 439 q 815 439 800 439 l 926 439 q 960 440 947 439 q 982 444 974 441 l 998 540 l 1047 540 l 1047 281 l 998 281 z "},"P":{"ha":665,"x_min":73,"x_max":600,"o":"m 80 0 l 77 43 l 155 61 q 157 81 156 66 q 158 134 157 95 q 159 250 159 172 l 160 552 q 159 664 160 627 q 157 715 157 701 q 155 731 156 728 l 73 753 l 76 796 l 338 796 q 528 737 457 796 q 600 568 600 678 q 561 439 600 492 q 461 357 522 385 q 332 328 400 328 q 271 332 298 328 q 220 339 243 335 l 220 401 q 281 389 256 392 q 327 385 305 385 q 463 425 414 385 q 513 552 513 464 q 460 698 513 651 q 331 745 407 745 l 243 745 q 242 706 243 736 q 241 634 241 675 q 240 552 240 593 l 241 250 q 242 135 241 172 q 244 84 243 98 q 245 64 245 71 l 359 46 l 357 0 l 80 0 z "},"Þ":{"ha":663,"x_min":72,"x_max":598,"o":"m 83 0 l 80 43 l 156 61 q 158 119 157 72 q 159 256 159 165 l 159 538 q 157 677 159 631 q 153 732 156 724 l 72 753 l 75 796 l 320 796 l 323 753 l 241 732 q 241 711 241 726 q 240 673 240 697 l 240 610 l 231 647 l 336 647 q 527 588 456 647 q 598 419 598 529 q 559 289 598 343 q 460 206 521 235 q 330 178 399 178 q 269 182 296 178 q 218 190 241 186 l 218 248 q 279 235 254 239 q 326 231 304 231 q 462 273 412 231 q 511 403 511 316 q 457 548 511 502 q 330 594 403 594 l 240 594 l 240 151 q 241 98 240 123 q 244 61 243 72 l 357 46 l 354 0 l 83 0 z "},"Q":{"ha":920,"x_min":75,"x_max":974,"o":"m 467 -11 q 263 41 351 -11 q 125 184 175 92 q 75 397 75 277 q 126 608 75 515 q 268 755 178 701 q 472 808 358 808 q 666 757 582 808 q 798 614 750 705 q 845 401 845 522 q 818 243 845 317 q 742 111 791 168 q 626 22 693 54 q 479 -9 559 -9 l 467 -11 m 808 -175 q 752 -170 780 -175 q 694 -154 724 -165 q 623 -123 663 -142 q 572 -95 602 -114 q 507 -54 541 -76 q 441 -16 473 -33 q 387 5 410 1 l 513 5 q 614 -16 578 -1 q 692 -52 651 -30 q 789 -90 741 -77 q 880 -103 837 -103 q 924 -100 903 -103 q 963 -91 944 -96 l 974 -133 q 895 -165 939 -155 q 808 -175 852 -175 m 481 47 q 619 88 560 47 q 711 201 678 129 q 745 370 745 274 q 708 568 745 483 q 606 703 671 654 q 456 751 541 751 q 254 661 328 751 q 180 416 180 571 q 219 226 180 309 q 326 95 258 142 q 481 47 395 47 z "},"R":{"ha":734,"x_min":75,"x_max":738,"o":"m 79 0 l 76 43 l 157 64 q 158 92 157 73 q 159 135 159 110 q 159 191 159 160 q 160 256 160 222 l 160 538 q 159 645 160 604 q 158 708 159 686 q 156 735 157 730 l 75 753 l 77 796 l 347 796 q 526 747 461 796 q 590 605 590 697 q 555 486 590 538 q 456 405 519 434 q 312 376 393 376 l 222 376 l 222 429 l 312 429 q 453 471 404 429 q 502 590 502 513 q 459 705 502 666 q 335 745 416 745 l 244 745 q 242 739 243 742 q 241 723 241 736 q 241 672 241 709 q 241 563 241 635 l 241 256 q 242 149 241 186 q 244 94 243 111 q 247 64 245 76 l 328 43 l 326 0 l 79 0 m 690 -12 q 599 9 639 -12 q 517 84 559 31 q 419 231 476 137 l 319 399 l 397 416 l 537 205 q 611 106 579 141 q 673 54 643 71 q 738 33 703 38 l 736 -8 q 714 -12 727 -11 q 690 -12 701 -12 z "},"Ŕ":{"ha":734,"x_min":75,"x_max":738,"o":"m 79 0 l 76 43 l 157 64 q 158 92 157 73 q 159 135 159 110 q 159 191 159 160 q 160 256 160 222 l 160 538 q 159 645 160 604 q 158 708 159 686 q 156 735 157 730 l 75 753 l 77 796 l 347 796 q 526 747 461 796 q 590 605 590 697 q 555 486 590 538 q 456 405 519 434 q 312 376 393 376 l 222 376 l 222 429 l 312 429 q 453 471 404 429 q 502 590 502 513 q 459 705 502 666 q 335 745 416 745 l 244 745 q 242 739 243 742 q 241 723 241 736 q 241 672 241 709 q 241 563 241 635 l 241 256 q 242 149 241 186 q 244 94 243 111 q 247 64 245 76 l 328 43 l 326 0 l 79 0 m 690 -12 q 599 9 639 -12 q 517 84 559 31 q 419 231 476 137 l 319 399 l 397 416 l 537 205 q 611 106 579 141 q 673 54 643 71 q 738 33 703 38 l 736 -8 q 714 -12 727 -11 q 690 -12 701 -12 m 365 872 l 321 887 l 404 1063 l 487 1032 l 365 872 z "},"Ř":{"ha":734,"x_min":75,"x_max":738,"o":"m 79 0 l 76 43 l 157 64 q 158 92 157 73 q 159 135 159 110 q 159 191 159 160 q 160 256 160 222 l 160 538 q 159 645 160 604 q 158 708 159 686 q 156 735 157 730 l 75 753 l 77 796 l 347 796 q 526 747 461 796 q 590 605 590 697 q 555 486 590 538 q 456 405 519 434 q 312 376 393 376 l 222 376 l 222 429 l 312 429 q 453 471 404 429 q 502 590 502 513 q 459 705 502 666 q 335 745 416 745 l 244 745 q 242 739 243 742 q 241 723 241 736 q 241 672 241 709 q 241 563 241 635 l 241 256 q 242 149 241 186 q 244 94 243 111 q 247 64 245 76 l 328 43 l 326 0 l 79 0 m 690 -12 q 599 9 639 -12 q 517 84 559 31 q 419 231 476 137 l 319 399 l 397 416 l 537 205 q 611 106 579 141 q 673 54 643 71 q 738 33 703 38 l 736 -8 q 714 -12 727 -11 q 690 -12 701 -12 m 126 1027 l 164 1055 l 382 926 l 304 926 l 522 1055 l 560 1027 l 382 878 l 304 878 l 126 1027 z "},"Ŗ":{"ha":734,"x_min":75,"x_max":738,"o":"m 79 0 l 76 43 l 157 64 q 158 92 157 73 q 159 135 159 110 q 159 191 159 160 q 160 256 160 222 l 160 538 q 159 645 160 604 q 158 708 159 686 q 156 735 157 730 l 75 753 l 77 796 l 347 796 q 526 747 461 796 q 590 605 590 697 q 555 486 590 538 q 456 405 519 434 q 312 376 393 376 l 222 376 l 222 429 l 312 429 q 453 471 404 429 q 502 590 502 513 q 459 705 502 666 q 335 745 416 745 l 244 745 q 242 739 243 742 q 241 723 241 736 q 241 672 241 709 q 241 563 241 635 l 241 256 q 242 149 241 186 q 244 94 243 111 q 247 64 245 76 l 328 43 l 326 0 l 79 0 m 690 -12 q 599 9 639 -12 q 517 84 559 31 q 419 231 476 137 l 319 399 l 397 416 l 537 205 q 611 106 579 141 q 673 54 643 71 q 738 33 703 38 l 736 -8 q 714 -12 727 -11 q 690 -12 701 -12 m 327 -384 l 312 -354 q 373 -319 349 -342 q 397 -274 397 -297 q 391 -248 397 -258 q 374 -232 384 -239 q 358 -215 365 -225 q 351 -187 351 -205 q 366 -155 351 -168 q 399 -142 380 -142 q 436 -153 422 -142 q 458 -182 450 -164 q 465 -221 465 -199 q 447 -290 465 -258 q 397 -345 429 -321 q 327 -384 366 -369 z "},"Ȑ":{"ha":734,"x_min":75,"x_max":738,"o":"m 79 0 l 76 43 l 157 64 q 158 92 157 73 q 159 135 159 110 q 159 191 159 160 q 160 256 160 222 l 160 538 q 159 645 160 604 q 158 708 159 686 q 156 735 157 730 l 75 753 l 77 796 l 347 796 q 526 747 461 796 q 590 605 590 697 q 555 486 590 538 q 456 405 519 434 q 312 376 393 376 l 222 376 l 222 429 l 312 429 q 453 471 404 429 q 502 590 502 513 q 459 705 502 666 q 335 745 416 745 l 244 745 q 242 739 243 742 q 241 723 241 736 q 241 672 241 709 q 241 563 241 635 l 241 256 q 242 149 241 186 q 244 94 243 111 q 247 64 245 76 l 328 43 l 326 0 l 79 0 m 690 -12 q 599 9 639 -12 q 517 84 559 31 q 419 231 476 137 l 319 399 l 397 416 l 537 205 q 611 106 579 141 q 673 54 643 71 q 738 33 703 38 l 736 -8 q 714 -12 727 -11 q 690 -12 701 -12 m 403 868 l 290 1029 l 373 1047 l 435 882 l 403 868 m 251 868 l 138 1029 l 221 1047 l 283 882 l 251 868 z "},"Ṛ":{"ha":734,"x_min":75,"x_max":738,"o":"m 79 0 l 76 43 l 157 64 q 158 92 157 73 q 159 135 159 110 q 159 191 159 160 q 160 256 160 222 l 160 538 q 159 645 160 604 q 158 708 159 686 q 156 735 157 730 l 75 753 l 77 796 l 347 796 q 526 747 461 796 q 590 605 590 697 q 555 486 590 538 q 456 405 519 434 q 312 376 393 376 l 222 376 l 222 429 l 312 429 q 453 471 404 429 q 502 590 502 513 q 459 705 502 666 q 335 745 416 745 l 244 745 q 242 739 243 742 q 241 723 241 736 q 241 672 241 709 q 241 563 241 635 l 241 256 q 242 149 241 186 q 244 94 243 111 q 247 64 245 76 l 328 43 l 326 0 l 79 0 m 690 -12 q 599 9 639 -12 q 517 84 559 31 q 419 231 476 137 l 319 399 l 397 416 l 537 205 q 611 106 579 141 q 673 54 643 71 q 738 33 703 38 l 736 -8 q 714 -12 727 -11 q 690 -12 701 -12 m 410 -263 q 369 -248 388 -263 q 350 -208 350 -233 q 369 -166 350 -182 q 410 -151 388 -151 q 449 -166 431 -151 q 467 -208 467 -182 q 449 -248 467 -233 q 410 -263 431 -263 z "},"Ȓ":{"ha":734,"x_min":75,"x_max":738,"o":"m 79 0 l 76 43 l 157 64 q 158 92 157 73 q 159 135 159 110 q 159 191 159 160 q 160 256 160 222 l 160 538 q 159 645 160 604 q 158 708 159 686 q 156 735 157 730 l 75 753 l 77 796 l 347 796 q 526 747 461 796 q 590 605 590 697 q 555 486 590 538 q 456 405 519 434 q 312 376 393 376 l 222 376 l 222 429 l 312 429 q 453 471 404 429 q 502 590 502 513 q 459 705 502 666 q 335 745 416 745 l 244 745 q 242 739 243 742 q 241 723 241 736 q 241 672 241 709 q 241 563 241 635 l 241 256 q 242 149 241 186 q 244 94 243 111 q 247 64 245 76 l 328 43 l 326 0 l 79 0 m 690 -12 q 599 9 639 -12 q 517 84 559 31 q 419 231 476 137 l 319 399 l 397 416 l 537 205 q 611 106 579 141 q 673 54 643 71 q 738 33 703 38 l 736 -8 q 714 -12 727 -11 q 690 -12 701 -12 m 171 868 l 132 883 q 201 1004 145 962 q 342 1047 256 1047 q 484 1004 426 1047 q 555 883 541 962 l 510 868 q 455 947 499 918 q 343 977 411 977 q 227 947 271 977 q 171 868 182 918 z "},"Ṟ":{"ha":734,"x_min":75,"x_max":738,"o":"m 79 0 l 76 43 l 157 64 q 158 92 157 73 q 159 135 159 110 q 159 191 159 160 q 160 256 160 222 l 160 538 q 159 645 160 604 q 158 708 159 686 q 156 735 157 730 l 75 753 l 77 796 l 347 796 q 526 747 461 796 q 590 605 590 697 q 555 486 590 538 q 456 405 519 434 q 312 376 393 376 l 222 376 l 222 429 l 312 429 q 453 471 404 429 q 502 590 502 513 q 459 705 502 666 q 335 745 416 745 l 244 745 q 242 739 243 742 q 241 723 241 736 q 241 672 241 709 q 241 563 241 635 l 241 256 q 242 149 241 186 q 244 94 243 111 q 247 64 245 76 l 328 43 l 326 0 l 79 0 m 690 -12 q 599 9 639 -12 q 517 84 559 31 q 419 231 476 137 l 319 399 l 397 416 l 537 205 q 611 106 579 141 q 673 54 643 71 q 738 33 703 38 l 736 -8 q 714 -12 727 -11 q 690 -12 701 -12 m 221 -176 l 595 -176 l 595 -239 l 221 -239 l 221 -176 z "},"S":{"ha":632,"x_min":77,"x_max":571,"o":"m 301 -12 q 181 2 241 -12 q 85 37 121 16 l 77 199 l 122 205 l 156 94 q 232 59 191 72 q 323 46 273 46 q 437 81 392 46 q 481 179 481 117 q 452 260 481 228 q 378 318 423 293 q 281 367 332 343 q 185 420 231 391 q 111 492 140 450 q 81 597 81 534 q 116 707 81 659 q 211 783 151 755 q 349 810 271 810 q 418 806 387 810 q 475 796 449 803 q 524 780 502 789 l 532 625 l 487 620 l 452 724 q 334 754 410 754 q 214 718 259 754 q 170 624 170 681 q 199 538 170 574 q 273 477 228 503 q 370 428 319 452 q 467 375 422 404 q 542 305 513 346 q 571 205 571 264 q 536 94 571 142 q 439 16 500 45 q 301 -12 378 -12 z "},"Ś":{"ha":632,"x_min":77,"x_max":571,"o":"m 301 -12 q 181 2 241 -12 q 85 37 121 16 l 77 199 l 122 205 l 156 94 q 232 59 191 72 q 323 46 273 46 q 437 81 392 46 q 481 179 481 117 q 452 260 481 228 q 378 318 423 293 q 281 367 332 343 q 185 420 231 391 q 111 492 140 450 q 81 597 81 534 q 116 707 81 659 q 211 783 151 755 q 349 810 271 810 q 418 806 387 810 q 475 796 449 803 q 524 780 502 789 l 532 625 l 487 620 l 452 724 q 334 754 410 754 q 214 718 259 754 q 170 624 170 681 q 199 538 170 574 q 273 477 228 503 q 370 428 319 452 q 467 375 422 404 q 542 305 513 346 q 571 205 571 264 q 536 94 571 142 q 439 16 500 45 q 301 -12 378 -12 m 340 872 l 297 887 l 380 1063 l 463 1032 l 340 872 z "},"Ṥ":{"ha":632,"x_min":77,"x_max":571,"o":"m 301 -12 q 181 2 241 -12 q 85 37 121 16 l 77 199 l 122 205 l 156 94 q 232 59 191 72 q 323 46 273 46 q 437 81 392 46 q 481 179 481 117 q 452 260 481 228 q 378 318 423 293 q 281 367 332 343 q 185 420 231 391 q 111 492 140 450 q 81 597 81 534 q 116 707 81 659 q 211 783 151 755 q 349 810 271 810 q 418 806 387 810 q 475 796 449 803 q 524 780 502 789 l 532 625 l 487 620 l 452 724 q 334 754 410 754 q 214 718 259 754 q 170 624 170 681 q 199 538 170 574 q 273 477 228 503 q 370 428 319 452 q 467 375 422 404 q 542 305 513 346 q 571 205 571 264 q 536 94 571 142 q 439 16 500 45 q 301 -12 378 -12 m 340 872 l 297 887 l 380 1063 l 463 1032 l 340 872 m 320 1207 q 279 1223 298 1207 q 260 1264 260 1238 q 279 1305 260 1289 q 320 1321 298 1321 q 359 1305 342 1321 q 377 1264 377 1289 q 359 1223 377 1238 q 320 1207 342 1207 z "},"Š":{"ha":632,"x_min":77,"x_max":571,"o":"m 301 -12 q 181 2 241 -12 q 85 37 121 16 l 77 199 l 122 205 l 156 94 q 232 59 191 72 q 323 46 273 46 q 437 81 392 46 q 481 179 481 117 q 452 260 481 228 q 378 318 423 293 q 281 367 332 343 q 185 420 231 391 q 111 492 140 450 q 81 597 81 534 q 116 707 81 659 q 211 783 151 755 q 349 810 271 810 q 418 806 387 810 q 475 796 449 803 q 524 780 502 789 l 532 625 l 487 620 l 452 724 q 334 754 410 754 q 214 718 259 754 q 170 624 170 681 q 199 538 170 574 q 273 477 228 503 q 370 428 319 452 q 467 375 422 404 q 542 305 513 346 q 571 205 571 264 q 536 94 571 142 q 439 16 500 45 q 301 -12 378 -12 m 102 1027 l 140 1055 l 358 926 l 279 926 l 498 1055 l 536 1027 l 358 878 l 279 878 l 102 1027 z "},"Ṧ":{"ha":632,"x_min":77,"x_max":571,"o":"m 301 -12 q 181 2 241 -12 q 85 37 121 16 l 77 199 l 122 205 l 156 94 q 232 59 191 72 q 323 46 273 46 q 437 81 392 46 q 481 179 481 117 q 452 260 481 228 q 378 318 423 293 q 281 367 332 343 q 185 420 231 391 q 111 492 140 450 q 81 597 81 534 q 116 707 81 659 q 211 783 151 755 q 349 810 271 810 q 418 806 387 810 q 475 796 449 803 q 524 780 502 789 l 532 625 l 487 620 l 452 724 q 334 754 410 754 q 214 718 259 754 q 170 624 170 681 q 199 538 170 574 q 273 477 228 503 q 370 428 319 452 q 467 375 422 404 q 542 305 513 346 q 571 205 571 264 q 536 94 571 142 q 439 16 500 45 q 301 -12 378 -12 m 320 1108 q 279 1124 297 1108 q 260 1166 260 1139 q 279 1208 260 1192 q 320 1225 297 1225 q 360 1208 343 1225 q 377 1166 377 1192 q 360 1124 377 1139 q 320 1108 343 1108 m 102 1027 l 140 1055 l 358 926 l 279 926 l 498 1055 l 536 1027 l 358 878 l 279 878 l 102 1027 z "},"Ş":{"ha":632,"x_min":77,"x_max":571,"o":"m 301 -12 q 181 2 241 -12 q 85 37 121 16 l 77 199 l 122 205 l 156 94 q 232 59 191 72 q 323 46 273 46 q 437 81 392 46 q 481 179 481 117 q 452 260 481 228 q 378 318 423 293 q 281 367 332 343 q 185 420 231 391 q 111 492 140 450 q 81 597 81 534 q 116 707 81 659 q 211 783 151 755 q 349 810 271 810 q 418 806 387 810 q 475 796 449 803 q 524 780 502 789 l 532 625 l 487 620 l 452 724 q 334 754 410 754 q 214 718 259 754 q 170 624 170 681 q 199 538 170 574 q 273 477 228 503 q 370 428 319 452 q 467 375 422 404 q 542 305 513 346 q 571 205 571 264 q 536 94 571 142 q 439 16 500 45 q 301 -12 378 -12 m 282 -302 q 220 -294 251 -302 q 163 -270 190 -285 l 187 -220 q 237 -243 210 -233 q 293 -252 263 -252 q 340 -239 320 -252 q 359 -198 359 -225 q 332 -155 359 -171 q 254 -145 304 -138 l 233 -119 l 312 18 l 376 18 l 281 -118 l 292 -75 q 398 -102 357 -75 q 439 -180 439 -130 q 395 -267 439 -232 q 282 -302 350 -302 z "},"Ŝ":{"ha":632,"x_min":77,"x_max":571,"o":"m 301 -12 q 181 2 241 -12 q 85 37 121 16 l 77 199 l 122 205 l 156 94 q 232 59 191 72 q 323 46 273 46 q 437 81 392 46 q 481 179 481 117 q 452 260 481 228 q 378 318 423 293 q 281 367 332 343 q 185 420 231 391 q 111 492 140 450 q 81 597 81 534 q 116 707 81 659 q 211 783 151 755 q 349 810 271 810 q 418 806 387 810 q 475 796 449 803 q 524 780 502 789 l 532 625 l 487 620 l 452 724 q 334 754 410 754 q 214 718 259 754 q 170 624 170 681 q 199 538 170 574 q 273 477 228 503 q 370 428 319 452 q 467 375 422 404 q 542 305 513 346 q 571 205 571 264 q 536 94 571 142 q 439 16 500 45 q 301 -12 378 -12 m 536 897 l 498 868 l 279 997 l 358 997 l 140 868 l 102 897 l 279 1044 l 358 1044 l 536 897 z "},"Ș":{"ha":632,"x_min":77,"x_max":571,"o":"m 301 -12 q 181 2 241 -12 q 85 37 121 16 l 77 199 l 122 205 l 156 94 q 232 59 191 72 q 323 46 273 46 q 437 81 392 46 q 481 179 481 117 q 452 260 481 228 q 378 318 423 293 q 281 367 332 343 q 185 420 231 391 q 111 492 140 450 q 81 597 81 534 q 116 707 81 659 q 211 783 151 755 q 349 810 271 810 q 418 806 387 810 q 475 796 449 803 q 524 780 502 789 l 532 625 l 487 620 l 452 724 q 334 754 410 754 q 214 718 259 754 q 170 624 170 681 q 199 538 170 574 q 273 477 228 503 q 370 428 319 452 q 467 375 422 404 q 542 305 513 346 q 571 205 571 264 q 536 94 571 142 q 439 16 500 45 q 301 -12 378 -12 m 237 -384 l 222 -354 q 283 -319 259 -342 q 308 -274 308 -297 q 301 -248 308 -258 q 285 -232 294 -239 q 269 -215 275 -225 q 262 -187 262 -205 q 276 -155 262 -168 q 309 -142 290 -142 q 347 -153 332 -142 q 368 -182 361 -164 q 376 -221 376 -199 q 357 -290 376 -258 q 308 -345 339 -321 q 237 -384 277 -369 z "},"Ṡ":{"ha":632,"x_min":77,"x_max":571,"o":"m 301 -12 q 181 2 241 -12 q 85 37 121 16 l 77 199 l 122 205 l 156 94 q 232 59 191 72 q 323 46 273 46 q 437 81 392 46 q 481 179 481 117 q 452 260 481 228 q 378 318 423 293 q 281 367 332 343 q 185 420 231 391 q 111 492 140 450 q 81 597 81 534 q 116 707 81 659 q 211 783 151 755 q 349 810 271 810 q 418 806 387 810 q 475 796 449 803 q 524 780 502 789 l 532 625 l 487 620 l 452 724 q 334 754 410 754 q 214 718 259 754 q 170 624 170 681 q 199 538 170 574 q 273 477 228 503 q 370 428 319 452 q 467 375 422 404 q 542 305 513 346 q 571 205 571 264 q 536 94 571 142 q 439 16 500 45 q 301 -12 378 -12 m 320 906 q 279 922 298 906 q 260 963 260 937 q 279 1004 260 987 q 320 1020 298 1020 q 359 1004 342 1020 q 377 963 377 987 q 359 922 377 937 q 320 906 342 906 z "},"Ṣ":{"ha":632,"x_min":77,"x_max":571,"o":"m 301 -12 q 181 2 241 -12 q 85 37 121 16 l 77 199 l 122 205 l 156 94 q 232 59 191 72 q 323 46 273 46 q 437 81 392 46 q 481 179 481 117 q 452 260 481 228 q 378 318 423 293 q 281 367 332 343 q 185 420 231 391 q 111 492 140 450 q 81 597 81 534 q 116 707 81 659 q 211 783 151 755 q 349 810 271 810 q 418 806 387 810 q 475 796 449 803 q 524 780 502 789 l 532 625 l 487 620 l 452 724 q 334 754 410 754 q 214 718 259 754 q 170 624 170 681 q 199 538 170 574 q 273 477 228 503 q 370 428 319 452 q 467 375 422 404 q 542 305 513 346 q 571 205 571 264 q 536 94 571 142 q 439 16 500 45 q 301 -12 378 -12 m 320 -263 q 279 -248 298 -263 q 260 -208 260 -233 q 279 -166 260 -182 q 320 -151 298 -151 q 359 -166 342 -151 q 377 -208 377 -182 q 359 -248 377 -233 q 320 -263 342 -263 z "},"Ṩ":{"ha":632,"x_min":77,"x_max":571,"o":"m 301 -12 q 181 2 241 -12 q 85 37 121 16 l 77 199 l 122 205 l 156 94 q 232 59 191 72 q 323 46 273 46 q 437 81 392 46 q 481 179 481 117 q 452 260 481 228 q 378 318 423 293 q 281 367 332 343 q 185 420 231 391 q 111 492 140 450 q 81 597 81 534 q 116 707 81 659 q 211 783 151 755 q 349 810 271 810 q 418 806 387 810 q 475 796 449 803 q 524 780 502 789 l 532 625 l 487 620 l 452 724 q 334 754 410 754 q 214 718 259 754 q 170 624 170 681 q 199 538 170 574 q 273 477 228 503 q 370 428 319 452 q 467 375 422 404 q 542 305 513 346 q 571 205 571 264 q 536 94 571 142 q 439 16 500 45 q 301 -12 378 -12 m 320 -263 q 279 -248 298 -263 q 260 -208 260 -233 q 279 -166 260 -182 q 320 -151 298 -151 q 359 -166 342 -151 q 377 -208 377 -182 q 359 -248 377 -233 q 320 -263 342 -263 m 320 906 q 279 922 298 906 q 260 963 260 937 q 279 1004 260 987 q 320 1020 298 1020 q 359 1004 342 1020 q 377 963 377 987 q 359 922 377 937 q 320 906 342 906 z "},"ẞ":{"ha":911,"x_min":54,"x_max":848,"o":"m 57 0 l 54 43 l 136 61 q 140 125 138 73 q 142 256 142 178 l 141 486 q 176 661 141 589 q 273 772 210 734 q 423 810 336 810 q 572 766 511 810 q 663 636 633 723 l 595 636 q 532 724 578 693 q 423 754 487 754 q 277 696 330 754 q 224 521 224 639 l 225 256 q 227 113 225 157 q 232 61 228 69 l 313 43 l 311 0 l 57 0 m 613 -12 q 534 -5 572 -12 q 464 12 496 1 q 407 37 431 23 l 406 202 l 454 208 l 479 90 q 551 56 511 68 q 629 45 591 45 q 700 58 671 45 q 743 96 728 72 q 758 151 758 121 q 733 219 758 193 q 669 264 708 245 q 585 301 629 283 q 500 341 540 319 q 436 398 461 363 q 411 484 411 433 q 439 575 411 534 q 521 640 467 616 q 654 663 575 663 q 710 661 684 663 q 760 654 736 658 q 804 643 784 650 l 811 507 l 766 502 l 739 597 q 696 609 719 606 q 647 612 674 612 q 536 581 572 612 q 499 509 499 551 q 524 440 499 467 q 589 394 549 414 q 673 357 629 374 q 758 317 718 339 q 823 260 798 294 q 848 175 848 227 q 819 75 848 117 q 738 10 791 33 q 613 -12 685 -12 z "},"Ə":{"ha":875,"x_min":80,"x_max":800,"o":"m 425 808 q 578 781 509 808 q 696 701 647 753 q 773 577 746 648 q 800 418 800 506 q 774 242 800 321 q 698 106 747 163 q 581 18 648 49 q 433 -12 514 -12 q 244 34 323 -11 q 123 161 165 79 q 80 354 80 243 l 80 382 l 713 382 l 713 315 l 174 315 l 199 327 l 199 290 q 263 113 199 179 q 441 47 327 47 q 629 125 560 47 q 699 336 699 203 l 699 357 q 616 616 699 522 q 395 709 533 709 q 245 676 312 709 q 129 582 178 643 l 85 613 q 168 713 115 669 q 288 783 221 757 q 425 808 354 808 z "},"T":{"ha":722,"x_min":23,"x_max":697,"o":"m 667 802 l 697 591 l 648 585 l 590 736 q 568 740 582 739 q 545 741 555 741 l 495 741 q 454 741 481 741 q 404 739 427 741 q 404 689 404 728 q 403 600 403 650 q 403 505 403 549 l 403 294 q 404 140 403 203 q 406 61 406 76 l 518 46 l 515 0 l 206 0 l 203 46 l 316 61 q 317 140 316 76 q 319 294 319 203 l 319 505 q 319 600 319 549 q 319 689 319 650 q 317 739 319 728 q 269 741 296 741 q 227 741 241 741 l 172 741 q 151 740 163 741 q 132 736 140 739 l 72 583 l 23 591 l 53 802 q 82 799 69 800 q 106 797 95 798 q 130 796 118 796 q 156 796 141 796 l 564 796 q 591 796 579 796 q 613 797 602 796 q 637 799 624 798 q 667 802 650 800 z "},"Ŧ":{"ha":722,"x_min":23,"x_max":697,"o":"m 667 802 l 697 591 l 648 585 l 590 736 q 568 740 582 739 q 545 741 555 741 l 495 741 q 454 741 481 741 q 404 739 427 741 q 404 689 404 728 q 403 600 403 650 q 403 505 403 549 l 403 294 q 404 140 403 203 q 406 61 406 76 l 518 46 l 515 0 l 206 0 l 203 46 l 316 61 q 317 140 316 76 q 319 294 319 203 l 319 505 q 319 600 319 549 q 319 689 319 650 q 317 739 319 728 q 269 741 296 741 q 227 741 241 741 l 172 741 q 151 740 163 741 q 132 736 140 739 l 72 583 l 23 591 l 53 802 q 82 799 69 800 q 106 797 95 798 q 130 796 118 796 q 156 796 141 796 l 564 796 q 591 796 579 796 q 613 797 602 796 q 637 799 624 798 q 667 802 650 800 m 156 382 l 156 439 l 566 439 l 566 382 l 156 382 z "},"Ť":{"ha":722,"x_min":23,"x_max":697,"o":"m 667 802 l 697 591 l 648 585 l 590 736 q 568 740 582 739 q 545 741 555 741 l 495 741 q 454 741 481 741 q 404 739 427 741 q 404 689 404 728 q 403 600 403 650 q 403 505 403 549 l 403 294 q 404 140 403 203 q 406 61 406 76 l 518 46 l 515 0 l 206 0 l 203 46 l 316 61 q 317 140 316 76 q 319 294 319 203 l 319 505 q 319 600 319 549 q 319 689 319 650 q 317 739 319 728 q 269 741 296 741 q 227 741 241 741 l 172 741 q 151 740 163 741 q 132 736 140 739 l 72 583 l 23 591 l 53 802 q 82 799 69 800 q 106 797 95 798 q 130 796 118 796 q 156 796 141 796 l 564 796 q 591 796 579 796 q 613 797 602 796 q 637 799 624 798 q 667 802 650 800 m 144 1027 l 182 1055 l 400 926 l 321 926 l 540 1055 l 578 1027 l 400 878 l 321 878 l 144 1027 z "},"Ţ":{"ha":722,"x_min":23,"x_max":697,"o":"m 667 802 l 697 591 l 648 585 l 590 736 q 568 740 582 739 q 545 741 555 741 l 495 741 q 454 741 481 741 q 404 739 427 741 q 404 689 404 728 q 403 600 403 650 q 403 505 403 549 l 403 294 q 404 140 403 203 q 406 61 406 76 l 518 46 l 515 0 l 206 0 l 203 46 l 316 61 q 317 140 316 76 q 319 294 319 203 l 319 505 q 319 600 319 549 q 319 689 319 650 q 317 739 319 728 q 269 741 296 741 q 227 741 241 741 l 172 741 q 151 740 163 741 q 132 736 140 739 l 72 583 l 23 591 l 53 802 q 82 799 69 800 q 106 797 95 798 q 130 796 118 796 q 156 796 141 796 l 564 796 q 591 796 579 796 q 613 797 602 796 q 637 799 624 798 q 667 802 650 800 m 326 -302 q 264 -294 294 -302 q 206 -270 233 -285 l 231 -220 q 280 -243 254 -233 q 336 -252 307 -252 q 383 -239 363 -252 q 403 -198 403 -225 q 375 -155 403 -171 q 297 -145 347 -138 l 277 -119 l 355 18 l 419 18 l 324 -118 l 335 -75 q 441 -102 400 -75 q 483 -180 483 -130 q 438 -267 483 -232 q 326 -302 393 -302 z "},"Ț":{"ha":722,"x_min":23,"x_max":697,"o":"m 667 802 l 697 591 l 648 585 l 590 736 q 568 740 582 739 q 545 741 555 741 l 495 741 q 454 741 481 741 q 404 739 427 741 q 404 689 404 728 q 403 600 403 650 q 403 505 403 549 l 403 294 q 404 140 403 203 q 406 61 406 76 l 518 46 l 515 0 l 206 0 l 203 46 l 316 61 q 317 140 316 76 q 319 294 319 203 l 319 505 q 319 600 319 549 q 319 689 319 650 q 317 739 319 728 q 269 741 296 741 q 227 741 241 741 l 172 741 q 151 740 163 741 q 132 736 140 739 l 72 583 l 23 591 l 53 802 q 82 799 69 800 q 106 797 95 798 q 130 796 118 796 q 156 796 141 796 l 564 796 q 591 796 579 796 q 613 797 602 796 q 637 799 624 798 q 667 802 650 800 m 281 -384 l 266 -354 q 327 -319 302 -342 q 351 -274 351 -297 q 345 -248 351 -258 q 328 -232 338 -239 q 312 -215 319 -225 q 305 -187 305 -205 q 319 -155 305 -168 q 353 -142 334 -142 q 390 -153 376 -142 q 412 -182 404 -164 q 419 -221 419 -199 q 401 -290 419 -258 q 351 -345 382 -321 q 281 -384 320 -369 z "},"Ṭ":{"ha":722,"x_min":23,"x_max":697,"o":"m 667 802 l 697 591 l 648 585 l 590 736 q 568 740 582 739 q 545 741 555 741 l 495 741 q 454 741 481 741 q 404 739 427 741 q 404 689 404 728 q 403 600 403 650 q 403 505 403 549 l 403 294 q 404 140 403 203 q 406 61 406 76 l 518 46 l 515 0 l 206 0 l 203 46 l 316 61 q 317 140 316 76 q 319 294 319 203 l 319 505 q 319 600 319 549 q 319 689 319 650 q 317 739 319 728 q 269 741 296 741 q 227 741 241 741 l 172 741 q 151 740 163 741 q 132 736 140 739 l 72 583 l 23 591 l 53 802 q 82 799 69 800 q 106 797 95 798 q 130 796 118 796 q 156 796 141 796 l 564 796 q 591 796 579 796 q 613 797 602 796 q 637 799 624 798 q 667 802 650 800 m 363 -263 q 323 -248 342 -263 q 304 -208 304 -233 q 323 -166 304 -182 q 363 -151 342 -151 q 403 -166 385 -151 q 420 -208 420 -182 q 403 -248 420 -233 q 363 -263 385 -263 z "},"Ṯ":{"ha":722,"x_min":23,"x_max":697,"o":"m 667 802 l 697 591 l 648 585 l 590 736 q 568 740 582 739 q 545 741 555 741 l 495 741 q 454 741 481 741 q 404 739 427 741 q 404 689 404 728 q 403 600 403 650 q 403 505 403 549 l 403 294 q 404 140 403 203 q 406 61 406 76 l 518 46 l 515 0 l 206 0 l 203 46 l 316 61 q 317 140 316 76 q 319 294 319 203 l 319 505 q 319 600 319 549 q 319 689 319 650 q 317 739 319 728 q 269 741 296 741 q 227 741 241 741 l 172 741 q 151 740 163 741 q 132 736 140 739 l 72 583 l 23 591 l 53 802 q 82 799 69 800 q 106 797 95 798 q 130 796 118 796 q 156 796 141 796 l 564 796 q 591 796 579 796 q 613 797 602 796 q 637 799 624 798 q 667 802 650 800 m 175 -176 l 549 -176 l 549 -239 l 175 -239 l 175 -176 z "},"U":{"ha":880,"x_min":68,"x_max":811,"o":"m 71 796 l 323 796 l 326 753 l 244 734 q 243 718 244 732 q 241 663 241 704 q 240 538 240 623 l 240 297 q 270 157 241 209 q 348 82 298 104 q 458 60 397 60 q 562 83 517 60 q 634 162 608 107 q 661 309 661 217 l 661 514 q 660 614 661 570 q 658 690 659 659 q 654 734 656 722 l 559 753 l 562 796 l 807 796 l 811 753 l 730 734 q 729 713 730 730 q 728 652 728 697 q 727 514 727 606 l 727 311 q 690 123 727 194 q 589 20 652 52 q 450 -12 526 -12 q 234 66 313 -12 q 155 283 155 144 l 155 538 q 153 661 155 621 q 151 715 152 701 q 149 734 151 730 l 68 753 l 71 796 z "},"Ú":{"ha":880,"x_min":68,"x_max":811,"o":"m 71 796 l 323 796 l 326 753 l 244 734 q 243 718 244 732 q 241 663 241 704 q 240 538 240 623 l 240 297 q 270 157 241 209 q 348 82 298 104 q 458 60 397 60 q 562 83 517 60 q 634 162 608 107 q 661 309 661 217 l 661 514 q 660 614 661 570 q 658 690 659 659 q 654 734 656 722 l 559 753 l 562 796 l 807 796 l 811 753 l 730 734 q 729 713 730 730 q 728 652 728 697 q 727 514 727 606 l 727 311 q 690 123 727 194 q 589 20 652 52 q 450 -12 526 -12 q 234 66 313 -12 q 155 283 155 144 l 155 538 q 153 661 155 621 q 151 715 152 701 q 149 734 151 730 l 68 753 l 71 796 m 473 872 l 430 887 l 513 1063 l 595 1032 l 473 872 z "},"Ŭ":{"ha":880,"x_min":68,"x_max":811,"o":"m 71 796 l 323 796 l 326 753 l 244 734 q 243 718 244 732 q 241 663 241 704 q 240 538 240 623 l 240 297 q 270 157 241 209 q 348 82 298 104 q 458 60 397 60 q 562 83 517 60 q 634 162 608 107 q 661 309 661 217 l 661 514 q 660 614 661 570 q 658 690 659 659 q 654 734 656 722 l 559 753 l 562 796 l 807 796 l 811 753 l 730 734 q 729 713 730 730 q 728 652 728 697 q 727 514 727 606 l 727 311 q 690 123 727 194 q 589 20 652 52 q 450 -12 526 -12 q 234 66 313 -12 q 155 283 155 144 l 155 538 q 153 661 155 621 q 151 715 152 701 q 149 734 151 730 l 68 753 l 71 796 m 624 1055 l 663 1040 q 594 919 650 962 q 453 876 538 876 q 311 919 369 876 q 240 1040 254 962 l 285 1055 q 340 976 296 1005 q 452 947 385 947 q 568 976 524 947 q 624 1055 613 1005 z "},"Û":{"ha":880,"x_min":68,"x_max":811,"o":"m 71 796 l 323 796 l 326 753 l 244 734 q 243 718 244 732 q 241 663 241 704 q 240 538 240 623 l 240 297 q 270 157 241 209 q 348 82 298 104 q 458 60 397 60 q 562 83 517 60 q 634 162 608 107 q 661 309 661 217 l 661 514 q 660 614 661 570 q 658 690 659 659 q 654 734 656 722 l 559 753 l 562 796 l 807 796 l 811 753 l 730 734 q 729 713 730 730 q 728 652 728 697 q 727 514 727 606 l 727 311 q 690 123 727 194 q 589 20 652 52 q 450 -12 526 -12 q 234 66 313 -12 q 155 283 155 144 l 155 538 q 153 661 155 621 q 151 715 152 701 q 149 734 151 730 l 68 753 l 71 796 m 669 897 l 631 868 l 412 997 l 491 997 l 273 868 l 235 897 l 412 1044 l 491 1044 l 669 897 z "},"Ȕ":{"ha":880,"x_min":68,"x_max":811,"o":"m 71 796 l 323 796 l 326 753 l 244 734 q 243 718 244 732 q 241 663 241 704 q 240 538 240 623 l 240 297 q 270 157 241 209 q 348 82 298 104 q 458 60 397 60 q 562 83 517 60 q 634 162 608 107 q 661 309 661 217 l 661 514 q 660 614 661 570 q 658 690 659 659 q 654 734 656 722 l 559 753 l 562 796 l 807 796 l 811 753 l 730 734 q 729 713 730 730 q 728 652 728 697 q 727 514 727 606 l 727 311 q 690 123 727 194 q 589 20 652 52 q 450 -12 526 -12 q 234 66 313 -12 q 155 283 155 144 l 155 538 q 153 661 155 621 q 151 715 152 701 q 149 734 151 730 l 68 753 l 71 796 m 511 868 l 399 1029 l 481 1047 l 544 882 l 511 868 m 359 868 l 247 1029 l 330 1047 l 392 882 l 359 868 z "},"Ü":{"ha":880,"x_min":68,"x_max":811,"o":"m 71 796 l 323 796 l 326 753 l 244 734 q 243 718 244 732 q 241 663 241 704 q 240 538 240 623 l 240 297 q 270 157 241 209 q 348 82 298 104 q 458 60 397 60 q 562 83 517 60 q 634 162 608 107 q 661 309 661 217 l 661 514 q 660 614 661 570 q 658 690 659 659 q 654 734 656 722 l 559 753 l 562 796 l 807 796 l 811 753 l 730 734 q 729 713 730 730 q 728 652 728 697 q 727 514 727 606 l 727 311 q 690 123 727 194 q 589 20 652 52 q 450 -12 526 -12 q 234 66 313 -12 q 155 283 155 144 l 155 538 q 153 661 155 621 q 151 715 152 701 q 149 734 151 730 l 68 753 l 71 796 m 327 906 q 286 922 304 906 q 269 963 269 937 q 286 1004 269 989 q 327 1020 304 1020 q 366 1004 350 1020 q 382 963 382 989 q 366 922 382 937 q 327 906 350 906 m 579 906 q 538 922 556 906 q 521 963 521 937 q 538 1004 521 989 q 579 1020 556 1020 q 618 1004 602 1020 q 635 963 635 989 q 618 922 635 937 q 579 906 602 906 z "},"Ụ":{"ha":880,"x_min":68,"x_max":811,"o":"m 71 796 l 323 796 l 326 753 l 244 734 q 243 718 244 732 q 241 663 241 704 q 240 538 240 623 l 240 297 q 270 157 241 209 q 348 82 298 104 q 458 60 397 60 q 562 83 517 60 q 634 162 608 107 q 661 309 661 217 l 661 514 q 660 614 661 570 q 658 690 659 659 q 654 734 656 722 l 559 753 l 562 796 l 807 796 l 811 753 l 730 734 q 729 713 730 730 q 728 652 728 697 q 727 514 727 606 l 727 311 q 690 123 727 194 q 589 20 652 52 q 450 -12 526 -12 q 234 66 313 -12 q 155 283 155 144 l 155 538 q 153 661 155 621 q 151 715 152 701 q 149 734 151 730 l 68 753 l 71 796 m 452 -263 q 411 -248 430 -263 q 392 -208 392 -233 q 411 -166 392 -182 q 452 -151 430 -151 q 491 -166 473 -151 q 509 -208 509 -182 q 491 -248 509 -233 q 452 -263 473 -263 z "},"Ù":{"ha":880,"x_min":68,"x_max":811,"o":"m 71 796 l 323 796 l 326 753 l 244 734 q 243 718 244 732 q 241 663 241 704 q 240 538 240 623 l 240 297 q 270 157 241 209 q 348 82 298 104 q 458 60 397 60 q 562 83 517 60 q 634 162 608 107 q 661 309 661 217 l 661 514 q 660 614 661 570 q 658 690 659 659 q 654 734 656 722 l 559 753 l 562 796 l 807 796 l 811 753 l 730 734 q 729 713 730 730 q 728 652 728 697 q 727 514 727 606 l 727 311 q 690 123 727 194 q 589 20 652 52 q 450 -12 526 -12 q 234 66 313 -12 q 155 283 155 144 l 155 538 q 153 661 155 621 q 151 715 152 701 q 149 734 151 730 l 68 753 l 71 796 m 430 872 l 308 1032 l 391 1063 l 473 887 l 430 872 z "},"Ủ":{"ha":880,"x_min":68,"x_max":811,"o":"m 71 796 l 323 796 l 326 753 l 244 734 q 243 718 244 732 q 241 663 241 704 q 240 538 240 623 l 240 297 q 270 157 241 209 q 348 82 298 104 q 458 60 397 60 q 562 83 517 60 q 634 162 608 107 q 661 309 661 217 l 661 514 q 660 614 661 570 q 658 690 659 659 q 654 734 656 722 l 559 753 l 562 796 l 807 796 l 811 753 l 730 734 q 729 713 730 730 q 728 652 728 697 q 727 514 727 606 l 727 311 q 690 123 727 194 q 589 20 652 52 q 450 -12 526 -12 q 234 66 313 -12 q 155 283 155 144 l 155 538 q 153 661 155 621 q 151 715 152 701 q 149 734 151 730 l 68 753 l 71 796 m 457 1123 q 541 1101 509 1123 q 574 1040 574 1080 q 558 989 574 1006 q 522 961 543 972 q 486 933 502 949 q 471 884 471 917 l 434 884 l 434 907 q 450 970 434 947 q 481 1009 465 993 q 496 1044 496 1025 q 472 1088 496 1082 q 418 1088 448 1095 l 463 1096 l 419 1055 q 393 1033 401 1039 q 370 1027 385 1027 q 348 1036 357 1027 q 339 1059 339 1046 q 372 1103 339 1084 q 457 1123 404 1123 z "},"Ư":{"ha":880,"x_min":68,"x_max":925,"o":"m 450 -12 q 233 66 312 -12 q 155 283 155 145 l 155 538 q 153 661 155 621 q 151 715 152 701 q 149 734 151 730 l 68 753 l 71 796 l 323 796 l 326 753 l 244 734 q 243 718 244 732 q 241 663 241 704 q 240 538 240 623 l 240 297 q 458 60 244 60 q 661 309 661 60 l 661 514 q 660 620 661 575 q 658 693 659 665 q 654 734 656 722 l 559 753 l 562 796 l 692 796 q 770 803 745 796 q 806 831 796 810 q 817 897 815 853 l 819 960 q 896 950 867 971 q 925 884 925 929 q 869 780 925 822 q 724 735 812 738 l 735 760 q 728 648 730 704 q 727 514 727 593 l 727 311 q 695 136 727 208 q 602 26 663 64 q 450 -12 540 -12 z "},"Ứ":{"ha":880,"x_min":68,"x_max":925,"o":"m 450 -12 q 233 66 312 -12 q 155 283 155 145 l 155 538 q 153 661 155 621 q 151 715 152 701 q 149 734 151 730 l 68 753 l 71 796 l 323 796 l 326 753 l 244 734 q 243 718 244 732 q 241 663 241 704 q 240 538 240 623 l 240 297 q 458 60 244 60 q 661 309 661 60 l 661 514 q 660 620 661 575 q 658 693 659 665 q 654 734 656 722 l 559 753 l 562 796 l 692 796 q 770 803 745 796 q 806 831 796 810 q 817 897 815 853 l 819 960 q 896 950 867 971 q 925 884 925 929 q 869 780 925 822 q 724 735 812 738 l 735 760 q 728 648 730 704 q 727 514 727 593 l 727 311 q 695 136 727 208 q 602 26 663 64 q 450 -12 540 -12 m 473 872 l 430 887 l 513 1063 l 595 1032 l 473 872 z "},"Ự":{"ha":880,"x_min":68,"x_max":925,"o":"m 450 -12 q 233 66 312 -12 q 155 283 155 145 l 155 538 q 153 661 155 621 q 151 715 152 701 q 149 734 151 730 l 68 753 l 71 796 l 323 796 l 326 753 l 244 734 q 243 718 244 732 q 241 663 241 704 q 240 538 240 623 l 240 297 q 458 60 244 60 q 661 309 661 60 l 661 514 q 660 620 661 575 q 658 693 659 665 q 654 734 656 722 l 559 753 l 562 796 l 692 796 q 770 803 745 796 q 806 831 796 810 q 817 897 815 853 l 819 960 q 896 950 867 971 q 925 884 925 929 q 869 780 925 822 q 724 735 812 738 l 735 760 q 728 648 730 704 q 727 514 727 593 l 727 311 q 695 136 727 208 q 602 26 663 64 q 450 -12 540 -12 m 452 -263 q 411 -248 430 -263 q 392 -208 392 -233 q 411 -166 392 -182 q 452 -151 430 -151 q 491 -166 473 -151 q 509 -208 509 -182 q 491 -248 509 -233 q 452 -263 473 -263 z "},"Ừ":{"ha":880,"x_min":68,"x_max":925,"o":"m 450 -12 q 233 66 312 -12 q 155 283 155 145 l 155 538 q 153 661 155 621 q 151 715 152 701 q 149 734 151 730 l 68 753 l 71 796 l 323 796 l 326 753 l 244 734 q 243 718 244 732 q 241 663 241 704 q 240 538 240 623 l 240 297 q 458 60 244 60 q 661 309 661 60 l 661 514 q 660 620 661 575 q 658 693 659 665 q 654 734 656 722 l 559 753 l 562 796 l 692 796 q 770 803 745 796 q 806 831 796 810 q 817 897 815 853 l 819 960 q 896 950 867 971 q 925 884 925 929 q 869 780 925 822 q 724 735 812 738 l 735 760 q 728 648 730 704 q 727 514 727 593 l 727 311 q 695 136 727 208 q 602 26 663 64 q 450 -12 540 -12 m 430 872 l 308 1032 l 391 1063 l 473 887 l 430 872 z "},"Ử":{"ha":880,"x_min":68,"x_max":925,"o":"m 450 -12 q 233 66 312 -12 q 155 283 155 145 l 155 538 q 153 661 155 621 q 151 715 152 701 q 149 734 151 730 l 68 753 l 71 796 l 323 796 l 326 753 l 244 734 q 243 718 244 732 q 241 663 241 704 q 240 538 240 623 l 240 297 q 458 60 244 60 q 661 309 661 60 l 661 514 q 660 620 661 575 q 658 693 659 665 q 654 734 656 722 l 559 753 l 562 796 l 692 796 q 770 803 745 796 q 806 831 796 810 q 817 897 815 853 l 819 960 q 896 950 867 971 q 925 884 925 929 q 869 780 925 822 q 724 735 812 738 l 735 760 q 728 648 730 704 q 727 514 727 593 l 727 311 q 695 136 727 208 q 602 26 663 64 q 450 -12 540 -12 m 457 1123 q 541 1101 509 1123 q 574 1040 574 1080 q 558 989 574 1006 q 522 961 543 972 q 486 933 502 949 q 471 884 471 917 l 434 884 l 434 907 q 450 970 434 947 q 481 1009 465 993 q 496 1044 496 1025 q 472 1088 496 1082 q 418 1088 448 1095 l 463 1096 l 419 1055 q 393 1033 401 1039 q 370 1027 385 1027 q 348 1036 357 1027 q 339 1059 339 1046 q 372 1103 339 1084 q 457 1123 404 1123 z "},"Ữ":{"ha":880,"x_min":68,"x_max":925,"o":"m 450 -12 q 233 66 312 -12 q 155 283 155 145 l 155 538 q 153 661 155 621 q 151 715 152 701 q 149 734 151 730 l 68 753 l 71 796 l 323 796 l 326 753 l 244 734 q 243 718 244 732 q 241 663 241 704 q 240 538 240 623 l 240 297 q 458 60 244 60 q 661 309 661 60 l 661 514 q 660 620 661 575 q 658 693 659 665 q 654 734 656 722 l 559 753 l 562 796 l 692 796 q 770 803 745 796 q 806 831 796 810 q 817 897 815 853 l 819 960 q 896 950 867 971 q 925 884 925 929 q 869 780 925 822 q 724 735 812 738 l 735 760 q 728 648 730 704 q 727 514 727 593 l 727 311 q 695 136 727 208 q 602 26 663 64 q 450 -12 540 -12 m 677 1027 l 713 1008 q 650 918 690 952 q 559 883 610 883 q 478 903 518 883 q 400 944 438 924 q 327 964 362 964 q 268 945 289 964 q 227 895 247 926 l 190 914 q 254 1004 213 970 q 345 1038 294 1038 q 426 1018 387 1038 q 504 978 465 998 q 579 958 543 958 q 635 977 614 958 q 677 1027 656 997 z "},"Ű":{"ha":880,"x_min":68,"x_max":811,"o":"m 71 796 l 323 796 l 326 753 l 244 734 q 243 718 244 732 q 241 663 241 704 q 240 538 240 623 l 240 297 q 270 157 241 209 q 348 82 298 104 q 458 60 397 60 q 562 83 517 60 q 634 162 608 107 q 661 309 661 217 l 661 514 q 660 614 661 570 q 658 690 659 659 q 654 734 656 722 l 559 753 l 562 796 l 807 796 l 811 753 l 730 734 q 729 713 730 730 q 728 652 728 697 q 727 514 727 606 l 727 311 q 690 123 727 194 q 589 20 652 52 q 450 -12 526 -12 q 234 66 313 -12 q 155 283 155 144 l 155 538 q 153 661 155 621 q 151 715 152 701 q 149 734 151 730 l 68 753 l 71 796 m 544 868 l 511 882 l 574 1047 l 656 1029 l 544 868 m 392 868 l 359 882 l 422 1047 l 505 1029 l 392 868 z "},"Ȗ":{"ha":880,"x_min":68,"x_max":811,"o":"m 71 796 l 323 796 l 326 753 l 244 734 q 243 718 244 732 q 241 663 241 704 q 240 538 240 623 l 240 297 q 270 157 241 209 q 348 82 298 104 q 458 60 397 60 q 562 83 517 60 q 634 162 608 107 q 661 309 661 217 l 661 514 q 660 614 661 570 q 658 690 659 659 q 654 734 656 722 l 559 753 l 562 796 l 807 796 l 811 753 l 730 734 q 729 713 730 730 q 728 652 728 697 q 727 514 727 606 l 727 311 q 690 123 727 194 q 589 20 652 52 q 450 -12 526 -12 q 234 66 313 -12 q 155 283 155 144 l 155 538 q 153 661 155 621 q 151 715 152 701 q 149 734 151 730 l 68 753 l 71 796 m 279 868 l 240 883 q 309 1004 254 962 q 450 1047 365 1047 q 592 1004 534 1047 q 663 883 650 962 l 618 868 q 564 947 608 918 q 452 977 519 977 q 335 947 380 977 q 279 868 290 918 z "},"Ū":{"ha":880,"x_min":68,"x_max":811,"o":"m 71 796 l 323 796 l 326 753 l 244 734 q 243 718 244 732 q 241 663 241 704 q 240 538 240 623 l 240 297 q 270 157 241 209 q 348 82 298 104 q 458 60 397 60 q 562 83 517 60 q 634 162 608 107 q 661 309 661 217 l 661 514 q 660 614 661 570 q 658 690 659 659 q 654 734 656 722 l 559 753 l 562 796 l 807 796 l 811 753 l 730 734 q 729 713 730 730 q 728 652 728 697 q 727 514 727 606 l 727 311 q 690 123 727 194 q 589 20 652 52 q 450 -12 526 -12 q 234 66 313 -12 q 155 283 155 144 l 155 538 q 153 661 155 621 q 151 715 152 701 q 149 734 151 730 l 68 753 l 71 796 m 264 993 l 639 993 l 639 929 l 264 929 l 264 993 z "},"Ṻ":{"ha":880,"x_min":68,"x_max":811,"o":"m 71 796 l 323 796 l 326 753 l 244 734 q 243 718 244 732 q 241 663 241 704 q 240 538 240 623 l 240 297 q 270 157 241 209 q 348 82 298 104 q 458 60 397 60 q 562 83 517 60 q 634 162 608 107 q 661 309 661 217 l 661 514 q 660 614 661 570 q 658 690 659 659 q 654 734 656 722 l 559 753 l 562 796 l 807 796 l 811 753 l 730 734 q 729 713 730 730 q 728 652 728 697 q 727 514 727 606 l 727 311 q 690 123 727 194 q 589 20 652 52 q 450 -12 526 -12 q 234 66 313 -12 q 155 283 155 144 l 155 538 q 153 661 155 621 q 151 715 152 701 q 149 734 151 730 l 68 753 l 71 796 m 243 943 l 243 1006 l 661 1006 l 661 943 l 243 943 m 327 1225 q 366 1210 350 1225 q 382 1168 382 1195 q 366 1126 382 1142 q 327 1111 350 1111 q 286 1126 304 1111 q 269 1168 269 1142 q 286 1210 269 1195 q 327 1225 304 1225 m 579 1225 q 618 1210 602 1225 q 635 1168 635 1195 q 618 1126 635 1142 q 579 1111 602 1111 q 538 1126 556 1111 q 521 1168 521 1142 q 538 1210 521 1195 q 579 1225 556 1225 z "},"Ų":{"ha":880,"x_min":68,"x_max":812,"o":"m 808 796 l 812 753 l 730 734 q 729 701 730 730 q 728 625 728 673 q 727 514 727 576 l 727 311 q 687 121 727 198 q 572 12 647 43 q 463 -66 506 -15 q 420 -171 420 -118 q 443 -231 420 -209 q 503 -254 465 -254 q 597 -206 549 -254 l 624 -235 q 487 -302 567 -302 q 412 -288 445 -302 q 361 -246 380 -273 q 343 -186 343 -220 q 390 -71 343 -123 q 529 20 437 -19 l 490 -12 l 450 -12 q 233 66 312 -12 q 155 283 155 145 l 155 538 q 153 661 155 621 q 151 715 152 701 q 149 734 151 730 l 68 753 l 71 796 l 323 796 l 326 753 l 244 734 q 243 718 244 732 q 241 663 241 704 q 240 538 240 623 l 240 297 q 458 60 244 60 q 661 309 661 60 l 661 514 q 660 614 661 570 q 658 690 659 659 q 654 734 656 722 l 559 753 l 562 796 l 808 796 z "},"Ů":{"ha":880,"x_min":68,"x_max":811,"o":"m 71 796 l 323 796 l 326 753 l 244 734 q 243 718 244 732 q 241 663 241 704 q 240 538 240 623 l 240 297 q 270 157 241 209 q 348 82 298 104 q 458 60 397 60 q 562 83 517 60 q 634 162 608 107 q 661 309 661 217 l 661 514 q 660 614 661 570 q 658 690 659 659 q 654 734 656 722 l 559 753 l 562 796 l 807 796 l 811 753 l 730 734 q 729 713 730 730 q 728 652 728 697 q 727 514 727 606 l 727 311 q 690 123 727 194 q 589 20 652 52 q 450 -12 526 -12 q 234 66 313 -12 q 155 283 155 144 l 155 538 q 153 661 155 621 q 151 715 152 701 q 149 734 151 730 l 68 753 l 71 796 m 453 879 q 361 915 399 879 q 324 1002 324 951 q 361 1090 324 1054 q 453 1126 399 1126 q 543 1090 507 1126 q 579 1002 579 1055 q 543 915 579 951 q 453 879 506 879 m 454 917 q 512 941 490 917 q 534 1004 534 964 q 512 1067 534 1043 q 454 1090 490 1090 q 395 1067 419 1090 q 372 1004 372 1043 q 395 942 372 967 q 454 917 419 917 z "},"Ũ":{"ha":880,"x_min":68,"x_max":811,"o":"m 71 796 l 323 796 l 326 753 l 244 734 q 243 718 244 732 q 241 663 241 704 q 240 538 240 623 l 240 297 q 270 157 241 209 q 348 82 298 104 q 458 60 397 60 q 562 83 517 60 q 634 162 608 107 q 661 309 661 217 l 661 514 q 660 614 661 570 q 658 690 659 659 q 654 734 656 722 l 559 753 l 562 796 l 807 796 l 811 753 l 730 734 q 729 713 730 730 q 728 652 728 697 q 727 514 727 606 l 727 311 q 690 123 727 194 q 589 20 652 52 q 450 -12 526 -12 q 234 66 313 -12 q 155 283 155 144 l 155 538 q 153 661 155 621 q 151 715 152 701 q 149 734 151 730 l 68 753 l 71 796 m 677 1027 l 713 1008 q 650 918 690 952 q 559 883 610 883 q 478 903 518 883 q 400 944 438 924 q 327 964 362 964 q 268 945 289 964 q 227 895 247 926 l 190 914 q 254 1004 213 970 q 345 1038 294 1038 q 426 1018 387 1038 q 504 978 465 998 q 579 958 543 958 q 635 977 614 958 q 677 1027 656 997 z "},"Ṹ":{"ha":880,"x_min":68,"x_max":811,"o":"m 71 796 l 323 796 l 326 753 l 244 734 q 243 718 244 732 q 241 663 241 704 q 240 538 240 623 l 240 297 q 270 157 241 209 q 348 82 298 104 q 458 60 397 60 q 562 83 517 60 q 634 162 608 107 q 661 309 661 217 l 661 514 q 660 614 661 570 q 658 690 659 659 q 654 734 656 722 l 559 753 l 562 796 l 807 796 l 811 753 l 730 734 q 729 713 730 730 q 728 652 728 697 q 727 514 727 606 l 727 311 q 690 123 727 194 q 589 20 652 52 q 450 -12 526 -12 q 234 66 313 -12 q 155 283 155 144 l 155 538 q 153 661 155 621 q 151 715 152 701 q 149 734 151 730 l 68 753 l 71 796 m 472 1040 l 431 1054 l 521 1225 l 606 1194 l 472 1040 m 544 875 q 477 891 510 875 q 412 924 444 907 q 351 940 381 940 q 303 923 320 940 q 270 875 286 906 l 229 895 q 281 985 248 951 q 357 1019 315 1019 q 424 1003 391 1019 q 488 971 457 987 q 549 955 519 955 q 595 972 578 955 q 629 1020 613 989 l 670 998 q 618 909 651 943 q 544 875 585 875 z "},"V":{"ha":779,"x_min":8,"x_max":772,"o":"m 363 -4 l 76 735 l 8 751 l 11 796 l 255 796 l 258 753 l 176 735 l 414 113 l 400 113 l 625 735 l 530 753 l 533 796 l 769 796 l 772 751 l 704 735 l 412 -4 l 363 -4 z "},"W":{"ha":1255,"x_min":16,"x_max":1244,"o":"m 656 627 l 408 -4 l 357 -4 l 84 735 l 16 753 l 19 796 l 245 796 l 248 753 l 180 736 l 406 113 l 397 113 l 627 731 l 656 627 m 840 -4 l 574 735 l 506 753 l 509 796 l 746 796 l 749 753 l 669 736 l 888 113 l 876 113 l 1097 735 l 1001 753 l 1004 796 l 1241 796 l 1244 753 l 1176 735 l 891 -4 l 840 -4 z "},"Ẃ":{"ha":1255,"x_min":16,"x_max":1244,"o":"m 656 627 l 408 -4 l 357 -4 l 84 735 l 16 753 l 19 796 l 245 796 l 248 753 l 180 736 l 406 113 l 397 113 l 627 731 l 656 627 m 840 -4 l 574 735 l 506 753 l 509 796 l 746 796 l 749 753 l 669 736 l 888 113 l 876 113 l 1097 735 l 1001 753 l 1004 796 l 1241 796 l 1244 753 l 1176 735 l 891 -4 l 840 -4 m 648 872 l 605 887 l 688 1063 l 770 1032 l 648 872 z "},"Ŵ":{"ha":1255,"x_min":16,"x_max":1244,"o":"m 656 627 l 408 -4 l 357 -4 l 84 735 l 16 753 l 19 796 l 245 796 l 248 753 l 180 736 l 406 113 l 397 113 l 627 731 l 656 627 m 840 -4 l 574 735 l 506 753 l 509 796 l 746 796 l 749 753 l 669 736 l 888 113 l 876 113 l 1097 735 l 1001 753 l 1004 796 l 1241 796 l 1244 753 l 1176 735 l 891 -4 l 840 -4 m 844 897 l 806 868 l 587 997 l 666 997 l 448 868 l 410 897 l 587 1044 l 666 1044 l 844 897 z "},"Ẅ":{"ha":1255,"x_min":16,"x_max":1244,"o":"m 656 627 l 408 -4 l 357 -4 l 84 735 l 16 753 l 19 796 l 245 796 l 248 753 l 180 736 l 406 113 l 397 113 l 627 731 l 656 627 m 840 -4 l 574 735 l 506 753 l 509 796 l 746 796 l 749 753 l 669 736 l 888 113 l 876 113 l 1097 735 l 1001 753 l 1004 796 l 1241 796 l 1244 753 l 1176 735 l 891 -4 l 840 -4 m 502 906 q 461 922 479 906 q 444 963 444 937 q 461 1004 444 989 q 502 1020 479 1020 q 541 1004 525 1020 q 557 963 557 989 q 541 922 557 937 q 502 906 525 906 m 754 906 q 713 922 731 906 q 696 963 696 937 q 713 1004 696 989 q 754 1020 731 1020 q 793 1004 777 1020 q 810 963 810 989 q 793 922 810 937 q 754 906 777 906 z "},"Ẁ":{"ha":1255,"x_min":16,"x_max":1244,"o":"m 656 627 l 408 -4 l 357 -4 l 84 735 l 16 753 l 19 796 l 245 796 l 248 753 l 180 736 l 406 113 l 397 113 l 627 731 l 656 627 m 840 -4 l 574 735 l 506 753 l 509 796 l 746 796 l 749 753 l 669 736 l 888 113 l 876 113 l 1097 735 l 1001 753 l 1004 796 l 1241 796 l 1244 753 l 1176 735 l 891 -4 l 840 -4 m 605 872 l 483 1032 l 566 1063 l 648 887 l 605 872 z "},"X":{"ha":776,"x_min":19,"x_max":768,"o":"m 765 0 l 509 0 l 506 43 l 587 64 l 376 357 l 339 406 l 98 735 l 28 753 l 31 796 l 300 796 l 301 753 l 212 735 l 393 481 l 430 433 l 700 64 l 768 43 l 765 0 m 576 735 l 469 753 l 472 796 l 720 796 l 723 753 l 654 735 l 430 433 l 376 357 l 164 64 l 263 43 l 260 0 l 20 0 l 19 43 l 88 64 l 339 406 l 393 481 l 576 735 z "},"Y":{"ha":708,"x_min":-3,"x_max":713,"o":"m 646 735 l 373 319 l 395 389 l 395 264 q 395 162 395 201 q 397 103 396 123 q 398 74 397 83 q 399 61 399 65 l 494 45 l 491 0 l 216 0 l 213 45 l 308 61 q 309 74 308 65 q 311 103 311 83 q 313 162 312 123 q 313 264 313 201 l 313 389 l 332 319 l 65 735 l -3 753 l -1 796 l 244 796 l 247 753 l 165 735 l 378 403 l 366 403 l 567 735 l 472 753 l 475 796 l 712 796 l 713 753 l 646 735 z "},"Ý":{"ha":708,"x_min":-3,"x_max":713,"o":"m 646 735 l 373 319 l 395 389 l 395 264 q 395 162 395 201 q 397 103 396 123 q 398 74 397 83 q 399 61 399 65 l 494 45 l 491 0 l 216 0 l 213 45 l 308 61 q 309 74 308 65 q 311 103 311 83 q 313 162 312 123 q 313 264 313 201 l 313 389 l 332 319 l 65 735 l -3 753 l -1 796 l 244 796 l 247 753 l 165 735 l 378 403 l 366 403 l 567 735 l 472 753 l 475 796 l 712 796 l 713 753 l 646 735 m 376 872 l 332 887 l 415 1063 l 498 1032 l 376 872 z "},"Ŷ":{"ha":708,"x_min":-3,"x_max":713,"o":"m 646 735 l 373 319 l 395 389 l 395 264 q 395 162 395 201 q 397 103 396 123 q 398 74 397 83 q 399 61 399 65 l 494 45 l 491 0 l 216 0 l 213 45 l 308 61 q 309 74 308 65 q 311 103 311 83 q 313 162 312 123 q 313 264 313 201 l 313 389 l 332 319 l 65 735 l -3 753 l -1 796 l 244 796 l 247 753 l 165 735 l 378 403 l 366 403 l 567 735 l 472 753 l 475 796 l 712 796 l 713 753 l 646 735 m 571 897 l 533 868 l 315 997 l 393 997 l 175 868 l 137 897 l 315 1044 l 393 1044 l 571 897 z "},"Ÿ":{"ha":708,"x_min":-3,"x_max":713,"o":"m 646 735 l 373 319 l 395 389 l 395 264 q 395 162 395 201 q 397 103 396 123 q 398 74 397 83 q 399 61 399 65 l 494 45 l 491 0 l 216 0 l 213 45 l 308 61 q 309 74 308 65 q 311 103 311 83 q 313 162 312 123 q 313 264 313 201 l 313 389 l 332 319 l 65 735 l -3 753 l -1 796 l 244 796 l 247 753 l 165 735 l 378 403 l 366 403 l 567 735 l 472 753 l 475 796 l 712 796 l 713 753 l 646 735 m 229 906 q 189 922 206 906 q 171 963 171 937 q 189 1004 171 989 q 229 1020 206 1020 q 269 1004 252 1020 q 285 963 285 989 q 269 922 285 937 q 229 906 252 906 m 481 906 q 441 922 458 906 q 423 963 423 937 q 441 1004 423 989 q 481 1020 458 1020 q 521 1004 505 1020 q 537 963 537 989 q 521 922 537 937 q 481 906 505 906 z "},"Ẏ":{"ha":708,"x_min":-3,"x_max":713,"o":"m 646 735 l 373 319 l 395 389 l 395 264 q 395 162 395 201 q 397 103 396 123 q 398 74 397 83 q 399 61 399 65 l 494 45 l 491 0 l 216 0 l 213 45 l 308 61 q 309 74 308 65 q 311 103 311 83 q 313 162 312 123 q 313 264 313 201 l 313 389 l 332 319 l 65 735 l -3 753 l -1 796 l 244 796 l 247 753 l 165 735 l 378 403 l 366 403 l 567 735 l 472 753 l 475 796 l 712 796 l 713 753 l 646 735 m 355 906 q 315 922 334 906 q 296 963 296 937 q 315 1004 296 987 q 355 1020 334 1020 q 395 1004 377 1020 q 412 963 412 987 q 395 922 412 937 q 355 906 377 906 z "},"Ỵ":{"ha":708,"x_min":-3,"x_max":713,"o":"m 646 735 l 373 319 l 395 389 l 395 264 q 395 162 395 201 q 397 103 396 123 q 398 74 397 83 q 399 61 399 65 l 494 45 l 491 0 l 216 0 l 213 45 l 308 61 q 309 74 308 65 q 311 103 311 83 q 313 162 312 123 q 313 264 313 201 l 313 389 l 332 319 l 65 735 l -3 753 l -1 796 l 244 796 l 247 753 l 165 735 l 378 403 l 366 403 l 567 735 l 472 753 l 475 796 l 712 796 l 713 753 l 646 735 m 355 -263 q 315 -248 334 -263 q 296 -208 296 -233 q 315 -166 296 -182 q 355 -151 334 -151 q 395 -166 377 -151 q 412 -208 412 -182 q 395 -248 412 -233 q 355 -263 377 -263 z "},"Ỳ":{"ha":708,"x_min":-3,"x_max":713,"o":"m 646 735 l 373 319 l 395 389 l 395 264 q 395 162 395 201 q 397 103 396 123 q 398 74 397 83 q 399 61 399 65 l 494 45 l 491 0 l 216 0 l 213 45 l 308 61 q 309 74 308 65 q 311 103 311 83 q 313 162 312 123 q 313 264 313 201 l 313 389 l 332 319 l 65 735 l -3 753 l -1 796 l 244 796 l 247 753 l 165 735 l 378 403 l 366 403 l 567 735 l 472 753 l 475 796 l 712 796 l 713 753 l 646 735 m 332 872 l 210 1032 l 293 1063 l 376 887 l 332 872 z "},"Ỷ":{"ha":708,"x_min":-3,"x_max":713,"o":"m 646 735 l 373 319 l 395 389 l 395 264 q 395 162 395 201 q 397 103 396 123 q 398 74 397 83 q 399 61 399 65 l 494 45 l 491 0 l 216 0 l 213 45 l 308 61 q 309 74 308 65 q 311 103 311 83 q 313 162 312 123 q 313 264 313 201 l 313 389 l 332 319 l 65 735 l -3 753 l -1 796 l 244 796 l 247 753 l 165 735 l 378 403 l 366 403 l 567 735 l 472 753 l 475 796 l 712 796 l 713 753 l 646 735 m 359 1123 q 444 1101 411 1123 q 476 1040 476 1080 q 460 989 476 1006 q 425 961 445 972 q 389 933 404 949 q 373 884 373 917 l 336 884 l 336 907 q 352 970 336 947 q 383 1009 368 993 q 399 1044 399 1025 q 374 1088 399 1082 q 320 1088 350 1095 l 365 1096 l 321 1055 q 296 1033 304 1039 q 273 1027 288 1027 q 250 1036 259 1027 q 241 1059 241 1046 q 274 1103 241 1084 q 359 1123 307 1123 z "},"Ȳ":{"ha":708,"x_min":-3,"x_max":713,"o":"m 646 735 l 373 319 l 395 389 l 395 264 q 395 162 395 201 q 397 103 396 123 q 398 74 397 83 q 399 61 399 65 l 494 45 l 491 0 l 216 0 l 213 45 l 308 61 q 309 74 308 65 q 311 103 311 83 q 313 162 312 123 q 313 264 313 201 l 313 389 l 332 319 l 65 735 l -3 753 l -1 796 l 244 796 l 247 753 l 165 735 l 378 403 l 366 403 l 567 735 l 472 753 l 475 796 l 712 796 l 713 753 l 646 735 m 167 993 l 541 993 l 541 929 l 167 929 l 167 993 z "},"Ỹ":{"ha":708,"x_min":-3,"x_max":713,"o":"m 646 735 l 373 319 l 395 389 l 395 264 q 395 162 395 201 q 397 103 396 123 q 398 74 397 83 q 399 61 399 65 l 494 45 l 491 0 l 216 0 l 213 45 l 308 61 q 309 74 308 65 q 311 103 311 83 q 313 162 312 123 q 313 264 313 201 l 313 389 l 332 319 l 65 735 l -3 753 l -1 796 l 244 796 l 247 753 l 165 735 l 378 403 l 366 403 l 567 735 l 472 753 l 475 796 l 712 796 l 713 753 l 646 735 m 579 1027 l 616 1008 q 553 918 593 952 q 461 883 513 883 q 380 903 420 883 q 302 944 340 924 q 229 964 264 964 q 170 945 191 964 q 129 895 149 926 l 92 914 q 156 1004 115 970 q 247 1038 197 1038 q 328 1018 289 1038 q 406 978 368 998 q 481 958 445 958 q 538 977 517 958 q 579 1027 559 997 z "},"Z":{"ha":713,"x_min":72,"x_max":675,"o":"m 647 -5 q 607 -2 624 -3 q 575 -1 590 -1 q 540 0 560 0 l 186 0 q 140 -1 160 0 q 95 -3 119 -1 l 95 37 l 547 776 l 552 738 l 212 738 q 168 737 187 738 q 133 734 149 736 l 118 598 l 73 598 l 72 798 q 125 796 102 796 q 175 796 149 796 l 538 796 q 589 797 564 796 q 640 799 614 798 l 640 761 l 187 19 l 187 61 l 529 61 q 553 62 541 61 q 574 65 566 64 l 632 213 l 675 209 l 647 -5 z "},"Ź":{"ha":713,"x_min":72,"x_max":675,"o":"m 647 -5 q 607 -2 624 -3 q 575 -1 590 -1 q 540 0 560 0 l 186 0 q 140 -1 160 0 q 95 -3 119 -1 l 95 37 l 547 776 l 552 738 l 212 738 q 168 737 187 738 q 133 734 149 736 l 118 598 l 73 598 l 72 798 q 125 796 102 796 q 175 796 149 796 l 538 796 q 589 797 564 796 q 640 799 614 798 l 640 761 l 187 19 l 187 61 l 529 61 q 553 62 541 61 q 574 65 566 64 l 632 213 l 675 209 l 647 -5 m 381 872 l 338 887 l 420 1063 l 503 1032 l 381 872 z "},"Ž":{"ha":713,"x_min":72,"x_max":675,"o":"m 647 -5 q 607 -2 624 -3 q 575 -1 590 -1 q 540 0 560 0 l 186 0 q 140 -1 160 0 q 95 -3 119 -1 l 95 37 l 547 776 l 552 738 l 212 738 q 168 737 187 738 q 133 734 149 736 l 118 598 l 73 598 l 72 798 q 125 796 102 796 q 175 796 149 796 l 538 796 q 589 797 564 796 q 640 799 614 798 l 640 761 l 187 19 l 187 61 l 529 61 q 553 62 541 61 q 574 65 566 64 l 632 213 l 675 209 l 647 -5 m 142 1027 l 180 1055 l 399 926 l 320 926 l 538 1055 l 576 1027 l 399 878 l 320 878 l 142 1027 z "},"Ż":{"ha":713,"x_min":72,"x_max":675,"o":"m 647 -5 q 607 -2 624 -3 q 575 -1 590 -1 q 540 0 560 0 l 186 0 q 140 -1 160 0 q 95 -3 119 -1 l 95 37 l 547 776 l 552 738 l 212 738 q 168 737 187 738 q 133 734 149 736 l 118 598 l 73 598 l 72 798 q 125 796 102 796 q 175 796 149 796 l 538 796 q 589 797 564 796 q 640 799 614 798 l 640 761 l 187 19 l 187 61 l 529 61 q 553 62 541 61 q 574 65 566 64 l 632 213 l 675 209 l 647 -5 m 361 906 q 320 922 339 906 q 301 963 301 937 q 320 1004 301 987 q 361 1020 339 1020 q 400 1004 382 1020 q 418 963 418 987 q 400 922 418 937 q 361 906 382 906 z "},"Ẓ":{"ha":713,"x_min":72,"x_max":675,"o":"m 647 -5 q 607 -2 624 -3 q 575 -1 590 -1 q 540 0 560 0 l 186 0 q 140 -1 160 0 q 95 -3 119 -1 l 95 37 l 547 776 l 552 738 l 212 738 q 168 737 187 738 q 133 734 149 736 l 118 598 l 73 598 l 72 798 q 125 796 102 796 q 175 796 149 796 l 538 796 q 589 797 564 796 q 640 799 614 798 l 640 761 l 187 19 l 187 61 l 529 61 q 553 62 541 61 q 574 65 566 64 l 632 213 l 675 209 l 647 -5 m 361 -263 q 320 -248 339 -263 q 301 -208 301 -233 q 320 -166 301 -182 q 361 -151 339 -151 q 400 -166 382 -151 q 418 -208 418 -182 q 400 -248 418 -233 q 361 -263 382 -263 z "},"a":{"ha":631,"x_min":95,"x_max":591,"o":"m 274 -11 q 184 8 225 -11 q 119 59 144 27 q 95 129 95 91 q 124 201 95 172 q 224 254 153 229 l 427 326 l 427 404 q 406 470 427 441 q 348 515 384 499 q 266 532 312 532 q 213 516 227 532 q 197 452 199 500 l 195 408 q 127 410 156 397 q 98 452 98 423 q 115 494 98 472 q 160 535 132 515 q 224 568 189 555 q 297 587 259 582 q 443 536 387 587 q 500 403 499 486 l 498 156 q 500 110 498 137 q 506 72 503 83 l 591 56 l 591 22 l 534 3 q 505 -7 518 -3 q 483 -11 491 -11 q 438 33 446 -11 l 429 81 l 445 85 q 358 12 399 35 q 274 -11 317 -11 m 294 49 q 365 66 332 49 q 427 121 397 84 l 427 269 l 245 216 q 199 188 213 206 q 184 141 184 170 q 218 77 184 106 q 294 49 252 49 z "},"á":{"ha":631,"x_min":95,"x_max":591,"o":"m 274 -11 q 184 8 225 -11 q 119 59 144 27 q 95 129 95 91 q 124 201 95 172 q 224 254 153 229 l 427 326 l 427 404 q 406 470 427 441 q 348 515 384 499 q 266 532 312 532 q 213 516 227 532 q 197 452 199 500 l 195 408 q 127 410 156 397 q 98 452 98 423 q 115 494 98 472 q 160 535 132 515 q 224 568 189 555 q 297 587 259 582 q 443 536 387 587 q 500 403 499 486 l 498 156 q 500 110 498 137 q 506 72 503 83 l 591 56 l 591 22 l 534 3 q 505 -7 518 -3 q 483 -11 491 -11 q 438 33 446 -11 l 429 81 l 445 85 q 358 12 399 35 q 274 -11 317 -11 m 294 49 q 365 66 332 49 q 427 121 397 84 l 427 269 l 245 216 q 199 188 213 206 q 184 141 184 170 q 218 77 184 106 q 294 49 252 49 m 327 654 l 286 667 l 420 918 l 505 887 l 327 654 z "},"ă":{"ha":631,"x_min":95,"x_max":591,"o":"m 274 -11 q 184 8 225 -11 q 119 59 144 27 q 95 129 95 91 q 124 201 95 172 q 224 254 153 229 l 427 326 l 427 404 q 406 470 427 441 q 348 515 384 499 q 266 532 312 532 q 213 516 227 532 q 197 452 199 500 l 195 408 q 127 410 156 397 q 98 452 98 423 q 115 494 98 472 q 160 535 132 515 q 224 568 189 555 q 297 587 259 582 q 443 536 387 587 q 500 403 499 486 l 498 156 q 500 110 498 137 q 506 72 503 83 l 591 56 l 591 22 l 534 3 q 505 -7 518 -3 q 483 -11 491 -11 q 438 33 446 -11 l 429 81 l 445 85 q 358 12 399 35 q 274 -11 317 -11 m 294 49 q 365 66 332 49 q 427 121 397 84 l 427 269 l 245 216 q 199 188 213 206 q 184 141 184 170 q 218 77 184 106 q 294 49 252 49 m 438 918 l 477 903 q 431 732 476 792 q 308 671 385 671 q 218 699 256 671 q 159 777 180 726 q 136 903 137 829 l 180 918 q 223 791 190 836 q 309 747 256 747 q 397 791 363 747 q 438 918 430 836 z "},"ắ":{"ha":631,"x_min":95,"x_max":591,"o":"m 274 -11 q 184 8 225 -11 q 119 59 144 27 q 95 129 95 91 q 124 201 95 172 q 224 254 153 229 l 427 326 l 427 404 q 406 470 427 441 q 348 515 384 499 q 266 532 312 532 q 213 516 227 532 q 197 452 199 500 l 195 408 q 127 410 156 397 q 98 452 98 423 q 115 494 98 472 q 160 535 132 515 q 224 568 189 555 q 297 587 259 582 q 443 536 387 587 q 500 403 499 486 l 498 156 q 500 110 498 137 q 506 72 503 83 l 591 56 l 591 22 l 534 3 q 505 -7 518 -3 q 483 -11 491 -11 q 438 33 446 -11 l 429 81 l 445 85 q 358 12 399 35 q 274 -11 317 -11 m 294 49 q 365 66 332 49 q 427 121 397 84 l 427 269 l 245 216 q 199 188 213 206 q 184 141 184 170 q 218 77 184 106 q 294 49 252 49 m 438 918 l 477 903 q 431 732 476 792 q 308 671 385 671 q 218 699 256 671 q 159 777 180 726 q 136 903 137 829 l 180 918 q 223 791 190 836 q 309 747 256 747 q 397 791 363 747 q 438 918 430 836 m 313 860 l 273 873 l 372 1072 l 456 1040 l 313 860 z "},"ặ":{"ha":631,"x_min":95,"x_max":591,"o":"m 274 -11 q 184 8 225 -11 q 119 59 144 27 q 95 129 95 91 q 124 201 95 172 q 224 254 153 229 l 427 326 l 427 404 q 406 470 427 441 q 348 515 384 499 q 266 532 312 532 q 213 516 227 532 q 197 452 199 500 l 195 408 q 127 410 156 397 q 98 452 98 423 q 115 494 98 472 q 160 535 132 515 q 224 568 189 555 q 297 587 259 582 q 443 536 387 587 q 500 403 499 486 l 498 156 q 500 110 498 137 q 506 72 503 83 l 591 56 l 591 22 l 534 3 q 505 -7 518 -3 q 483 -11 491 -11 q 438 33 446 -11 l 429 81 l 445 85 q 358 12 399 35 q 274 -11 317 -11 m 294 49 q 365 66 332 49 q 427 121 397 84 l 427 269 l 245 216 q 199 188 213 206 q 184 141 184 170 q 218 77 184 106 q 294 49 252 49 m 334 -263 q 293 -248 312 -263 q 274 -208 274 -233 q 293 -166 274 -182 q 334 -151 312 -151 q 373 -166 355 -151 q 391 -208 391 -182 q 373 -248 391 -233 q 334 -263 355 -263 m 438 918 l 477 903 q 431 732 476 792 q 308 671 385 671 q 218 699 256 671 q 159 777 180 726 q 136 903 137 829 l 180 918 q 223 791 190 836 q 309 747 256 747 q 397 791 363 747 q 438 918 430 836 z "},"ằ":{"ha":631,"x_min":95,"x_max":591,"o":"m 274 -11 q 184 8 225 -11 q 119 59 144 27 q 95 129 95 91 q 124 201 95 172 q 224 254 153 229 l 427 326 l 427 404 q 406 470 427 441 q 348 515 384 499 q 266 532 312 532 q 213 516 227 532 q 197 452 199 500 l 195 408 q 127 410 156 397 q 98 452 98 423 q 115 494 98 472 q 160 535 132 515 q 224 568 189 555 q 297 587 259 582 q 443 536 387 587 q 500 403 499 486 l 498 156 q 500 110 498 137 q 506 72 503 83 l 591 56 l 591 22 l 534 3 q 505 -7 518 -3 q 483 -11 491 -11 q 438 33 446 -11 l 429 81 l 445 85 q 358 12 399 35 q 274 -11 317 -11 m 294 49 q 365 66 332 49 q 427 121 397 84 l 427 269 l 245 216 q 199 188 213 206 q 184 141 184 170 q 218 77 184 106 q 294 49 252 49 m 438 918 l 477 903 q 431 732 476 792 q 308 671 385 671 q 218 699 256 671 q 159 777 180 726 q 136 903 137 829 l 180 918 q 223 791 190 836 q 309 747 256 747 q 397 791 363 747 q 438 918 430 836 m 312 860 l 168 1040 l 255 1072 l 355 873 l 312 860 z "},"ẳ":{"ha":631,"x_min":95,"x_max":591,"o":"m 274 -11 q 184 8 225 -11 q 119 59 144 27 q 95 129 95 91 q 124 201 95 172 q 224 254 153 229 l 427 326 l 427 404 q 406 470 427 441 q 348 515 384 499 q 266 532 312 532 q 213 516 227 532 q 197 452 199 500 l 195 408 q 127 410 156 397 q 98 452 98 423 q 115 494 98 472 q 160 535 132 515 q 224 568 189 555 q 297 587 259 582 q 443 536 387 587 q 500 403 499 486 l 498 156 q 500 110 498 137 q 506 72 503 83 l 591 56 l 591 22 l 534 3 q 505 -7 518 -3 q 483 -11 491 -11 q 438 33 446 -11 l 429 81 l 445 85 q 358 12 399 35 q 274 -11 317 -11 m 294 49 q 365 66 332 49 q 427 121 397 84 l 427 269 l 245 216 q 199 188 213 206 q 184 141 184 170 q 218 77 184 106 q 294 49 252 49 m 438 891 l 477 876 q 455 769 476 815 q 397 697 434 723 q 308 671 359 671 q 218 697 256 671 q 159 769 180 723 q 136 876 137 815 l 180 891 q 223 788 190 829 q 309 747 256 747 q 397 788 363 747 q 438 891 430 829 m 312 1072 q 396 1048 363 1072 q 429 986 429 1025 q 413 936 429 952 q 377 908 397 920 q 341 879 357 897 q 326 826 326 861 l 289 826 l 289 849 q 304 916 289 891 q 336 957 320 940 q 351 993 351 974 q 327 1037 351 1031 q 273 1036 302 1043 l 317 1043 l 274 1004 q 248 981 256 987 q 225 975 240 975 q 203 985 212 975 q 194 1008 194 994 q 227 1051 194 1031 q 312 1072 259 1072 z "},"ẵ":{"ha":631,"x_min":95,"x_max":591,"o":"m 274 -11 q 184 8 225 -11 q 119 59 144 27 q 95 129 95 91 q 124 201 95 172 q 224 254 153 229 l 427 326 l 427 404 q 406 470 427 441 q 348 515 384 499 q 266 532 312 532 q 213 516 227 532 q 197 452 199 500 l 195 408 q 127 410 156 397 q 98 452 98 423 q 115 494 98 472 q 160 535 132 515 q 224 568 189 555 q 297 587 259 582 q 443 536 387 587 q 500 403 499 486 l 498 156 q 500 110 498 137 q 506 72 503 83 l 591 56 l 591 22 l 534 3 q 505 -7 518 -3 q 483 -11 491 -11 q 438 33 446 -11 l 429 81 l 445 85 q 358 12 399 35 q 274 -11 317 -11 m 294 49 q 365 66 332 49 q 427 121 397 84 l 427 269 l 245 216 q 199 188 213 206 q 184 141 184 170 q 218 77 184 106 q 294 49 252 49 m 308 671 q 214 699 254 671 q 155 771 175 726 q 136 868 134 817 l 180 884 q 223 791 190 833 q 309 750 256 750 q 397 791 363 750 q 438 884 430 833 l 477 868 q 458 771 479 817 q 398 699 437 726 q 308 671 359 671 m 391 911 q 329 932 359 911 q 269 974 298 954 q 213 994 240 994 q 168 975 184 994 q 137 924 152 955 l 103 944 q 153 1036 122 1001 q 222 1072 183 1072 q 284 1051 254 1072 q 345 1010 315 1031 q 401 989 374 989 q 444 1009 427 989 q 476 1061 461 1029 l 510 1039 q 461 947 492 982 q 391 911 430 911 z "},"â":{"ha":631,"x_min":95,"x_max":591,"o":"m 274 -11 q 184 8 225 -11 q 119 59 144 27 q 95 129 95 91 q 124 201 95 172 q 224 254 153 229 l 427 326 l 427 404 q 406 470 427 441 q 348 515 384 499 q 266 532 312 532 q 213 516 227 532 q 197 452 199 500 l 195 408 q 127 410 156 397 q 98 452 98 423 q 115 494 98 472 q 160 535 132 515 q 224 568 189 555 q 297 587 259 582 q 443 536 387 587 q 500 403 499 486 l 498 156 q 500 110 498 137 q 506 72 503 83 l 591 56 l 591 22 l 534 3 q 505 -7 518 -3 q 483 -11 491 -11 q 438 33 446 -11 l 429 81 l 445 85 q 358 12 399 35 q 274 -11 317 -11 m 294 49 q 365 66 332 49 q 427 121 397 84 l 427 269 l 245 216 q 199 188 213 206 q 184 141 184 170 q 218 77 184 106 q 294 49 252 49 m 483 667 l 441 654 l 267 867 l 346 867 l 172 654 l 130 667 l 267 898 l 346 898 l 483 667 z "},"ấ":{"ha":631,"x_min":95,"x_max":591,"o":"m 274 -11 q 184 8 225 -11 q 119 59 144 27 q 95 129 95 91 q 124 201 95 172 q 224 254 153 229 l 427 326 l 427 404 q 406 470 427 441 q 348 515 384 499 q 266 532 312 532 q 213 516 227 532 q 197 452 199 500 l 195 408 q 127 410 156 397 q 98 452 98 423 q 115 494 98 472 q 160 535 132 515 q 224 568 189 555 q 297 587 259 582 q 443 536 387 587 q 500 403 499 486 l 498 156 q 500 110 498 137 q 506 72 503 83 l 591 56 l 591 22 l 534 3 q 505 -7 518 -3 q 483 -11 491 -11 q 438 33 446 -11 l 429 81 l 445 85 q 358 12 399 35 q 274 -11 317 -11 m 294 49 q 365 66 332 49 q 427 121 397 84 l 427 269 l 245 216 q 199 188 213 206 q 184 141 184 170 q 218 77 184 106 q 294 49 252 49 m 483 667 l 441 654 l 267 867 l 346 867 l 172 654 l 130 667 l 267 898 l 346 898 l 483 667 m 448 860 l 406 873 l 505 1072 l 589 1040 l 448 860 z "},"ậ":{"ha":631,"x_min":95,"x_max":591,"o":"m 274 -11 q 184 8 225 -11 q 119 59 144 27 q 95 129 95 91 q 124 201 95 172 q 224 254 153 229 l 427 326 l 427 404 q 406 470 427 441 q 348 515 384 499 q 266 532 312 532 q 213 516 227 532 q 197 452 199 500 l 195 408 q 127 410 156 397 q 98 452 98 423 q 115 494 98 472 q 160 535 132 515 q 224 568 189 555 q 297 587 259 582 q 443 536 387 587 q 500 403 499 486 l 498 156 q 500 110 498 137 q 506 72 503 83 l 591 56 l 591 22 l 534 3 q 505 -7 518 -3 q 483 -11 491 -11 q 438 33 446 -11 l 429 81 l 445 85 q 358 12 399 35 q 274 -11 317 -11 m 294 49 q 365 66 332 49 q 427 121 397 84 l 427 269 l 245 216 q 199 188 213 206 q 184 141 184 170 q 218 77 184 106 q 294 49 252 49 m 334 -263 q 293 -248 312 -263 q 274 -208 274 -233 q 293 -166 274 -182 q 334 -151 312 -151 q 373 -166 355 -151 q 391 -208 391 -182 q 373 -248 391 -233 q 334 -263 355 -263 m 483 667 l 441 654 l 267 867 l 346 867 l 172 654 l 130 667 l 267 898 l 346 898 l 483 667 z "},"ầ":{"ha":631,"x_min":95,"x_max":591,"o":"m 274 -11 q 184 8 225 -11 q 119 59 144 27 q 95 129 95 91 q 124 201 95 172 q 224 254 153 229 l 427 326 l 427 404 q 406 470 427 441 q 348 515 384 499 q 266 532 312 532 q 213 516 227 532 q 197 452 199 500 l 195 408 q 127 410 156 397 q 98 452 98 423 q 115 494 98 472 q 160 535 132 515 q 224 568 189 555 q 297 587 259 582 q 443 536 387 587 q 500 403 499 486 l 498 156 q 500 110 498 137 q 506 72 503 83 l 591 56 l 591 22 l 534 3 q 505 -7 518 -3 q 483 -11 491 -11 q 438 33 446 -11 l 429 81 l 445 85 q 358 12 399 35 q 274 -11 317 -11 m 294 49 q 365 66 332 49 q 427 121 397 84 l 427 269 l 245 216 q 199 188 213 206 q 184 141 184 170 q 218 77 184 106 q 294 49 252 49 m 483 667 l 441 654 l 267 867 l 346 867 l 172 654 l 130 667 l 267 898 l 346 898 l 483 667 m 460 860 l 316 1040 l 401 1072 l 503 873 l 460 860 z "},"ẩ":{"ha":631,"x_min":95,"x_max":591,"o":"m 274 -11 q 184 8 225 -11 q 119 59 144 27 q 95 129 95 91 q 124 201 95 172 q 224 254 153 229 l 427 326 l 427 404 q 406 470 427 441 q 348 515 384 499 q 266 532 312 532 q 213 516 227 532 q 197 452 199 500 l 195 408 q 127 410 156 397 q 98 452 98 423 q 115 494 98 472 q 160 535 132 515 q 224 568 189 555 q 297 587 259 582 q 443 536 387 587 q 500 403 499 486 l 498 156 q 500 110 498 137 q 506 72 503 83 l 591 56 l 591 22 l 534 3 q 505 -7 518 -3 q 483 -11 491 -11 q 438 33 446 -11 l 429 81 l 445 85 q 358 12 399 35 q 274 -11 317 -11 m 294 49 q 365 66 332 49 q 427 121 397 84 l 427 269 l 245 216 q 199 188 213 206 q 184 141 184 170 q 218 77 184 106 q 294 49 252 49 m 483 667 l 441 654 l 267 867 l 346 867 l 172 654 l 130 667 l 267 898 l 346 898 l 483 667 m 452 1072 q 536 1049 503 1072 q 570 989 570 1027 q 554 938 570 955 q 518 909 538 921 q 482 882 498 898 q 467 831 467 865 l 430 831 l 430 854 q 445 917 430 894 q 475 957 460 940 q 491 993 491 974 q 467 1037 491 1031 q 414 1036 442 1043 l 458 1043 l 415 1004 q 389 981 397 987 q 366 975 381 975 q 343 985 351 975 q 335 1008 335 994 q 367 1051 335 1031 q 452 1072 399 1072 z "},"ẫ":{"ha":631,"x_min":95,"x_max":591,"o":"m 274 -11 q 184 8 225 -11 q 119 59 144 27 q 95 129 95 91 q 124 201 95 172 q 224 254 153 229 l 427 326 l 427 404 q 406 470 427 441 q 348 515 384 499 q 266 532 312 532 q 213 516 227 532 q 197 452 199 500 l 195 408 q 127 410 156 397 q 98 452 98 423 q 115 494 98 472 q 160 535 132 515 q 224 568 189 555 q 297 587 259 582 q 443 536 387 587 q 500 403 499 486 l 498 156 q 500 110 498 137 q 506 72 503 83 l 591 56 l 591 22 l 534 3 q 505 -7 518 -3 q 483 -11 491 -11 q 438 33 446 -11 l 429 81 l 445 85 q 358 12 399 35 q 274 -11 317 -11 m 294 49 q 365 66 332 49 q 427 121 397 84 l 427 269 l 245 216 q 199 188 213 206 q 184 141 184 170 q 218 77 184 106 q 294 49 252 49 m 172 654 l 130 667 l 267 861 l 346 861 l 483 667 l 441 654 l 267 827 l 346 827 l 172 654 m 391 911 q 329 932 359 911 q 270 974 298 954 q 216 994 241 994 q 172 975 187 994 q 141 924 156 955 l 107 944 q 155 1036 126 1001 q 222 1072 184 1072 q 283 1051 254 1072 q 342 1010 313 1031 q 399 989 372 989 q 441 1009 425 989 q 472 1061 458 1029 l 506 1039 q 458 947 488 982 q 391 911 429 911 z "},"ȁ":{"ha":631,"x_min":62,"x_max":591,"o":"m 274 -11 q 184 8 225 -11 q 119 59 144 27 q 95 129 95 91 q 124 201 95 172 q 224 254 153 229 l 427 326 l 427 404 q 406 470 427 441 q 348 515 384 499 q 266 532 312 532 q 213 516 227 532 q 197 452 199 500 l 195 408 q 127 410 156 397 q 98 452 98 423 q 115 494 98 472 q 160 535 132 515 q 224 568 189 555 q 297 587 259 582 q 443 536 387 587 q 500 403 499 486 l 498 156 q 500 110 498 137 q 506 72 503 83 l 591 56 l 591 22 l 534 3 q 505 -7 518 -3 q 483 -11 491 -11 q 438 33 446 -11 l 429 81 l 445 85 q 358 12 399 35 q 274 -11 317 -11 m 294 49 q 365 66 332 49 q 427 121 397 84 l 427 269 l 245 216 q 199 188 213 206 q 184 141 184 170 q 218 77 184 106 q 294 49 252 49 m 373 654 l 228 901 l 311 918 l 406 667 l 373 654 m 208 654 l 62 901 l 145 918 l 240 667 l 208 654 z "},"ä":{"ha":631,"x_min":95,"x_max":591,"o":"m 274 -11 q 184 8 225 -11 q 119 59 144 27 q 95 129 95 91 q 124 201 95 172 q 224 254 153 229 l 427 326 l 427 404 q 406 470 427 441 q 348 515 384 499 q 266 532 312 532 q 213 516 227 532 q 197 452 199 500 l 195 408 q 127 410 156 397 q 98 452 98 423 q 115 494 98 472 q 160 535 132 515 q 224 568 189 555 q 297 587 259 582 q 443 536 387 587 q 500 403 499 486 l 498 156 q 500 110 498 137 q 506 72 503 83 l 591 56 l 591 22 l 534 3 q 505 -7 518 -3 q 483 -11 491 -11 q 438 33 446 -11 l 429 81 l 445 85 q 358 12 399 35 q 274 -11 317 -11 m 294 49 q 365 66 332 49 q 427 121 397 84 l 427 269 l 245 216 q 199 188 213 206 q 184 141 184 170 q 218 77 184 106 q 294 49 252 49 m 209 727 q 168 743 186 727 q 151 784 151 758 q 168 825 151 810 q 209 841 186 841 q 248 825 232 841 q 264 784 264 810 q 248 743 264 758 q 209 727 232 727 m 407 727 q 366 743 384 727 q 349 784 349 758 q 366 825 349 810 q 407 841 384 841 q 446 825 430 841 q 463 784 463 810 q 446 743 463 758 q 407 727 430 727 z "},"ȧ":{"ha":631,"x_min":95,"x_max":591,"o":"m 274 -11 q 184 8 225 -11 q 119 59 144 27 q 95 129 95 91 q 124 201 95 172 q 224 254 153 229 l 427 326 l 427 404 q 406 470 427 441 q 348 515 384 499 q 266 532 312 532 q 213 516 227 532 q 197 452 199 500 l 195 408 q 127 410 156 397 q 98 452 98 423 q 115 494 98 472 q 160 535 132 515 q 224 568 189 555 q 297 587 259 582 q 443 536 387 587 q 500 403 499 486 l 498 156 q 500 110 498 137 q 506 72 503 83 l 591 56 l 591 22 l 534 3 q 505 -7 518 -3 q 483 -11 491 -11 q 438 33 446 -11 l 429 81 l 445 85 q 358 12 399 35 q 274 -11 317 -11 m 294 49 q 365 66 332 49 q 427 121 397 84 l 427 269 l 245 216 q 199 188 213 206 q 184 141 184 170 q 218 77 184 106 q 294 49 252 49 m 308 727 q 267 743 286 727 q 248 784 248 758 q 267 825 248 808 q 308 841 286 841 q 347 825 330 841 q 365 784 365 808 q 347 743 365 758 q 308 727 330 727 z "},"ạ":{"ha":631,"x_min":95,"x_max":591,"o":"m 274 -11 q 184 8 225 -11 q 119 59 144 27 q 95 129 95 91 q 124 201 95 172 q 224 254 153 229 l 427 326 l 427 404 q 406 470 427 441 q 348 515 384 499 q 266 532 312 532 q 213 516 227 532 q 197 452 199 500 l 195 408 q 127 410 156 397 q 98 452 98 423 q 115 494 98 472 q 160 535 132 515 q 224 568 189 555 q 297 587 259 582 q 443 536 387 587 q 500 403 499 486 l 498 156 q 500 110 498 137 q 506 72 503 83 l 591 56 l 591 22 l 534 3 q 505 -7 518 -3 q 483 -11 491 -11 q 438 33 446 -11 l 429 81 l 445 85 q 358 12 399 35 q 274 -11 317 -11 m 294 49 q 365 66 332 49 q 427 121 397 84 l 427 269 l 245 216 q 199 188 213 206 q 184 141 184 170 q 218 77 184 106 q 294 49 252 49 m 334 -263 q 293 -248 312 -263 q 274 -208 274 -233 q 293 -166 274 -182 q 334 -151 312 -151 q 373 -166 355 -151 q 391 -208 391 -182 q 373 -248 391 -233 q 334 -263 355 -263 z "},"à":{"ha":631,"x_min":95,"x_max":591,"o":"m 274 -11 q 184 8 225 -11 q 119 59 144 27 q 95 129 95 91 q 124 201 95 172 q 224 254 153 229 l 427 326 l 427 404 q 406 470 427 441 q 348 515 384 499 q 266 532 312 532 q 213 516 227 532 q 197 452 199 500 l 195 408 q 127 410 156 397 q 98 452 98 423 q 115 494 98 472 q 160 535 132 515 q 224 568 189 555 q 297 587 259 582 q 443 536 387 587 q 500 403 499 486 l 498 156 q 500 110 498 137 q 506 72 503 83 l 591 56 l 591 22 l 534 3 q 505 -7 518 -3 q 483 -11 491 -11 q 438 33 446 -11 l 429 81 l 445 85 q 358 12 399 35 q 274 -11 317 -11 m 294 49 q 365 66 332 49 q 427 121 397 84 l 427 269 l 245 216 q 199 188 213 206 q 184 141 184 170 q 218 77 184 106 q 294 49 252 49 m 285 654 l 107 887 l 194 918 l 328 667 l 285 654 z "},"ả":{"ha":631,"x_min":95,"x_max":591,"o":"m 274 -11 q 184 8 225 -11 q 119 59 144 27 q 95 129 95 91 q 124 201 95 172 q 224 254 153 229 l 427 326 l 427 404 q 406 470 427 441 q 348 515 384 499 q 266 532 312 532 q 213 516 227 532 q 197 452 199 500 l 195 408 q 127 410 156 397 q 98 452 98 423 q 115 494 98 472 q 160 535 132 515 q 224 568 189 555 q 297 587 259 582 q 443 536 387 587 q 500 403 499 486 l 498 156 q 500 110 498 137 q 506 72 503 83 l 591 56 l 591 22 l 534 3 q 505 -7 518 -3 q 483 -11 491 -11 q 438 33 446 -11 l 429 81 l 445 85 q 358 12 399 35 q 274 -11 317 -11 m 294 49 q 365 66 332 49 q 427 121 397 84 l 427 269 l 245 216 q 199 188 213 206 q 184 141 184 170 q 218 77 184 106 q 294 49 252 49 m 312 905 q 396 882 363 905 q 429 821 429 860 q 413 770 429 787 q 377 743 397 754 q 341 715 357 731 q 326 665 326 699 l 289 665 l 289 688 q 304 750 289 727 q 336 790 320 773 q 351 826 351 807 q 327 869 351 863 q 273 868 302 876 l 317 876 l 274 837 q 248 814 256 819 q 225 808 240 808 q 203 817 212 808 q 194 840 194 826 q 227 884 194 864 q 312 905 259 905 z "},"ȃ":{"ha":631,"x_min":95,"x_max":591,"o":"m 274 -11 q 184 8 225 -11 q 119 59 144 27 q 95 129 95 91 q 124 201 95 172 q 224 254 153 229 l 427 326 l 427 404 q 406 470 427 441 q 348 515 384 499 q 266 532 312 532 q 213 516 227 532 q 197 452 199 500 l 195 408 q 127 410 156 397 q 98 452 98 423 q 115 494 98 472 q 160 535 132 515 q 224 568 189 555 q 297 587 259 582 q 443 536 387 587 q 500 403 499 486 l 498 156 q 500 110 498 137 q 506 72 503 83 l 591 56 l 591 22 l 534 3 q 505 -7 518 -3 q 483 -11 491 -11 q 438 33 446 -11 l 429 81 l 445 85 q 358 12 399 35 q 274 -11 317 -11 m 294 49 q 365 66 332 49 q 427 121 397 84 l 427 269 l 245 216 q 199 188 213 206 q 184 141 184 170 q 218 77 184 106 q 294 49 252 49 m 176 654 l 136 667 q 159 795 137 743 q 219 873 180 846 q 309 899 258 899 q 431 840 387 899 q 477 667 476 780 l 434 654 q 391 781 425 738 q 305 823 357 823 q 217 781 251 823 q 176 654 183 738 z "},"ā":{"ha":631,"x_min":95,"x_max":591,"o":"m 274 -11 q 184 8 225 -11 q 119 59 144 27 q 95 129 95 91 q 124 201 95 172 q 224 254 153 229 l 427 326 l 427 404 q 406 470 427 441 q 348 515 384 499 q 266 532 312 532 q 213 516 227 532 q 197 452 199 500 l 195 408 q 127 410 156 397 q 98 452 98 423 q 115 494 98 472 q 160 535 132 515 q 224 568 189 555 q 297 587 259 582 q 443 536 387 587 q 500 403 499 486 l 498 156 q 500 110 498 137 q 506 72 503 83 l 591 56 l 591 22 l 534 3 q 505 -7 518 -3 q 483 -11 491 -11 q 438 33 446 -11 l 429 81 l 445 85 q 358 12 399 35 q 274 -11 317 -11 m 294 49 q 365 66 332 49 q 427 121 397 84 l 427 269 l 245 216 q 199 188 213 206 q 184 141 184 170 q 218 77 184 106 q 294 49 252 49 m 119 817 l 494 817 l 494 753 l 119 753 l 119 817 z "}}}
